<svg width="2693.738" height="2037.755" viewBox="0 0 2693.7381 2037.7546" version="1.2" xmlns="http://www.w3.org/2000/svg"><desc>Generated by MuseScore 4.0.1</desc><path class="StaffLines" fill="none" stroke="#000" stroke-width="2.73" stroke-linejoin="bevel" d="M0 40.557h2693.738M0 65.357h2693.738M0 90.157h2693.738M0 114.957h2693.738M0 139.757h2693.738M0 300.957h2693.738M0 325.757h2693.738M0 350.557h2693.738M0 375.357h2693.738M0 400.157h2693.738M0 561.357h2693.738M0 586.157h2693.738M0 610.957h2693.738M0 635.757h2693.738M0 660.557h2693.738M0 821.754h2693.738M0 846.554h2693.738M0 871.354h2693.738M0 896.154h2693.738M0 920.954h2693.738M0 1082.154h2693.738M0 1106.954h2693.738M0 1131.754h2693.738M0 1156.554h2693.738M0 1181.354h2693.738M0 1342.554h2693.738M0 1367.354h2693.738M0 1392.154h2693.738M0 1416.954h2693.738M0 1441.754h2693.738M0 1602.954h2693.738M0 1627.754h2693.738M0 1652.554h2693.738M0 1677.354h2693.738M0 1702.154h2693.738M0 1863.354h2693.738M0 1888.154h2693.738M0 1912.954h2693.738M0 1937.754h2693.738M0 1962.554h2693.738"/><path class="BarLine" fill="none" stroke="#000" stroke-width="4.46" stroke-linejoin="bevel" d="M1399.368 1601.594v101.93M1390.808 1861.994v101.93M732.95 820.394v101.93M2057.088 1341.194v101.93M757.573 39.192v101.93M2691.508 559.993V661.92M2691.508 1341.194v101.93M2041.878 559.993V661.92M1392.248 559.993V661.92M753.295 1601.594v101.93M742.62 559.993V661.92M2034.738 1080.794v101.93M2691.508 299.593V401.52M2048.458 299.593V401.52M2045.438 1601.594v101.93M1405.418 299.593V401.52M762.372 299.593V401.52M2691.508 1601.594v101.93M1407.918 39.192v101.93M2691.508 39.192v101.93M2058.268 39.192v101.93M740.46 1861.994v101.93M1371.168 820.394v101.93M762.162 1080.794v101.93M2691.508 820.394v101.93M753.742 1341.194v101.93M2691.508 1080.794v101.93M2041.158 1861.994v101.93M1387.888 1080.794v101.93M2022.778 820.394v101.93M1422.678 1341.194v101.93M2691.508 1861.994v101.93"/><path class="LedgerLine" fill="none" stroke="#000" stroke-width="3.97" stroke-linejoin="bevel" d="M2235.248 2012.164h48.6M2344.848 2012.164h48.6M783.86 189.357h53.368M2235.248 1987.354h48.6M783.86 164.557h53.368M1098.948 1987.354h48.61M1694.498 1987.354h48.6M1453.058 536.557h53.36M951.668 164.557h48.6M1044.148 1987.354h48.6M768.91 536.557h87.884M2290.048 2012.164h48.6M119.28 536.557h87.886M1006.468 189.357h48.6M1006.468 164.557h48.6M1425.658 1726.954h53.36M2290.048 1987.354h48.6M1061.268 164.557h48.6M989.348 1987.354h48.6M2071.718 1578.154h53.37M2071.718 1726.954h53.37M1116.068 189.357h48.6M1116.068 164.557h48.6M1639.698 1987.354h48.6M1602.008 164.557h48.6M2412.498 796.954h48.6M1584.898 1987.354h48.6M1055.718 1057.354h48.6M957.528 1057.354h48.6M301.316 189.357h48.6M301.316 164.557h48.6M1749.298 1987.354h48.6M479.093 1057.354h48.6M424.293 1057.354h48.6M369.493 1057.354h48.6M314.692 1057.354h48.6M145.615 1057.354h53.367M1417.098 1987.354h53.37M356.117 189.357h48.6M465.717 164.557h48.6M2357.698 796.954h48.6M2302.898 796.954h48.6M356.117 164.557h48.6M2248.098 796.954h48.6M1749.298 2012.164h48.6M2083.588 796.954h53.37M1417.098 2012.164h53.37M1694.678 796.954h48.6M410.917 189.357h48.6M1596.488 796.954h48.6M410.917 164.557h48.6M465.717 189.357h48.6M133.514 1987.354h53.366M1766.408 164.557h48.6M1434.208 164.557h87.89M2084.558 189.357h53.37M1711.608 164.557h48.6M2084.558 164.557h87.88M766.75 1987.354h53.366M1656.808 164.557h48.6M2344.848 1987.354h48.6M448.605 1987.354h48.6M2399.648 164.557h48.6M2399.648 1987.354h48.6M2301.458 164.557h48.6M2399.648 2012.164h48.6M1639.698 2012.164h48.6M934.548 1987.354h48.6M350.413 1987.354h48.6M1434.208 189.357h53.37"/><path class="Stem" fill="none" stroke="#000" stroke-width="2.48" stroke-linejoin="bevel" d="M504.893 197.79V96.356M2340.628 160.59V71.556M2438.828 2020.594v-101.44M1788.478 2008.194v-89.04M1056.948 813.524v82.63M1101.588 825.924v70.23M1633.908 1383.924v82.63M1605.908 801.124v88.83M1678.538 1396.324v70.23M1012.318 825.924v70.23M1723.168 1383.924v82.63M967.688 813.524v82.63M2274.428 2008.194v-89.04M1767.798 1396.324v70.23M2431.968 1400.594v-82.84M1672.408 602.724v76.433M398.97 1673.394v-89.04M1717.038 590.324v88.833M1761.668 602.724v76.433M354.338 1660.994v-76.64M1138.128 1995.794v-82.84M389.59 1983.394v-89.04M2277.408 577.924v82.633M2322.038 590.324v70.233M2366.668 577.924v82.633M2411.298 590.324v70.233M438.685 1970.994v-76.64M2387.338 1388.194v-70.44M2438.828 160.59V71.556M2342.698 1400.594v-82.84M2426.448 1710.594v-82.84M319.548 825.924v88.83M2298.068 1388.194v-70.44M1133.388 1383.924v76.43M364.18 838.324v76.43M408.812 825.924v88.83M453.445 838.324v76.43M2407.938 1098.724v76.43M488.517 1061.524v70.23M375.188 1371.524v70.23M1750.788 160.59V90.156M330.556 1359.124v82.63M966.948 1061.524v88.83M1695.988 172.99V90.156M340.492 185.39V96.356M1016.048 1073.924v76.43M1065.148 1061.524v88.83M1114.238 1073.924v76.43M433.717 1049.124v82.63M1624.078 1995.794v-76.64M2363.308 1086.324v88.83M2318.678 1098.724v76.43M1627.188 1073.924v82.63M1671.828 1086.324v70.23M2274.038 1086.324v88.83M1716.458 1073.924v82.63M1761.088 1086.324v70.23M1641.188 160.59V90.156M999.488 1371.524v88.83M1704.098 801.124v88.83M2291.538 148.19V71.556M1753.198 813.524v76.43M2389.728 148.19V71.556M1088.758 1371.524v88.83M450.093 185.39V96.356M487.78 1983.394v-89.04M1044.118 1383.924v76.43M2257.518 788.724v82.63M2312.318 801.124v70.23M1655.008 813.524v76.43M2367.118 788.724v82.63M973.728 1983.394v-70.44M2421.918 801.124v70.23M395.293 197.79V96.356M324.116 1049.124v82.63M464.453 1371.524v70.23M378.917 1061.524v70.23M1805.588 172.99V90.156M419.82 1359.124v82.63M1155.238 185.39V96.356M1695.598 383.79v-82.833M402.904 619.39v-82.833M1134.308 1685.794v-82.84M447.536 606.99v-70.433M1650.968 371.39v-70.433M2384.028 2008.194v-89.04M492.17 619.39v-82.833M1089.668 1673.394v-70.44M358.272 606.99v-70.433M454.14 396.19v-70.433M498.774 408.59v-82.833M1733.678 1995.794v-76.64M1083.328 1983.394v-70.44M2292.548 1698.194v-70.44M1000.408 1673.394v-70.44M1141.818 396.19v-89.033M1045.038 1685.794v-82.84M1740.228 371.39v-70.433M1784.858 383.79v-82.833M1045.638 185.39V96.356M364.877 396.19v-70.433M2427.908 371.39v-89.033M443.603 1660.994v-76.64M2383.278 358.99v-76.633M1646.478 1685.794v-76.64M2338.638 371.39v-89.033M2294.008 358.99v-76.633M1780.378 1698.194v-89.04M1691.108 1698.194v-89.04M1100.438 172.99V96.356M409.51 408.59v-82.833M1735.738 1685.794v-76.64M2337.178 1710.594v-82.84M1678.878 2008.194v-89.04M1627.778 590.324v88.833M488.235 1673.394v-89.04M1028.528 1995.794v-82.84M2381.808 1698.194v-70.44M990.838 172.99V96.356M1007.918 383.79v-76.633M1112.048 615.124v70.233M340.492 1970.994v-76.64M1067.408 602.724v82.633M1052.558 396.19v-89.033M1022.778 615.124v70.233M2329.228 2020.594v-101.44M978.148 602.724v82.633M1097.188 383.79v-76.633"/><path class="Note" d="M2122.28 1081.07c-13.685 0-18.552 6.943-18.552 13.39 0 6.45 4.867 13.393 18.553 13.393 13.688 0 18.447-6.944 18.447-13.392 0-6.447-4.76-13.39-18.445-13.39m.79 23.606c-2.775 0-4.665-.79-5.952-3.27-1.286-2.48-3.07-8.93-3.178-11.517-.2-2.683.79-4.264 3.178-5.055 1.194-.403 2.775-.604 4.37-.604 2.667 0 4.465.606 5.844 3.287 1.396 2.573 3.287 9.02 3.287 11.5 0 4.868-3.58 5.658-7.548 5.658M550.5 1367.354l-42.655 49.6h9.92l42.656-49.6h-9.92M2306.188 1718.724c0 4.262 3.07 9.02 11.114 9.02 10.307 0 21.126-8.43 21.126-17.158 0-5.86-4.96-9.13-11.114-9.13-9.625 0-21.126 8.138-21.126 17.268M627.45 1367.354l-42.657 49.6h9.92l42.656-49.6h-9.92M793.486 1862.27c-13.686 0-18.553 6.943-18.553 13.39 0 6.45 4.867 13.393 18.553 13.393 13.687 0 18.446-6.944 18.446-13.392 0-6.447-4.76-13.39-18.446-13.39m.79 23.606c-2.774 0-4.664-.79-5.95-3.27-1.288-2.48-3.07-8.93-3.178-11.517-.202-2.683.79-4.264 3.177-5.054 1.193-.404 2.775-.605 4.37-.605 2.667 0 4.465.606 5.845 3.287 1.394 2.573 3.286 9.02 3.286 11.5 0 4.868-3.58 5.658-7.55 5.658M704.398 1367.354l-42.656 49.6h9.92l42.656-49.6h-9.92M1443.832 1998.68c-13.687 0-18.554 6.943-18.554 13.39 0 6.45 4.867 13.393 18.553 13.393 13.688 0 18.447-6.944 18.447-13.392 0-6.447-4.76-13.39-18.446-13.39m.792 23.606c-2.775 0-4.665-.79-5.952-3.27-1.286-2.48-3.07-8.93-3.178-11.517-.2-2.683.79-4.264 3.178-5.054 1.194-.403 2.775-.605 4.37-.605 2.667 0 4.465.606 5.845 3.287 1.395 2.573 3.286 9.02 3.286 11.5 0 4.868-3.58 5.66-7.548 5.66M691.117 1888.154l-42.656 49.6h9.92l42.657-49.6h-9.92M1749.378 1706.323c0 4.263 3.07 9.02 11.114 9.02 10.307 0 21.126-8.43 21.126-17.157 0-5.86-4.96-9.13-11.114-9.13-9.625 0-21.126 8.138-21.126 17.267M2098.46 1552.27c-13.685 0-18.552 6.943-18.552 13.39 0 6.45 4.867 13.393 18.553 13.393 13.688 0 18.447-6.944 18.447-13.392 0-6.447-4.76-13.39-18.446-13.39m.792 23.606c-2.775 0-4.665-.79-5.952-3.27s-3.07-8.93-3.178-11.517c-.2-2.683.79-4.264 3.178-5.054 1.193-.404 2.774-.605 4.37-.605 2.667 0 4.465.606 5.844 3.287 1.395 2.573 3.287 9.02 3.287 11.5 0 4.868-3.58 5.658-7.548 5.658M1443.832 1911.87c-13.687 0-18.554 6.943-18.554 13.39 0 6.45 4.867 13.393 18.553 13.393 13.688 0 18.447-6.944 18.447-13.392 0-6.447-4.76-13.39-18.446-13.39m.792 23.606c-2.775 0-4.665-.79-5.952-3.27-1.286-2.48-3.07-8.93-3.178-11.517-.2-2.683.79-4.264 3.178-5.055 1.194-.403 2.775-.604 4.37-.604 2.667 0 4.465.606 5.845 3.287 1.395 2.573 3.286 9.02 3.286 11.5 0 4.868-3.58 5.658-7.548 5.658M617.597 1888.154l-42.656 49.6h9.92l42.657-49.6h-9.92M2350.818 1706.323c0 4.263 3.07 9.02 11.114 9.02 10.307 0 21.126-8.43 21.126-17.157 0-5.86-4.96-9.13-11.114-9.13-9.625 0-21.126 8.138-21.126 17.267M463.213 1371.524c0 4.262 3.07 9.02 11.113 9.02 10.308 0 21.127-8.432 21.127-17.158 0-5.86-4.96-9.13-11.113-9.13-9.626 0-21.127 8.138-21.127 17.267M841.285 1366.27c-13.686 0-18.553 6.943-18.553 13.39 0 6.45 4.867 13.393 18.553 13.393 13.687 0 18.446-6.944 18.446-13.392 0-6.447-4.758-13.39-18.445-13.39m.79 23.606c-2.774 0-4.664-.79-5.95-3.27-1.288-2.48-3.07-8.93-3.178-11.517-.202-2.683.79-4.264 3.177-5.054 1.193-.404 2.775-.605 4.37-.605 2.667 0 4.465.606 5.845 3.287 1.393 2.573 3.285 9.02 3.285 11.5 0 4.868-3.58 5.658-7.55 5.658M806.767 1341.47c-13.686 0-18.553 6.943-18.553 13.39 0 6.45 4.867 13.393 18.553 13.393 13.687 0 18.446-6.944 18.446-13.392 0-6.447-4.76-13.39-18.446-13.39m.79 23.606c-2.774 0-4.664-.79-5.95-3.27-1.288-2.48-3.07-8.93-3.178-11.517-.203-2.683.79-4.264 3.176-5.054 1.193-.404 2.775-.605 4.37-.605 2.667 0 4.465.606 5.845 3.287 1.395 2.573 3.287 9.02 3.287 11.5 0 4.868-3.58 5.66-7.55 5.66M544.077 1888.154l-42.656 49.6h9.92l42.657-49.6h-9.92"/><path class="Note" d="M2087.76 1093.47c-13.685 0-18.552 6.943-18.552 13.39 0 6.45 4.867 13.393 18.553 13.393 13.688 0 18.447-6.944 18.447-13.392 0-6.447-4.76-13.39-18.445-13.39m.79 23.606c-2.775 0-4.665-.79-5.952-3.27-1.286-2.48-3.07-8.93-3.178-11.517-.2-2.683.79-4.264 3.178-5.054 1.194-.404 2.775-.605 4.37-.605 2.667 0 4.465.606 5.844 3.287 1.396 2.573 3.287 9.02 3.287 11.5 0 4.868-3.58 5.66-7.548 5.66"/><path class="Note" d="M2122.28 1105.87c-13.685 0-18.552 6.943-18.552 13.39 0 6.45 4.867 13.393 18.553 13.393 13.688 0 18.447-6.944 18.447-13.392 0-6.447-4.76-13.39-18.445-13.39m.79 23.606c-2.775 0-4.665-.79-5.952-3.27-1.286-2.48-3.07-8.93-3.178-11.517-.2-2.683.79-4.264 3.178-5.055 1.194-.403 2.775-.604 4.37-.604 2.667 0 4.465.606 5.844 3.287 1.396 2.573 3.287 9.02 3.287 11.5 0 4.868-3.58 5.658-7.548 5.658M841.285 1329.07c-13.686 0-18.553 6.943-18.553 13.39 0 6.45 4.867 13.393 18.553 13.393 13.687 0 18.446-6.944 18.446-13.392 0-6.447-4.758-13.39-18.445-13.39m.79 23.606c-2.774 0-4.664-.79-5.95-3.27-1.288-2.48-3.07-8.93-3.178-11.517-.202-2.683.79-4.264 3.177-5.055 1.193-.403 2.775-.604 4.37-.604 2.667 0 4.465.606 5.845 3.287 1.393 2.573 3.285 9.02 3.285 11.5 0 4.868-3.58 5.658-7.55 5.658M2642.164 1106.954l-42.656 49.6h9.92l42.656-49.6h-9.92M1704.748 1693.924c0 4.262 3.07 9.02 11.114 9.02 10.307 0 21.126-8.43 21.126-17.158 0-5.86-4.96-9.13-11.114-9.13-9.625 0-21.126 8.138-21.126 17.268M793.486 1986.27c-13.686 0-18.553 6.943-18.553 13.39 0 6.45 4.867 13.393 18.553 13.393 13.687 0 18.446-6.944 18.446-13.392 0-6.447-4.76-13.39-18.446-13.39m.79 23.606c-2.774 0-4.664-.79-5.95-3.27-1.288-2.48-3.07-8.93-3.178-11.517-.202-2.683.79-4.264 3.177-5.054 1.193-.404 2.775-.605 4.37-.605 2.667 0 4.465.606 5.845 3.287 1.394 2.573 3.286 9.02 3.286 11.5 0 4.868-3.58 5.658-7.55 5.658M2568.074 1106.954l-42.656 49.6h9.92l42.656-49.6h-9.92M2493.984 1106.954l-42.656 49.6h9.92l42.656-49.6h-9.92M172.352 1316.67c-13.686 0-18.553 6.943-18.553 13.39 0 6.45 4.866 13.393 18.552 13.393 13.687 0 18.446-6.944 18.446-13.392 0-6.447-4.76-13.39-18.446-13.39m.79 23.605c-2.774 0-4.664-.79-5.95-3.27-1.288-2.48-3.07-8.928-3.178-11.517-.202-2.68.79-4.262 3.177-5.053 1.194-.403 2.776-.604 4.372-.604 2.666 0 4.464.606 5.844 3.287 1.394 2.573 3.286 9.02 3.286 11.5 0 4.868-3.58 5.658-7.55 5.658M1087.518 1371.524c0 4.262 3.07 9.02 11.114 9.02 10.307 0 21.126-8.432 21.126-17.158 0-5.86-4.96-9.13-11.114-9.13-9.625 0-21.126 8.138-21.126 17.267M2642.084 1627.754l-42.656 49.6h9.92l42.656-49.6h-9.92M329.316 1359.123c0 4.263 3.07 9.02 11.113 9.02 10.307 0 21.126-8.43 21.126-17.157 0-5.86-4.96-9.13-11.113-9.13-9.626 0-21.127 8.138-21.127 17.267M2482.744 1627.754l-42.656 49.6h9.92l42.656-49.6h-9.92"/><path class="Note" d="M137.834 1329.07c-13.686 0-18.553 6.943-18.553 13.39 0 6.45 4.868 13.393 18.554 13.393 13.687 0 18.446-6.944 18.446-13.392 0-6.447-4.76-13.39-18.446-13.39m.79 23.606c-2.774 0-4.664-.79-5.95-3.27-1.288-2.48-3.07-8.93-3.178-11.517-.202-2.683.79-4.264 3.177-5.055 1.193-.403 2.775-.604 4.37-.604 2.667 0 4.465.606 5.845 3.287 1.394 2.573 3.286 9.02 3.286 11.5 0 4.868-3.58 5.658-7.55 5.658M2362.068 1086.323c0 4.263 3.07 9.02 11.114 9.02 10.307 0 21.126-8.43 21.126-17.157 0-5.86-4.96-9.13-11.114-9.13-9.625 0-21.126 8.138-21.126 17.267M1443.832 1874.67c-13.687 0-18.554 6.943-18.554 13.39 0 6.45 4.867 13.393 18.553 13.393 13.688 0 18.447-6.944 18.447-13.392 0-6.447-4.76-13.39-18.446-13.39m.792 23.605c-2.775 0-4.665-.79-5.952-3.27-1.286-2.48-3.07-8.928-3.178-11.517-.2-2.68.79-4.262 3.178-5.053 1.194-.403 2.775-.604 4.37-.604 2.667 0 4.465.606 5.845 3.287 1.395 2.573 3.286 9.02 3.286 11.5 0 4.868-3.58 5.658-7.548 5.658M172.352 1353.87c-13.686 0-18.553 6.943-18.553 13.39 0 6.45 4.866 13.393 18.552 13.393 13.687 0 18.446-6.944 18.446-13.392 0-6.447-4.76-13.39-18.446-13.39m.79 23.606c-2.774 0-4.664-.79-5.95-3.27-1.288-2.48-3.07-8.93-3.178-11.517-.202-2.683.79-4.264 3.177-5.055 1.194-.403 2.776-.604 4.372-.604 2.666 0 4.464.606 5.844 3.287 1.394 2.573 3.286 9.02 3.286 11.5 0 4.868-3.58 5.658-7.55 5.658M2406.698 1098.724c0 4.262 3.07 9.02 11.114 9.02 10.307 0 21.126-8.43 21.126-17.158 0-5.86-4.96-9.13-11.114-9.13-9.625 0-21.126 8.138-21.126 17.268M2395.448 1718.724c0 4.262 3.07 9.02 11.114 9.02 10.307 0 21.126-8.43 21.126-17.158 0-5.86-4.96-9.13-11.114-9.13-9.625 0-21.126 8.138-21.126 17.268M2098.46 1725.87c-13.685 0-18.552 6.943-18.552 13.39 0 6.45 4.867 13.393 18.553 13.393 13.688 0 18.447-6.944 18.447-13.392 0-6.447-4.76-13.39-18.446-13.39m.792 23.606c-2.775 0-4.665-.79-5.952-3.27s-3.07-8.93-3.178-11.517c-.2-2.683.79-4.264 3.178-5.055 1.193-.403 2.774-.604 4.37-.604 2.667 0 4.465.606 5.844 3.287 1.395 2.573 3.287 9.02 3.287 11.5 0 4.868-3.58 5.658-7.548 5.658M2562.414 1627.754l-42.656 49.6h9.92l42.656-49.6h-9.92M373.948 1371.524c0 4.262 3.07 9.02 11.113 9.02 10.31 0 21.128-8.432 21.128-17.158 0-5.86-4.96-9.13-11.113-9.13-9.626 0-21.127 8.138-21.127 17.267M793.486 1949.07c-13.686 0-18.553 6.943-18.553 13.39 0 6.45 4.867 13.393 18.553 13.393 13.687 0 18.446-6.944 18.446-13.392 0-6.447-4.76-13.39-18.446-13.39m.79 23.606c-2.774 0-4.664-.79-5.95-3.27-1.288-2.48-3.07-8.93-3.178-11.517-.202-2.683.79-4.264 3.177-5.055 1.193-.403 2.775-.604 4.37-.604 2.667 0 4.465.606 5.845 3.287 1.394 2.573 3.286 9.02 3.286 11.5 0 4.868-3.58 5.658-7.55 5.658M942.738 1991.524c0 4.262 3.07 9.02 11.113 9.02 10.31 0 21.128-8.432 21.128-17.158 0-5.86-4.96-9.13-11.113-9.13-9.626 0-21.127 8.138-21.127 17.267M1996.014 1627.754l-42.656 49.6h9.92l42.656-49.6h-9.92M2317.438 1098.724c0 4.262 3.07 9.02 11.114 9.02 10.307 0 21.126-8.43 21.126-17.158 0-5.86-4.96-9.13-11.114-9.13-9.625 0-21.126 8.138-21.126 17.268M2261.558 1706.323c0 4.263 3.07 9.02 11.114 9.02 10.307 0 21.126-8.43 21.126-17.157 0-5.86-4.96-9.13-11.114-9.13-9.625 0-21.126 8.138-21.126 17.267M1916.344 1627.754l-42.656 49.6h9.92l42.656-49.6h-9.92M418.58 1359.123c0 4.263 3.07 9.02 11.114 9.02 10.308 0 21.127-8.43 21.127-17.157 0-5.86-4.96-9.13-11.112-9.13-9.626 0-21.127 8.138-21.127 17.267M2098.46 1614.27c-13.685 0-18.552 6.943-18.552 13.39 0 6.45 4.867 13.393 18.553 13.393 13.688 0 18.447-6.944 18.447-13.392 0-6.447-4.76-13.39-18.446-13.39m.792 23.606c-2.775 0-4.665-.79-5.952-3.27s-3.07-8.93-3.178-11.517c-.2-2.683.79-4.264 3.178-5.054 1.193-.404 2.774-.605 4.37-.605 2.667 0 4.465.606 5.844 3.287 1.395 2.573 3.287 9.02 3.287 11.5 0 4.868-3.58 5.658-7.548 5.658M1836.674 1627.754l-42.656 49.6h9.92l42.656-49.6h-9.92M1757.488 2016.333c0 4.263 3.07 9.02 11.114 9.02 10.307 0 21.126-8.43 21.126-17.157 0-5.86-4.96-9.13-11.114-9.13-9.625 0-21.126 8.138-21.126 17.267M2272.798 1086.323c0 4.263 3.07 9.02 11.114 9.02 10.307 0 21.126-8.43 21.126-17.157 0-5.86-4.96-9.13-11.114-9.13-9.625 0-21.126 8.138-21.126 17.267M969.418 1681.524c0 4.262 3.07 9.02 11.113 9.02 10.31 0 21.128-8.432 21.128-17.158 0-5.86-4.96-9.13-11.113-9.13-9.626 0-21.127 8.138-21.127 17.267M2400.978 1408.724c0 4.262 3.07 9.02 11.114 9.02 10.307 0 21.126-8.43 21.126-17.158 0-5.86-4.96-9.13-11.114-9.13-9.625 0-21.126 8.138-21.126 17.268M2356.338 1396.323c0 4.263 3.07 9.02 11.114 9.02 10.307 0 21.126-8.43 21.126-17.157 0-5.86-4.96-9.13-11.114-9.13-9.625 0-21.126 8.138-21.126 17.267M806.32 1676.27c-13.686 0-18.553 6.943-18.553 13.39 0 6.45 4.867 13.393 18.553 13.393 13.687 0 18.446-6.944 18.446-13.392 0-6.447-4.76-13.39-18.446-13.39m.79 23.606c-2.774 0-4.664-.79-5.95-3.27-1.288-2.48-3.07-8.93-3.178-11.517-.202-2.683.79-4.264 3.177-5.054 1.192-.404 2.774-.605 4.37-.605 2.666 0 4.464.606 5.844 3.287 1.394 2.573 3.286 9.02 3.286 11.5 0 4.868-3.58 5.658-7.55 5.658M358.597 1991.524c0 4.262 3.07 9.02 11.113 9.02 10.308 0 21.127-8.432 21.127-17.158 0-5.86-4.96-9.13-11.113-9.13-9.626 0-21.127 8.138-21.127 17.267M2311.708 1408.724c0 4.262 3.07 9.02 11.114 9.02 10.307 0 21.126-8.43 21.126-17.158 0-5.86-4.96-9.13-11.114-9.13-9.625 0-21.126 8.138-21.126 17.268M1702.688 2003.924c0 4.262 3.07 9.02 11.114 9.02 10.307 0 21.126-8.43 21.126-17.158 0-5.86-4.96-9.13-11.114-9.13-9.625 0-21.126 8.138-21.126 17.268M2267.078 1396.323c0 4.263 3.07 9.02 11.114 9.02 10.307 0 21.126-8.43 21.126-17.157 0-5.86-4.96-9.13-11.114-9.13-9.625 0-21.126 8.138-21.126 17.267M806.32 1639.07c-13.686 0-18.553 6.943-18.553 13.39 0 6.45 4.867 13.393 18.553 13.393 13.687 0 18.446-6.944 18.446-13.392 0-6.447-4.76-13.39-18.446-13.39m.79 23.606c-2.774 0-4.664-.79-5.95-3.27-1.288-2.48-3.07-8.93-3.178-11.517-.202-2.683.79-4.264 3.177-5.055 1.192-.403 2.774-.604 4.37-.604 2.666 0 4.464.606 5.844 3.287 1.394 2.573 3.286 9.02 3.286 11.5 0 4.868-3.58 5.658-7.55 5.658"/><path class="Note" d="M806.32 1701.07c-13.686 0-18.553 6.943-18.553 13.39 0 6.45 4.867 13.393 18.553 13.393 13.687 0 18.446-6.944 18.446-13.392 0-6.447-4.76-13.39-18.446-13.39m.79 23.606c-2.774 0-4.664-.79-5.95-3.27-1.288-2.48-3.07-8.93-3.178-11.517-.202-2.683.79-4.264 3.177-5.055 1.192-.403 2.774-.604 4.37-.604 2.666 0 4.464.606 5.844 3.287 1.394 2.573 3.286 9.02 3.286 11.5 0 4.868-3.58 5.658-7.55 5.658M160.25 1887.07c-13.685 0-18.552 6.943-18.552 13.39 0 6.45 4.867 13.393 18.553 13.393 13.688 0 18.447-6.944 18.447-13.392 0-6.447-4.76-13.39-18.446-13.39m.792 23.606c-2.775 0-4.665-.79-5.952-3.27s-3.07-8.93-3.177-11.517c-.202-2.683.79-4.264 3.177-5.055 1.193-.403 2.775-.604 4.37-.604 2.667 0 4.465.606 5.845 3.287 1.394 2.573 3.286 9.02 3.286 11.5 0 4.868-3.58 5.658-7.548 5.658M1593.088 2003.924c0 4.262 3.07 9.02 11.114 9.02 10.307 0 21.126-8.43 21.126-17.158 0-5.86-4.96-9.13-11.114-9.13-9.625 0-21.126 8.138-21.126 17.268M2110.11 1391.07c-13.685 0-18.552 6.943-18.552 13.39 0 6.45 4.867 13.393 18.553 13.393 13.688 0 18.447-6.944 18.447-13.392 0-6.447-4.76-13.39-18.445-13.39m.79 23.606c-2.775 0-4.665-.79-5.952-3.27-1.286-2.48-3.07-8.93-3.178-11.517-.2-2.683.79-4.264 3.178-5.055 1.194-.403 2.775-.604 4.37-.604 2.667 0 4.465.606 5.844 3.287 1.395 2.573 3.287 9.02 3.287 11.5 0 4.868-3.58 5.658-7.548 5.658"/><path class="Note" d="M2144.63 1403.47c-13.685 0-18.552 6.943-18.552 13.39 0 6.45 4.867 13.393 18.553 13.393 13.688 0 18.447-6.944 18.447-13.392 0-6.447-4.76-13.39-18.446-13.39m.792 23.606c-2.775 0-4.665-.79-5.952-3.27-1.286-2.48-3.07-8.93-3.178-11.517-.2-2.683.79-4.264 3.178-5.054 1.194-.404 2.775-.605 4.37-.605 2.667 0 4.465.606 5.844 3.287 1.395 2.573 3.287 9.02 3.287 11.5 0 4.868-3.58 5.66-7.548 5.66"/><path class="Note" d="M2110.11 1415.87c-13.685 0-18.552 6.943-18.552 13.39 0 6.45 4.867 13.393 18.553 13.393 13.688 0 18.447-6.944 18.447-13.392 0-6.447-4.76-13.39-18.445-13.39m.79 23.606c-2.775 0-4.665-.79-5.952-3.27-1.286-2.48-3.07-8.93-3.178-11.517-.2-2.683.79-4.264 3.178-5.055 1.194-.403 2.775-.604 4.37-.604 2.667 0 4.465.606 5.844 3.287 1.395 2.573 3.287 9.02 3.287 11.5 0 4.868-3.58 5.658-7.548 5.658M1194.424 1888.154l-42.656 49.6h9.92l42.656-49.6h-9.92M1267.944 1888.154l-42.656 49.6h9.92l42.656-49.6h-9.92M544.53 1627.754l-42.655 49.6h9.92l42.656-49.6h-9.92M367.978 1681.524c0 4.262 3.07 9.02 11.113 9.02 10.31 0 21.128-8.432 21.128-17.158 0-5.86-4.96-9.13-11.113-9.13-9.626 0-21.127 8.138-21.127 17.267M412.61 1669.123c0 4.263 3.07 9.02 11.114 9.02 10.308 0 21.127-8.43 21.127-17.157 0-5.86-4.96-9.13-11.112-9.13-9.626 0-21.127 8.138-21.127 17.267M457.243 1681.524c0 4.262 3.07 9.02 11.113 9.02 10.308 0 21.127-8.432 21.127-17.158 0-5.86-4.96-9.13-11.113-9.13-9.626 0-21.127 8.138-21.127 17.267M309.5 1979.123c0 4.263 3.07 9.02 11.113 9.02 10.308 0 21.127-8.43 21.127-17.157 0-5.86-4.96-9.13-11.113-9.13-9.626 0-21.127 8.138-21.127 17.267M323.346 1669.123c0 4.263 3.07 9.02 11.113 9.02 10.307 0 21.126-8.43 21.126-17.157 0-5.86-4.96-9.13-11.113-9.13-9.626 0-21.127 8.138-21.127 17.267M1052.338 1991.524c0 4.262 3.07 9.02 11.114 9.02 10.307 0 21.126-8.432 21.126-17.158 0-5.86-4.96-9.13-11.114-9.13-9.625 0-21.126 8.138-21.126 17.267M194.77 1626.67c-13.687 0-18.554 6.943-18.554 13.39 0 6.45 4.867 13.393 18.553 13.393s18.445-6.944 18.445-13.392c0-6.447-4.76-13.39-18.446-13.39m.79 23.605c-2.775 0-4.665-.79-5.952-3.27s-3.07-8.928-3.177-11.517c-.2-2.68.79-4.262 3.178-5.053 1.193-.403 2.775-.604 4.37-.604 2.667 0 4.465.606 5.845 3.287 1.394 2.573 3.286 9.02 3.286 11.5 0 4.868-3.582 5.658-7.55 5.658"/><path class="Note" d="M160.25 1639.07c-13.685 0-18.552 6.943-18.552 13.39 0 6.45 4.867 13.393 18.553 13.393 13.688 0 18.447-6.944 18.447-13.392 0-6.447-4.76-13.39-18.446-13.39m.792 23.606c-2.775 0-4.665-.79-5.952-3.27s-3.07-8.93-3.177-11.517c-.202-2.683.79-4.264 3.177-5.055 1.193-.403 2.775-.604 4.37-.604 2.667 0 4.465.606 5.845 3.287 1.394 2.573 3.286 9.02 3.286 11.5 0 4.868-3.58 5.658-7.548 5.658M2007.744 1367.354l-42.656 49.6h9.92l42.656-49.6h-9.92"/><path class="Note" d="M160.25 1663.87c-13.685 0-18.552 6.943-18.552 13.39 0 6.45 4.867 13.393 18.553 13.393 13.688 0 18.447-6.944 18.447-13.392 0-6.447-4.76-13.39-18.446-13.39m.792 23.606c-2.775 0-4.665-.79-5.952-3.27s-3.07-8.93-3.177-11.517c-.202-2.683.79-4.264 3.177-5.055 1.193-.403 2.775-.604 4.37-.604 2.667 0 4.465.606 5.845 3.287 1.394 2.573 3.286 9.02 3.286 11.5 0 4.868-3.58 5.658-7.548 5.658M1107.138 2003.924c0 4.262 3.07 9.02 11.114 9.02 10.307 0 21.126-8.43 21.126-17.158 0-5.86-4.96-9.13-11.114-9.13-9.625 0-21.126 8.138-21.126 17.268M624.205 1627.754l-42.656 49.6h9.92l42.655-49.6h-9.92M703.878 1627.754l-42.656 49.6h9.92l42.656-49.6h-9.92M2642.164 1367.354l-42.656 49.6h9.92l42.656-49.6h-9.92M2565.214 1367.354l-42.656 49.6h9.92l42.656-49.6h-9.92M2488.264 1367.354l-42.656 49.6h9.92l42.656-49.6h-9.92M1452.39 1688.67c-13.685 0-18.552 6.943-18.552 13.39 0 6.45 4.867 13.393 18.553 13.393 13.688 0 18.447-6.944 18.447-13.392 0-6.447-4.76-13.39-18.446-13.39m.792 23.605c-2.775 0-4.665-.79-5.952-3.27-1.286-2.48-3.07-8.928-3.178-11.517-.2-2.68.79-4.262 3.178-5.053 1.194-.403 2.775-.604 4.37-.604 2.667 0 4.465.606 5.845 3.287 1.395 2.573 3.286 9.02 3.286 11.5 0 4.868-3.58 5.658-7.548 5.658M1349.944 1627.754l-42.656 49.6h9.92l42.656-49.6h-9.92M160.25 1973.87c-13.685 0-18.552 6.943-18.552 13.39 0 6.45 4.867 13.393 18.553 13.393 13.688 0 18.447-6.944 18.447-13.392 0-6.447-4.76-13.39-18.446-13.39m.792 23.606c-2.775 0-4.665-.79-5.952-3.27s-3.07-8.93-3.177-11.517c-.202-2.683.79-4.264 3.177-5.055 1.193-.403 2.775-.604 4.37-.604 2.667 0 4.465.606 5.845 3.287 1.394 2.573 3.286 9.02 3.286 11.5 0 4.868-3.58 5.658-7.548 5.658M1373.334 1367.354l-42.656 49.6h9.92l42.656-49.6h-9.92M407.693 1979.123c0 4.263 3.07 9.02 11.113 9.02 10.308 0 21.127-8.43 21.127-17.157 0-5.86-4.96-9.13-11.113-9.13-9.626 0-21.127 8.138-21.127 17.267M1296.384 1367.354l-42.656 49.6h9.92l42.656-49.6h-9.92M997.538 2003.924c0 4.262 3.07 9.02 11.114 9.02 10.307 0 21.126-8.43 21.126-17.158 0-5.86-4.96-9.13-11.114-9.13-9.625 0-21.126 8.138-21.126 17.268"/><path class="Note" d="M1452.39 1713.47c-13.685 0-18.552 6.943-18.552 13.39 0 6.45 4.867 13.393 18.553 13.393 13.688 0 18.447-6.944 18.447-13.392 0-6.447-4.76-13.39-18.446-13.39m.792 23.606c-2.775 0-4.665-.79-5.952-3.27-1.286-2.48-3.07-8.93-3.178-11.517-.2-2.683.79-4.264 3.178-5.054 1.194-.404 2.775-.605 4.37-.605 2.667 0 4.465.606 5.845 3.287 1.395 2.573 3.286 9.02 3.286 11.5 0 4.868-3.58 5.66-7.548 5.66M1219.434 1367.354l-42.656 49.6h9.92l42.656-49.6h-9.92M1270.274 1627.754l-42.656 49.6h9.92l42.656-49.6h-9.92M1132.148 1383.924c0 4.262 3.07 9.02 11.114 9.02 10.307 0 21.126-8.43 21.126-17.158 0-5.86-4.96-9.13-11.114-9.13-9.625 0-21.126 8.138-21.126 17.268M1452.39 1601.87c-13.685 0-18.552 6.943-18.552 13.39 0 6.45 4.867 13.393 18.553 13.393 13.688 0 18.447-6.944 18.447-13.392 0-6.447-4.76-13.39-18.446-13.39m.792 23.606c-2.775 0-4.665-.79-5.952-3.27-1.286-2.48-3.07-8.93-3.178-11.517-.2-2.683.79-4.264 3.178-5.055 1.194-.403 2.775-.604 4.37-.604 2.667 0 4.465.606 5.845 3.287 1.395 2.573 3.286 9.02 3.286 11.5 0 4.868-3.58 5.658-7.548 5.658M1042.878 1383.924c0 4.262 3.07 9.02 11.114 9.02 10.307 0 21.126-8.43 21.126-17.158 0-5.86-4.96-9.13-11.114-9.13-9.625 0-21.126 8.138-21.126 17.268M1615.488 1693.924c0 4.262 3.07 9.02 11.114 9.02 10.307 0 21.126-8.43 21.126-17.158 0-5.86-4.96-9.13-11.114-9.13-9.625 0-21.126 8.138-21.126 17.268M456.79 1991.524c0 4.262 3.068 9.02 11.112 9.02 10.308 0 21.127-8.432 21.127-17.158 0-5.86-4.96-9.13-11.114-9.13-9.626 0-21.127 8.138-21.127 17.267M1647.888 2016.333c0 4.263 3.07 9.02 11.114 9.02 10.307 0 21.126-8.43 21.126-17.157 0-5.86-4.96-9.13-11.114-9.13-9.625 0-21.126 8.138-21.126 17.267M998.248 1371.524c0 4.262 3.07 9.02 11.114 9.02 10.307 0 21.126-8.432 21.126-17.158 0-5.86-4.96-9.13-11.114-9.13-9.625 0-21.126 8.138-21.126 17.267M1660.118 1706.323c0 4.263 3.07 9.02 11.114 9.02 10.307 0 21.126-8.43 21.126-17.157 0-5.86-4.96-9.13-11.114-9.13-9.625 0-21.126 8.138-21.126 17.267M1475.7 1403.47c-13.685 0-18.552 6.943-18.552 13.39 0 6.45 4.867 13.393 18.553 13.393 13.688 0 18.447-6.944 18.447-13.392 0-6.447-4.76-13.39-18.446-13.39m.792 23.606c-2.775 0-4.665-.79-5.952-3.27-1.286-2.48-3.07-8.93-3.178-11.517-.2-2.683.79-4.264 3.178-5.054 1.194-.404 2.775-.605 4.37-.605 2.667 0 4.465.606 5.844 3.287 1.396 2.573 3.287 9.02 3.287 11.5 0 4.868-3.58 5.66-7.548 5.66M1190.604 1627.754l-42.656 49.6h9.92l42.656-49.6h-9.92"/><path class="Note" d="M1510.222 1391.07c-13.687 0-18.554 6.943-18.554 13.39 0 6.45 4.867 13.393 18.554 13.393 13.686 0 18.445-6.944 18.445-13.392 0-6.447-4.76-13.39-18.445-13.39m.79 23.606c-2.774 0-4.665-.79-5.952-3.27-1.286-2.48-3.07-8.93-3.177-11.517-.202-2.683.79-4.264 3.177-5.055 1.194-.403 2.775-.604 4.37-.604 2.667 0 4.465.606 5.845 3.287 1.395 2.573 3.286 9.02 3.286 11.5 0 4.868-3.58 5.658-7.548 5.658"/><path class="Note" d="M1475.7 1378.67c-13.685 0-18.552 6.943-18.552 13.39 0 6.45 4.867 13.393 18.553 13.393 13.688 0 18.447-6.944 18.447-13.392 0-6.447-4.76-13.39-18.446-13.39m.792 23.605c-2.775 0-4.665-.79-5.952-3.27-1.286-2.48-3.07-8.928-3.178-11.517-.2-2.68.79-4.262 3.178-5.053 1.194-.403 2.775-.604 4.37-.604 2.667 0 4.465.606 5.844 3.287 1.396 2.573 3.287 9.02 3.287 11.5 0 4.868-3.58 5.658-7.548 5.658M1103.308 1693.924c0 4.262 3.07 9.02 11.114 9.02 10.307 0 21.126-8.43 21.126-17.158 0-5.86-4.96-9.13-11.114-9.13-9.625 0-21.126 8.138-21.126 17.268M1632.668 1383.924c0 4.262 3.07 9.02 11.114 9.02 10.307 0 21.126-8.43 21.126-17.158 0-5.86-4.96-9.13-11.114-9.13-9.625 0-21.126 8.138-21.126 17.268M160.25 1949.07c-13.685 0-18.552 6.943-18.552 13.39 0 6.45 4.867 13.393 18.553 13.393 13.688 0 18.447-6.944 18.447-13.392 0-6.447-4.76-13.39-18.446-13.39m.792 23.606c-2.775 0-4.665-.79-5.952-3.27s-3.07-8.93-3.177-11.517c-.202-2.683.79-4.264 3.177-5.055 1.193-.403 2.775-.604 4.37-.604 2.667 0 4.465.606 5.845 3.287 1.394 2.573 3.286 9.02 3.286 11.5 0 4.868-3.58 5.658-7.548 5.658M1058.678 1681.524c0 4.262 3.07 9.02 11.114 9.02 10.307 0 21.126-8.432 21.126-17.158 0-5.86-4.96-9.13-11.113-9.13-9.626 0-21.127 8.138-21.127 17.267M1677.298 1396.323c0 4.263 3.07 9.02 11.114 9.02 10.307 0 21.126-8.43 21.126-17.157 0-5.86-4.96-9.13-11.114-9.13-9.625 0-21.126 8.138-21.126 17.267M1721.928 1383.924c0 4.262 3.07 9.02 11.114 9.02 10.307 0 21.126-8.43 21.126-17.158 0-5.86-4.96-9.13-11.113-9.13-9.626 0-21.127 8.138-21.127 17.268M1014.048 1693.924c0 4.262 3.07 9.02 11.114 9.02 10.307 0 21.126-8.43 21.126-17.158 0-5.86-4.96-9.13-11.114-9.13-9.625 0-21.126 8.138-21.126 17.268M1766.558 1396.323c0 4.263 3.07 9.02 11.114 9.02 10.307 0 21.126-8.43 21.126-17.157 0-5.86-4.96-9.13-11.114-9.13-9.625 0-21.126 8.138-21.126 17.267M1853.844 1367.354l-42.656 49.6h9.92l42.656-49.6h-9.92M1341.464 1888.154l-42.656 49.6h9.92l42.656-49.6h-9.92M1930.794 1367.354l-42.656 49.6h9.92l42.656-49.6h-9.92M1356.074 325.757l-42.656 49.6h9.92l42.656-49.6h-9.92M2101.48 386.672c-13.685 0-18.552 6.944-18.552 13.392 0 6.448 4.867 13.392 18.553 13.392 13.688 0 18.447-6.944 18.447-13.392 0-6.448-4.76-13.392-18.446-13.392m.792 23.606c-2.775 0-4.665-.79-5.952-3.27s-3.07-8.928-3.178-11.517c-.2-2.68.79-4.26 3.178-5.052 1.193-.402 2.774-.604 4.37-.604 2.667 0 4.465.604 5.844 3.286 1.395 2.573 3.287 9.02 3.287 11.5 0 4.868-3.58 5.658-7.548 5.658M1999.114 325.757l-42.656 49.6h9.92l42.656-49.6h-9.92M1920.134 325.757l-42.656 49.6h9.92l42.656-49.6h-9.92M1841.154 325.757l-42.656 49.6h9.92l42.656-49.6h-9.92M1753.868 391.927c0 4.262 3.07 9.02 11.114 9.02 10.307 0 21.126-8.43 21.126-17.158 0-5.86-4.96-9.13-11.114-9.13-9.625 0-21.126 8.137-21.126 17.267M1709.238 379.527c0 4.262 3.07 9.02 11.114 9.02 10.307 0 21.126-8.43 21.126-17.158 0-5.86-4.96-9.13-11.114-9.13-9.625 0-21.126 8.137-21.126 17.267M1664.608 391.927c0 4.262 3.07 9.02 11.114 9.02 10.307 0 21.126-8.43 21.126-17.158 0-5.86-4.96-9.13-11.114-9.13-9.625 0-21.126 8.137-21.126 17.267M2298.228 2028.734c0 4.262 3.07 9.02 11.114 9.02 10.307 0 21.126-8.43 21.126-17.158 0-5.86-4.96-9.13-11.114-9.13-9.625 0-21.126 8.138-21.126 17.268M1619.978 379.527c0 4.262 3.07 9.02 11.114 9.02 10.307 0 21.126-8.43 21.126-17.158 0-5.86-4.96-9.13-11.114-9.13-9.625 0-21.126 8.137-21.126 17.267M1458.44 299.872c-13.685 0-18.552 6.944-18.552 13.392 0 6.448 4.867 13.392 18.553 13.392 13.688 0 18.447-6.944 18.447-13.392 0-6.448-4.76-13.392-18.446-13.392m.792 23.606c-2.775 0-4.665-.79-5.952-3.27-1.286-2.48-3.07-8.928-3.178-11.517-.2-2.68.79-4.26 3.178-5.052 1.194-.402 2.775-.604 4.37-.604 2.667 0 4.465.604 5.844 3.286 1.396 2.573 3.287 9.02 3.287 11.5 0 4.868-3.58 5.658-7.548 5.658M1492.96 374.272c-13.685 0-18.552 6.944-18.552 13.392 0 6.448 4.867 13.392 18.553 13.392 13.688 0 18.447-6.944 18.447-13.392 0-6.448-4.76-13.392-18.446-13.392m.792 23.606c-2.775 0-4.665-.79-5.952-3.27-1.286-2.48-3.07-8.928-3.178-11.517-.2-2.68.79-4.26 3.178-5.052 1.194-.402 2.775-.604 4.37-.604 2.667 0 4.465.604 5.844 3.286 1.396 2.573 3.287 9.02 3.287 11.5 0 4.868-3.58 5.658-7.548 5.658"/><path class="Note" d="M1458.44 386.672c-13.685 0-18.552 6.944-18.552 13.392 0 6.448 4.867 13.392 18.553 13.392 13.688 0 18.447-6.944 18.447-13.392 0-6.448-4.76-13.392-18.446-13.392m.792 23.606c-2.775 0-4.665-.79-5.952-3.27-1.286-2.48-3.07-8.928-3.178-11.517-.2-2.68.79-4.26 3.178-5.052 1.194-.402 2.775-.604 4.37-.604 2.667 0 4.465.604 5.844 3.286 1.396 2.573 3.287 9.02 3.287 11.5 0 4.868-3.58 5.658-7.548 5.658M2136 374.272c-13.685 0-18.552 6.944-18.552 13.392 0 6.448 4.867 13.392 18.553 13.392 13.688 0 18.447-6.944 18.447-13.392 0-6.448-4.76-13.392-18.446-13.392m.792 23.606c-2.775 0-4.665-.79-5.952-3.27s-3.07-8.928-3.178-11.517c-.2-2.68.79-4.26 3.178-5.052 1.193-.402 2.774-.604 4.37-.604 2.667 0 4.465.604 5.844 3.286 1.395 2.573 3.287 9.02 3.287 11.5 0 4.868-3.58 5.658-7.548 5.658M1277.094 325.757l-42.656 49.6h9.92l42.656-49.6h-9.92M1198.114 325.757l-42.656 49.6h9.92l42.656-49.6h-9.92M1110.828 404.327c0 4.262 3.07 9.02 11.114 9.02 10.307 0 21.126-8.43 21.126-17.158 0-5.86-4.96-9.13-11.114-9.13-9.625 0-21.126 8.137-21.126 17.267M1066.198 391.927c0 4.262 3.07 9.02 11.114 9.02 10.307 0 21.126-8.43 21.126-17.158 0-5.86-4.96-9.13-11.114-9.13-9.625 0-21.126 8.137-21.126 17.267M1021.558 404.327c0 4.262 3.07 9.02 11.114 9.02 10.307 0 21.126-8.43 21.126-17.158 0-5.86-4.96-9.13-11.114-9.13-9.625 0-21.126 8.137-21.126 17.267M976.928 391.927c0 4.262 3.07 9.02 11.113 9.02 10.31 0 21.128-8.43 21.128-17.158 0-5.86-4.96-9.13-11.113-9.13-9.626 0-21.127 8.137-21.127 17.267M849.915 299.872c-13.686 0-18.553 6.944-18.553 13.392 0 6.448 4.867 13.392 18.553 13.392 13.687 0 18.446-6.944 18.446-13.392 0-6.448-4.758-13.392-18.445-13.392m.79 23.606c-2.774 0-4.664-.79-5.95-3.27-1.288-2.48-3.07-8.928-3.178-11.517-.202-2.68.79-4.26 3.177-5.052 1.193-.402 2.775-.604 4.37-.604 2.667 0 4.465.604 5.845 3.286 1.394 2.573 3.285 9.02 3.285 11.5 0 4.868-3.58 5.658-7.55 5.658"/><path class="Note" d="M815.397 312.272c-13.686 0-18.553 6.944-18.553 13.392 0 6.448 4.867 13.392 18.553 13.392 13.687 0 18.446-6.944 18.446-13.392 0-6.448-4.76-13.392-18.446-13.392m.79 23.606c-2.774 0-4.664-.79-5.95-3.27-1.288-2.48-3.07-8.928-3.178-11.517-.203-2.68.79-4.26 3.176-5.052 1.193-.402 2.775-.604 4.37-.604 2.667 0 4.465.604 5.845 3.286 1.395 2.573 3.287 9.02 3.287 11.5 0 4.868-3.58 5.658-7.55 5.658M815.397 386.672c-13.686 0-18.553 6.944-18.553 13.392 0 6.448 4.867 13.392 18.553 13.392 13.687 0 18.446-6.944 18.446-13.392 0-6.448-4.76-13.392-18.446-13.392m.79 23.606c-2.774 0-4.664-.79-5.95-3.27-1.288-2.48-3.07-8.928-3.178-11.517-.203-2.68.79-4.26 3.176-5.052 1.193-.402 2.775-.604 4.37-.604 2.667 0 4.465.604 5.845 3.286 1.395 2.573 3.287 9.02 3.287 11.5 0 4.868-3.58 5.658-7.55 5.658M713.027 325.757l-42.656 49.6h9.92l42.657-49.6h-9.92M634.048 325.757l-42.656 49.6h9.92l42.656-49.6h-9.92M555.07 325.757l-42.656 49.6h9.92l42.656-49.6h-9.92M371.912 627.527c0 4.262 3.07 9.02 11.113 9.02 10.308 0 21.127-8.43 21.127-17.158 0-5.86-4.96-9.13-11.113-9.13-9.627 0-21.128 8.137-21.128 17.267M1110.808 615.127c0 4.262 3.07 9.02 11.114 9.02 10.307 0 21.126-8.43 21.126-17.158 0-5.86-4.96-9.13-11.114-9.13-9.625 0-21.126 8.137-21.126 17.267M1066.168 602.727c0 4.262 3.07 9.02 11.114 9.02 10.307 0 21.126-8.43 21.126-17.158 0-5.86-4.96-9.13-11.114-9.13-9.625 0-21.126 8.137-21.126 17.267M1021.538 615.127c0 4.262 3.07 9.02 11.114 9.02 10.307 0 21.126-8.43 21.126-17.158 0-5.86-4.96-9.13-11.114-9.13-9.625 0-21.126 8.137-21.126 17.267M976.908 602.727c0 4.262 3.07 9.02 11.113 9.02 10.31 0 21.128-8.43 21.128-17.158 0-5.86-4.96-9.13-11.113-9.13-9.626 0-21.127 8.137-21.127 17.267M830.164 510.672c-13.686 0-18.553 6.944-18.553 13.392 0 6.448 4.868 13.392 18.554 13.392 13.687 0 18.446-6.944 18.446-13.392 0-6.448-4.76-13.392-18.446-13.392m.79 23.606c-2.774 0-4.664-.79-5.95-3.27-1.288-2.48-3.07-8.928-3.178-11.517-.202-2.68.79-4.26 3.177-5.052 1.193-.402 2.775-.604 4.37-.604 2.667 0 4.465.604 5.845 3.286 1.395 2.573 3.286 9.02 3.286 11.5 0 4.868-3.58 5.658-7.55 5.658"/><path class="Note" d="M795.646 523.072c-13.686 0-18.553 6.944-18.553 13.392 0 6.448 4.867 13.392 18.553 13.392 13.687 0 18.446-6.944 18.446-13.392 0-6.448-4.76-13.392-18.446-13.392m.79 23.606c-2.774 0-4.664-.79-5.95-3.27-1.288-2.48-3.07-8.928-3.178-11.517-.202-2.68.79-4.26 3.177-5.052 1.193-.402 2.775-.604 4.37-.604 2.667 0 4.465.604 5.845 3.286 1.394 2.573 3.286 9.02 3.286 11.5 0 4.868-3.58 5.658-7.55 5.658M830.164 597.472c-13.686 0-18.553 6.944-18.553 13.392 0 6.448 4.868 13.392 18.554 13.392 13.687 0 18.446-6.944 18.446-13.392 0-6.448-4.76-13.392-18.446-13.392m.79 23.606c-2.774 0-4.664-.79-5.95-3.27-1.288-2.48-3.07-8.928-3.178-11.517-.202-2.68.79-4.26 3.177-5.052 1.193-.402 2.775-.604 4.37-.604 2.667 0 4.465.604 5.845 3.286 1.395 2.573 3.286 9.02 3.286 11.5 0 4.868-3.58 5.658-7.55 5.658M693.276 586.157l-42.656 49.6h9.92l42.656-49.6h-9.92M620.87 586.157l-42.656 49.6h9.92l42.656-49.6h-9.92M548.465 586.157l-42.656 49.6h9.92l42.655-49.6h-9.92M461.176 627.527c0 4.262 3.07 9.02 11.113 9.02 10.307 0 21.126-8.43 21.126-17.158 0-5.86-4.96-9.13-11.113-9.13-9.626 0-21.127 8.137-21.127 17.267M416.544 615.127c0 4.262 3.07 9.02 11.113 9.02 10.308 0 21.127-8.43 21.127-17.158 0-5.86-4.96-9.13-11.113-9.13-9.625 0-21.126 8.137-21.126 17.267M467.78 416.727c0 4.262 3.07 9.02 11.114 9.02 10.308 0 21.127-8.43 21.127-17.158 0-5.86-4.96-9.13-11.112-9.13-9.626 0-21.127 8.137-21.127 17.267M327.28 615.127c0 4.262 3.068 9.02 11.112 9.02 10.308 0 21.127-8.43 21.127-17.158 0-5.86-4.96-9.13-11.114-9.13-9.626 0-21.127 8.137-21.127 17.267M180.536 510.672c-13.686 0-18.553 6.944-18.553 13.392 0 6.448 4.867 13.392 18.553 13.392 13.687 0 18.446-6.944 18.446-13.392 0-6.448-4.76-13.392-18.446-13.392m.79 23.606c-2.774 0-4.664-.79-5.95-3.27-1.288-2.48-3.07-8.928-3.178-11.517-.202-2.68.79-4.26 3.177-5.052 1.193-.402 2.775-.604 4.37-.604 2.667 0 4.465.604 5.845 3.286 1.394 2.573 3.286 9.02 3.286 11.5 0 4.868-3.58 5.658-7.55 5.658"/><path class="Note" d="M146.018 523.072c-13.686 0-18.553 6.944-18.553 13.392 0 6.448 4.867 13.392 18.553 13.392 13.687 0 18.446-6.944 18.446-13.392 0-6.448-4.76-13.392-18.446-13.392m.79 23.606c-2.774 0-4.664-.79-5.95-3.27-1.288-2.48-3.07-8.928-3.178-11.517-.202-2.68.79-4.26 3.177-5.052 1.193-.402 2.775-.604 4.37-.604 2.667 0 4.465.604 5.845 3.286 1.395 2.573 3.286 9.02 3.286 11.5 0 4.868-3.58 5.658-7.55 5.658"/><path class="Note" d="M180.536 535.472c-13.686 0-18.553 6.944-18.553 13.392 0 6.448 4.867 13.392 18.553 13.392 13.687 0 18.446-6.944 18.446-13.392 0-6.448-4.76-13.392-18.446-13.392m.79 23.606c-2.774 0-4.664-.79-5.95-3.27-1.288-2.48-3.07-8.928-3.178-11.517-.202-2.68.79-4.26 3.177-5.052 1.193-.402 2.775-.604 4.37-.604 2.667 0 4.465.604 5.845 3.286 1.394 2.573 3.286 9.02 3.286 11.5 0 4.868-3.58 5.658-7.55 5.658M2642.164 325.757l-42.656 49.6h9.92l42.656-49.6h-9.92M2563.184 325.757l-42.656 49.6h9.92l42.656-49.6h-9.92M2484.204 325.757l-42.656 49.6h9.92l42.656-49.6h-9.92M2396.918 379.527c0 4.262 3.07 9.02 11.114 9.02 10.307 0 21.126-8.43 21.126-17.158 0-5.86-4.96-9.13-11.114-9.13-9.625 0-21.126 8.137-21.126 17.267M2352.278 367.127c0 4.262 3.07 9.02 11.114 9.02 10.307 0 21.126-8.43 21.126-17.158 0-5.86-4.96-9.13-11.114-9.13-9.625 0-21.126 8.137-21.126 17.267M2307.648 379.527c0 4.262 3.07 9.02 11.114 9.02 10.307 0 21.126-8.43 21.126-17.158 0-5.86-4.96-9.13-11.114-9.13-9.625 0-21.126 8.137-21.126 17.267M2263.018 367.127c0 4.262 3.07 9.02 11.114 9.02 10.307 0 21.126-8.43 21.126-17.158 0-5.86-4.96-9.13-11.114-9.13-9.625 0-21.126 8.137-21.126 17.267M2101.48 361.872c-13.685 0-18.552 6.944-18.552 13.392 0 6.448 4.867 13.392 18.553 13.392 13.688 0 18.447-6.944 18.447-13.392 0-6.448-4.76-13.392-18.446-13.392m.792 23.606c-2.775 0-4.665-.79-5.952-3.27s-3.07-8.928-3.178-11.517c-.2-2.68.79-4.26 3.178-5.052 1.193-.402 2.774-.604 4.37-.604 2.667 0 4.465.604 5.844 3.286 1.395 2.573 3.287 9.02 3.287 11.5 0 4.868-3.58 5.658-7.548 5.658M810.598 175.872c-13.686 0-18.553 6.944-18.553 13.392 0 6.448 4.867 13.392 18.553 13.392 13.687 0 18.446-6.944 18.446-13.392 0-6.448-4.76-13.392-18.446-13.392m.79 23.606c-2.774 0-4.664-.79-5.95-3.27-1.288-2.48-3.07-8.928-3.178-11.517-.202-2.68.79-4.26 3.177-5.052 1.193-.402 2.775-.604 4.37-.604 2.667 0 4.465.604 5.845 3.286 1.394 2.573 3.286 9.02 3.286 11.5 0 4.868-3.58 5.658-7.55 5.658M1460.95 175.872c-13.685 0-18.552 6.944-18.552 13.392 0 6.448 4.867 13.392 18.553 13.392 13.688 0 18.447-6.944 18.447-13.392 0-6.448-4.76-13.392-18.446-13.392m.792 23.606c-2.775 0-4.665-.79-5.952-3.27-1.286-2.48-3.07-8.928-3.178-11.517-.2-2.68.79-4.26 3.178-5.052 1.194-.402 2.775-.604 4.37-.604 2.667 0 4.465.604 5.844 3.286 1.396 2.573 3.287 9.02 3.287 11.5 0 4.868-3.58 5.658-7.548 5.658M1358.574 65.357l-42.656 49.6h9.92l42.656-49.6h-9.92M1285.054 65.357l-42.656 49.6h9.92l42.656-49.6h-9.92M1211.534 65.357l-42.656 49.6h9.92l42.656-49.6h-9.92M1124.248 193.527c0 4.262 3.07 9.02 11.114 9.02 10.307 0 21.126-8.43 21.126-17.158 0-5.86-4.96-9.13-11.114-9.13-9.625 0-21.126 8.137-21.126 17.267M1069.448 181.127c0 4.262 3.07 9.02 11.114 9.02 10.307 0 21.126-8.43 21.126-17.158 0-5.86-4.96-9.13-11.114-9.13-9.625 0-21.126 8.137-21.126 17.267M1014.648 193.527c0 4.262 3.07 9.02 11.114 9.02 10.307 0 21.126-8.43 21.126-17.158 0-5.86-4.96-9.13-11.113-9.13-9.626 0-21.127 8.137-21.127 17.267M2407.828 2028.734c0 4.262 3.07 9.02 11.114 9.02 10.307 0 21.126-8.43 21.126-17.158 0-5.86-4.96-9.13-11.114-9.13-9.625 0-21.126 8.138-21.126 17.268M959.848 181.127c0 4.262 3.07 9.02 11.113 9.02 10.31 0 21.128-8.43 21.128-17.158 0-5.86-4.96-9.13-11.113-9.13-9.626 0-21.127 8.137-21.127 17.267M2495.124 1888.154l-42.656 49.6h9.92l42.656-49.6h-9.92M845.117 89.072c-13.686 0-18.553 6.944-18.553 13.392 0 6.448 4.867 13.392 18.553 13.392 13.687 0 18.446-6.944 18.446-13.392 0-6.448-4.76-13.392-18.446-13.392m.79 23.606c-2.774 0-4.664-.79-5.95-3.27-1.288-2.48-3.07-8.928-3.178-11.517-.203-2.68.79-4.26 3.176-5.052 1.193-.402 2.775-.604 4.37-.604 2.667 0 4.465.604 5.845 3.286 1.396 2.573 3.287 9.02 3.287 11.5 0 4.868-3.58 5.658-7.55 5.658"/><path class="Note" d="M810.598 101.472c-13.686 0-18.553 6.944-18.553 13.392 0 6.448 4.867 13.392 18.553 13.392 13.687 0 18.446-6.944 18.446-13.392 0-6.448-4.76-13.392-18.446-13.392m.79 23.606c-2.774 0-4.664-.79-5.95-3.27-1.288-2.48-3.07-8.928-3.178-11.517-.202-2.68.79-4.26 3.177-5.052 1.193-.402 2.775-.604 4.37-.604 2.667 0 4.465.604 5.845 3.286 1.394 2.573 3.286 9.02 3.286 11.5 0 4.868-3.58 5.658-7.55 5.658M1495.46 163.472c-13.685 0-18.552 6.944-18.552 13.392 0 6.448 4.867 13.392 18.553 13.392 13.688 0 18.447-6.944 18.447-13.392 0-6.448-4.76-13.392-18.446-13.392m.792 23.606c-2.775 0-4.665-.79-5.952-3.27-1.286-2.48-3.07-8.928-3.178-11.517-.2-2.68.79-4.26 3.178-5.052 1.194-.402 2.775-.604 4.37-.604 2.667 0 4.465.604 5.844 3.286 1.396 2.573 3.287 9.02 3.287 11.5 0 4.868-3.58 5.658-7.548 5.658M708.23 65.357l-42.657 49.6h9.92l42.656-49.6h-9.92M634.71 65.357l-42.657 49.6h9.92l42.656-49.6h-9.92M561.19 65.357l-42.657 49.6h9.92l42.656-49.6h-9.92M473.9 205.927c0 4.262 3.07 9.02 11.114 9.02 10.308 0 21.127-8.43 21.127-17.158 0-5.86-4.96-9.13-11.112-9.13-9.626 0-21.127 8.137-21.127 17.267M419.1 193.527c0 4.262 3.07 9.02 11.114 9.02 10.308 0 21.127-8.43 21.127-17.158 0-5.86-4.96-9.13-11.112-9.13-9.626 0-21.127 8.137-21.127 17.267M364.3 205.927c0 4.262 3.07 9.02 11.114 9.02 10.308 0 21.127-8.43 21.127-17.158 0-5.86-4.96-9.13-11.112-9.13-9.626 0-21.127 8.137-21.127 17.267M2568.644 1888.154l-42.656 49.6h9.92l42.656-49.6h-9.92M309.5 193.527c0 4.262 3.07 9.02 11.113 9.02 10.308 0 21.127-8.43 21.127-17.158 0-5.86-4.96-9.13-11.113-9.13-9.626 0-21.127 8.137-21.127 17.267M2642.164 1888.154l-42.656 49.6h9.92l42.656-49.6h-9.92M160.25 89.072c-13.685 0-18.552 6.944-18.552 13.392 0 6.448 4.867 13.392 18.553 13.392 13.688 0 18.447-6.944 18.447-13.392 0-6.448-4.76-13.392-18.446-13.392m.792 23.606c-2.775 0-4.665-.79-5.952-3.27s-3.07-8.928-3.177-11.517c-.202-2.68.79-4.26 3.177-5.052 1.193-.402 2.775-.604 4.37-.604 2.667 0 4.465.604 5.845 3.286 1.394 2.573 3.286 9.02 3.286 11.5 0 4.868-3.58 5.658-7.548 5.658"/><path class="Note" d="M194.77 101.472c-13.687 0-18.554 6.944-18.554 13.392 0 6.448 4.867 13.392 18.553 13.392s18.445-6.944 18.445-13.392c0-6.448-4.76-13.392-18.446-13.392m.79 23.606c-2.775 0-4.665-.79-5.952-3.27s-3.07-8.928-3.177-11.517c-.2-2.68.79-4.26 3.178-5.052 1.193-.402 2.775-.604 4.37-.604 2.667 0 4.465.604 5.845 3.286 1.394 2.573 3.286 9.02 3.286 11.5 0 4.868-3.582 5.658-7.55 5.658"/><path class="Note" d="M160.25 113.872c-13.685 0-18.552 6.944-18.552 13.392 0 6.448 4.867 13.392 18.553 13.392 13.688 0 18.447-6.944 18.447-13.392 0-6.448-4.76-13.392-18.446-13.392m.792 23.606c-2.775 0-4.665-.79-5.952-3.27s-3.07-8.928-3.177-11.517c-.202-2.68.79-4.26 3.177-5.052 1.193-.402 2.775-.604 4.37-.604 2.667 0 4.465.604 5.845 3.286 1.394 2.573 3.286 9.02 3.286 11.5 0 4.868-3.58 5.658-7.548 5.658M2309.638 168.727c0 4.262 3.07 9.02 11.114 9.02 10.307 0 21.126-8.43 21.126-17.158 0-5.86-4.96-9.13-11.114-9.13-9.625 0-21.126 8.137-21.126 17.267M423.15 404.327c0 4.262 3.068 9.02 11.112 9.02 10.308 0 21.127-8.43 21.127-17.158 0-5.86-4.96-9.13-11.114-9.13-9.626 0-21.127 8.137-21.127 17.267M378.517 416.727c0 4.262 3.07 9.02 11.113 9.02 10.308 0 21.127-8.43 21.127-17.158 0-5.86-4.96-9.13-11.113-9.13-9.626 0-21.127 8.137-21.127 17.267M333.885 404.327c0 4.262 3.07 9.02 11.113 9.02 10.308 0 21.127-8.43 21.127-17.158 0-5.86-4.96-9.13-11.113-9.13-9.626 0-21.127 8.137-21.127 17.267M2353.028 2016.333c0 4.263 3.07 9.02 11.114 9.02 10.307 0 21.126-8.43 21.126-17.157 0-5.86-4.96-9.13-11.114-9.13-9.625 0-21.126 8.138-21.126 17.267M172.352 299.872c-13.686 0-18.553 6.944-18.553 13.392 0 6.448 4.866 13.392 18.552 13.392 13.687 0 18.446-6.944 18.446-13.392 0-6.448-4.76-13.392-18.446-13.392m.79 23.606c-2.774 0-4.664-.79-5.95-3.27-1.288-2.48-3.07-8.928-3.178-11.517-.202-2.68.79-4.26 3.177-5.052 1.194-.402 2.776-.604 4.372-.604 2.666 0 4.464.604 5.844 3.286 1.394 2.573 3.286 9.02 3.286 11.5 0 4.868-3.58 5.658-7.55 5.658"/><path class="Note" d="M137.834 312.272c-13.686 0-18.553 6.944-18.553 13.392 0 6.448 4.868 13.392 18.554 13.392 13.687 0 18.446-6.944 18.446-13.392 0-6.448-4.76-13.392-18.446-13.392m.79 23.606c-2.774 0-4.664-.79-5.95-3.27-1.288-2.48-3.07-8.928-3.178-11.517-.202-2.68.79-4.26 3.177-5.052 1.193-.402 2.775-.604 4.37-.604 2.667 0 4.465.604 5.845 3.286 1.394 2.573 3.286 9.02 3.286 11.5 0 4.868-3.58 5.658-7.55 5.658"/><path class="Note" d="M172.352 324.672c-13.686 0-18.553 6.944-18.553 13.392 0 6.448 4.866 13.392 18.552 13.392 13.687 0 18.446-6.944 18.446-13.392 0-6.448-4.76-13.392-18.446-13.392m.79 23.606c-2.774 0-4.664-.79-5.95-3.27-1.288-2.48-3.07-8.928-3.178-11.517-.202-2.68.79-4.26 3.177-5.052 1.194-.402 2.776-.604 4.372-.604 2.666 0 4.464.604 5.844 3.286 1.394 2.573 3.286 9.02 3.286 11.5 0 4.868-3.58 5.658-7.55 5.658M2642.164 65.357l-42.656 49.6h9.92l42.656-49.6h-9.92M2568.644 65.357l-42.656 49.6h9.92l42.656-49.6h-9.92M2495.124 65.357l-42.656 49.6h9.92l42.656-49.6h-9.92M2407.828 168.727c0 4.262 3.07 9.02 11.114 9.02 10.307 0 21.126-8.43 21.126-17.158 0-5.86-4.96-9.13-11.114-9.13-9.625 0-21.126 8.137-21.126 17.267M2358.738 156.327c0 4.262 3.07 9.02 11.114 9.02 10.307 0 21.126-8.43 21.126-17.158 0-5.86-4.96-9.13-11.114-9.13-9.625 0-21.126 8.137-21.126 17.267M1911.304 1106.954l-42.656 49.6h9.92l42.656-49.6h-9.92M2260.548 156.327c0 4.262 3.07 9.02 11.114 9.02 10.307 0 21.126-8.43 21.126-17.158 0-5.86-4.96-9.13-11.114-9.13-9.625 0-21.126 8.137-21.126 17.267M2111.29 151.072c-13.685 0-18.552 6.944-18.552 13.392 0 6.448 4.867 13.392 18.553 13.392 13.688 0 18.447-6.944 18.447-13.392 0-6.448-4.76-13.392-18.446-13.392m.792 23.606c-2.775 0-4.665-.79-5.952-3.27s-3.07-8.928-3.178-11.517c-.2-2.68.79-4.26 3.178-5.052 1.193-.402 2.774-.604 4.37-.604 2.667 0 4.465.604 5.844 3.286 1.395 2.573 3.287 9.02 3.287 11.5 0 4.868-3.58 5.658-7.548 5.658"/><path class="Note" d="M2145.81 163.472c-13.685 0-18.552 6.944-18.552 13.392 0 6.448 4.867 13.392 18.553 13.392 13.688 0 18.447-6.944 18.447-13.392 0-6.448-4.76-13.392-18.446-13.392m.792 23.606c-2.775 0-4.665-.79-5.952-3.27s-3.07-8.928-3.178-11.517c-.2-2.68.79-4.26 3.178-5.052 1.193-.402 2.774-.604 4.37-.604 2.667 0 4.465.604 5.844 3.286 1.395 2.573 3.287 9.02 3.287 11.5 0 4.868-3.58 5.658-7.548 5.658"/><path class="Note" d="M2111.29 175.872c-13.685 0-18.552 6.944-18.552 13.392 0 6.448 4.867 13.392 18.553 13.392 13.688 0 18.447-6.944 18.447-13.392 0-6.448-4.76-13.392-18.446-13.392m.792 23.606c-2.775 0-4.665-.79-5.952-3.27s-3.07-8.928-3.178-11.517c-.2-2.68.79-4.26 3.178-5.052 1.193-.402 2.774-.604 4.37-.604 2.667 0 4.465.604 5.844 3.286 1.395 2.573 3.287 9.02 3.287 11.5 0 4.868-3.58 5.658-7.548 5.658M2008.924 65.357l-42.656 49.6h9.92l42.656-49.6h-9.92M1935.404 65.357l-42.656 49.6h9.92l42.656-49.6h-9.92M1861.884 65.357l-42.656 49.6h9.92l42.656-49.6h-9.92M1774.598 181.127c0 4.262 3.07 9.02 11.114 9.02 10.307 0 21.126-8.43 21.126-17.158 0-5.86-4.96-9.13-11.114-9.13-9.625 0-21.126 8.137-21.126 17.267M1719.798 168.727c0 4.262 3.07 9.02 11.114 9.02 10.307 0 21.126-8.43 21.126-17.158 0-5.86-4.96-9.13-11.114-9.13-9.625 0-21.126 8.137-21.126 17.267M1664.998 181.127c0 4.262 3.07 9.02 11.114 9.02 10.307 0 21.126-8.43 21.126-17.158 0-5.86-4.96-9.13-11.114-9.13-9.625 0-21.126 8.137-21.126 17.267M1610.198 168.727c0 4.262 3.07 9.02 11.114 9.02 10.307 0 21.126-8.43 21.126-17.158 0-5.86-4.96-9.13-11.114-9.13-9.625 0-21.126 8.137-21.126 17.267M1460.95 89.072c-13.685 0-18.552 6.944-18.552 13.392 0 6.448 4.867 13.392 18.553 13.392 13.688 0 18.447-6.944 18.447-13.392 0-6.448-4.76-13.392-18.446-13.392m.792 23.606c-2.775 0-4.665-.79-5.952-3.27-1.286-2.48-3.07-8.928-3.178-11.517-.2-2.68.79-4.26 3.178-5.052 1.194-.402 2.775-.604 4.37-.604 2.667 0 4.465.604 5.844 3.286 1.396 2.573 3.287 9.02 3.287 11.5 0 4.868-3.58 5.658-7.548 5.658M2311.078 801.124c0 4.262 3.07 9.02 11.114 9.02 10.307 0 21.126-8.43 21.126-17.158 0-5.86-4.96-9.13-11.114-9.13-9.625 0-21.126 8.138-21.126 17.268M432.477 1049.123c0 4.263 3.07 9.02 11.113 9.02 10.308 0 21.127-8.43 21.127-17.157 0-5.86-4.96-9.13-11.113-9.13-9.626 0-21.127 8.138-21.127 17.267M377.677 1061.524c0 4.262 3.07 9.02 11.113 9.02 10.308 0 21.127-8.432 21.127-17.158 0-5.86-4.96-9.13-11.113-9.13-9.626 0-21.127 8.138-21.127 17.267M1991.814 1888.154l-42.656 49.6h9.92l42.656-49.6h-9.92M322.876 1049.123c0 4.263 3.07 9.02 11.113 9.02 10.307 0 21.126-8.43 21.126-17.157 0-5.86-4.96-9.13-11.113-9.13-9.626 0-21.127 8.138-21.127 17.267M172.352 1043.87c-13.686 0-18.553 6.943-18.553 13.39 0 6.45 4.866 13.393 18.552 13.393 13.687 0 18.446-6.944 18.446-13.392 0-6.447-4.76-13.39-18.446-13.39m.79 23.606c-2.774 0-4.664-.79-5.95-3.27-1.288-2.48-3.07-8.93-3.178-11.517-.202-2.683.79-4.264 3.177-5.055 1.194-.403 2.776-.604 4.372-.604 2.666 0 4.464.606 5.844 3.287 1.394 2.573 3.286 9.02 3.286 11.5 0 4.868-3.58 5.658-7.55 5.658M172.352 1105.87c-13.686 0-18.553 6.943-18.553 13.39 0 6.45 4.866 13.393 18.552 13.393 13.687 0 18.446-6.944 18.446-13.392 0-6.447-4.76-13.39-18.446-13.39m.79 23.606c-2.774 0-4.664-.79-5.95-3.27-1.288-2.48-3.07-8.93-3.178-11.517-.202-2.683.79-4.264 3.177-5.055 1.194-.403 2.776-.604 4.372-.604 2.666 0 4.464.606 5.844 3.287 1.394 2.573 3.286 9.02 3.286 11.5 0 4.868-3.58 5.658-7.55 5.658"/><path class="Note" d="M137.834 1118.27c-13.686 0-18.553 6.943-18.553 13.39 0 6.45 4.868 13.393 18.554 13.393 13.687 0 18.446-6.944 18.446-13.392 0-6.447-4.76-13.39-18.446-13.39m.79 23.606c-2.774 0-4.664-.79-5.95-3.27-1.288-2.48-3.07-8.93-3.178-11.517-.202-2.683.79-4.264 3.177-5.054 1.193-.404 2.775-.605 4.37-.605 2.667 0 4.465.606 5.845 3.287 1.394 2.573 3.286 9.02 3.286 11.5 0 4.868-3.58 5.658-7.55 5.658M2642.164 846.554l-42.656 49.6h9.92l42.656-49.6h-9.92M2570.104 846.554l-42.656 49.6h9.92l42.656-49.6h-9.92M2498.044 846.554l-42.656 49.6h9.92l42.656-49.6h-9.92M2420.678 801.124c0 4.262 3.07 9.02 11.114 9.02 10.307 0 21.126-8.43 21.126-17.158 0-5.86-4.96-9.13-11.114-9.13-9.625 0-21.126 8.138-21.126 17.268M2365.878 788.727c0 4.262 3.07 9.02 11.114 9.02 10.307 0 21.126-8.43 21.126-17.158 0-5.86-4.96-9.13-11.114-9.13-9.625 0-21.126 8.137-21.126 17.267M487.277 1061.524c0 4.262 3.07 9.02 11.113 9.02 10.308 0 21.127-8.432 21.127-17.158 0-5.86-4.96-9.13-11.113-9.13-9.626 0-21.127 8.138-21.127 17.267M2256.278 788.727c0 4.262 3.07 9.02 11.114 9.02 10.307 0 21.126-8.43 21.126-17.158 0-5.86-4.96-9.13-11.114-9.13-9.625 0-21.126 8.137-21.126 17.267M2110.32 783.47c-13.685 0-18.552 6.943-18.552 13.39 0 6.45 4.867 13.393 18.553 13.393 13.688 0 18.447-6.944 18.447-13.392 0-6.447-4.76-13.39-18.445-13.39m.79 23.605c-2.775 0-4.665-.79-5.952-3.27-1.286-2.48-3.07-8.928-3.178-11.517-.2-2.68.79-4.262 3.178-5.053 1.194-.402 2.775-.604 4.37-.604 2.667 0 4.465.605 5.844 3.287 1.396 2.573 3.287 9.02 3.287 11.5 0 4.868-3.58 5.658-7.548 5.658"/><path class="Note" d="M2075.8 795.87c-13.685 0-18.552 6.943-18.552 13.39 0 6.45 4.867 13.393 18.553 13.393 13.688 0 18.447-6.944 18.447-13.392 0-6.447-4.76-13.39-18.445-13.39m.79 23.605c-2.775 0-4.665-.79-5.952-3.27-1.286-2.48-3.07-8.928-3.178-11.517-.2-2.68.79-4.262 3.178-5.053 1.194-.402 2.775-.604 4.37-.604 2.667 0 4.465.605 5.844 3.287 1.396 2.573 3.287 9.02 3.287 11.5 0 4.868-3.58 5.658-7.548 5.658"/><path class="Note" d="M2110.32 808.27c-13.685 0-18.552 6.943-18.552 13.39 0 6.45 4.867 13.393 18.553 13.393 13.688 0 18.447-6.944 18.447-13.392 0-6.447-4.76-13.39-18.445-13.39m.79 23.605c-2.775 0-4.665-.79-5.952-3.27-1.286-2.48-3.07-8.928-3.178-11.517-.2-2.68.79-4.262 3.178-5.053 1.194-.402 2.775-.604 4.37-.604 2.667 0 4.465.605 5.844 3.287 1.396 2.573 3.287 9.02 3.287 11.5 0 4.868-3.58 5.658-7.548 5.658M1973.434 846.554l-42.656 49.6h9.92l42.656-49.6h-9.92M1901.384 846.554l-42.656 49.6h9.92l42.656-49.6h-9.92M1829.324 846.554l-42.656 49.6h9.92l42.656-49.6h-9.92M1751.958 813.524c0 4.262 3.07 9.02 11.114 9.02 10.307 0 21.126-8.43 21.126-17.158 0-5.86-4.96-9.13-11.114-9.13-9.625 0-21.126 8.138-21.126 17.268M1702.858 801.124c0 4.262 3.07 9.02 11.114 9.02 10.307 0 21.126-8.43 21.126-17.158 0-5.86-4.96-9.13-11.114-9.13-9.625 0-21.126 8.138-21.126 17.268M1653.768 813.524c0 4.262 3.07 9.02 11.114 9.02 10.307 0 21.126-8.43 21.126-17.158 0-5.86-4.96-9.13-11.114-9.13-9.625 0-21.126 8.138-21.126 17.268M1604.668 801.124c0 4.262 3.07 9.02 11.114 9.02 10.307 0 21.126-8.43 21.126-17.158 0-5.86-4.96-9.13-11.114-9.13-9.625 0-21.126 8.138-21.126 17.268M1458.71 795.87c-13.685 0-18.552 6.943-18.552 13.39 0 6.45 4.867 13.393 18.553 13.393 13.688 0 18.447-6.944 18.447-13.392 0-6.447-4.76-13.39-18.446-13.39m.792 23.605c-2.775 0-4.665-.79-5.952-3.27-1.286-2.48-3.07-8.928-3.178-11.517-.2-2.68.79-4.262 3.178-5.053 1.194-.402 2.775-.604 4.37-.604 2.667 0 4.465.605 5.844 3.287 1.396 2.573 3.287 9.02 3.287 11.5 0 4.868-3.58 5.658-7.548 5.658M1190.364 1106.954l-42.656 49.6h9.92l42.656-49.6h-9.92M1985.394 1106.954l-42.656 49.6h9.92l42.656-49.6h-9.92M1837.214 1106.954l-42.656 49.6h9.92l42.656-49.6h-9.92M1759.848 1086.323c0 4.263 3.07 9.02 11.114 9.02 10.307 0 21.126-8.43 21.126-17.157 0-5.86-4.96-9.13-11.114-9.13-9.625 0-21.126 8.138-21.126 17.267M1715.218 1073.924c0 4.262 3.07 9.02 11.114 9.02 10.307 0 21.126-8.43 21.126-17.158 0-5.86-4.96-9.13-11.114-9.13-9.625 0-21.126 8.138-21.126 17.268M1670.588 1086.323c0 4.263 3.07 9.02 11.114 9.02 10.307 0 21.126-8.43 21.126-17.157 0-5.86-4.96-9.13-11.114-9.13-9.625 0-21.126 8.138-21.126 17.267M1844.774 1888.154l-42.656 49.6h9.92l42.656-49.6h-9.92M1625.948 1073.924c0 4.262 3.07 9.02 11.114 9.02 10.307 0 21.126-8.43 21.126-17.158 0-5.86-4.96-9.13-11.114-9.13-9.625 0-21.126 8.138-21.126 17.268M1475.43 1068.67c-13.685 0-18.552 6.943-18.552 13.39 0 6.45 4.867 13.393 18.553 13.393 13.688 0 18.447-6.944 18.447-13.392 0-6.447-4.76-13.39-18.446-13.39m.792 23.605c-2.775 0-4.665-.79-5.952-3.27-1.286-2.48-3.07-8.928-3.178-11.517-.2-2.68.79-4.262 3.178-5.053 1.194-.403 2.775-.604 4.37-.604 2.667 0 4.465.606 5.844 3.287 1.396 2.573 3.287 9.02 3.287 11.5 0 4.868-3.58 5.658-7.548 5.658"/><path class="Note" d="M1440.91 1081.07c-13.685 0-18.552 6.943-18.552 13.39 0 6.45 4.867 13.393 18.553 13.393 13.688 0 18.447-6.944 18.447-13.392 0-6.447-4.76-13.39-18.446-13.39m.792 23.606c-2.775 0-4.665-.79-5.952-3.27-1.286-2.48-3.07-8.93-3.178-11.517-.2-2.683.79-4.264 3.178-5.055 1.194-.403 2.775-.604 4.37-.604 2.667 0 4.465.606 5.845 3.287 1.395 2.573 3.286 9.02 3.286 11.5 0 4.868-3.58 5.658-7.548 5.658"/><path class="Note" d="M1475.43 1093.47c-13.685 0-18.552 6.943-18.552 13.39 0 6.45 4.867 13.393 18.553 13.393 13.688 0 18.447-6.944 18.447-13.392 0-6.447-4.76-13.39-18.446-13.39m.792 23.606c-2.775 0-4.665-.79-5.952-3.27-1.286-2.48-3.07-8.93-3.178-11.517-.2-2.683.79-4.264 3.178-5.054 1.194-.404 2.775-.605 4.37-.605 2.667 0 4.465.606 5.844 3.287 1.396 2.573 3.287 9.02 3.287 11.5 0 4.868-3.58 5.66-7.548 5.66M1338.544 1106.954l-42.656 49.6h9.92l42.656-49.6h-9.92M1264.454 1106.954l-42.656 49.6h9.92l42.656-49.6h-9.92M1270.494 586.157l-42.656 49.6h9.92l42.656-49.6h-9.92M1112.998 1073.924c0 4.262 3.07 9.02 11.114 9.02 10.307 0 21.126-8.43 21.126-17.158 0-5.86-4.96-9.13-11.114-9.13-9.625 0-21.126 8.138-21.126 17.268M1063.908 1061.524c0 4.262 3.07 9.02 11.114 9.02 10.307 0 21.126-8.432 21.126-17.158 0-5.86-4.96-9.13-11.114-9.13-9.625 0-21.126 8.138-21.126 17.267M1014.808 1073.924c0 4.262 3.07 9.02 11.114 9.02 10.307 0 21.126-8.43 21.126-17.158 0-5.86-4.96-9.13-11.114-9.13-9.625 0-21.126 8.138-21.126 17.268M1918.294 1888.154l-42.656 49.6h9.92l42.656-49.6h-9.92M965.708 1061.524c0 4.262 3.07 9.02 11.113 9.02 10.31 0 21.128-8.432 21.128-17.158 0-5.86-4.96-9.13-11.113-9.13-9.626 0-21.127 8.138-21.127 17.267M815.187 1056.27c-13.686 0-18.553 6.943-18.553 13.39 0 6.45 4.867 13.393 18.553 13.393 13.687 0 18.446-6.944 18.446-13.392 0-6.447-4.76-13.39-18.446-13.39m.79 23.606c-2.774 0-4.664-.79-5.95-3.27-1.288-2.48-3.07-8.93-3.178-11.517-.203-2.683.79-4.264 3.176-5.054 1.193-.404 2.775-.605 4.37-.605 2.667 0 4.465.606 5.845 3.287 1.395 2.573 3.287 9.02 3.287 11.5 0 4.868-3.58 5.658-7.55 5.658"/><path class="Note" d="M815.187 1081.07c-13.686 0-18.553 6.943-18.553 13.39 0 6.45 4.867 13.393 18.553 13.393 13.687 0 18.446-6.944 18.446-13.392 0-6.447-4.76-13.39-18.446-13.39m.79 23.606c-2.774 0-4.664-.79-5.95-3.27-1.288-2.48-3.07-8.93-3.178-11.517-.203-2.683.79-4.264 3.176-5.055 1.193-.403 2.775-.604 4.37-.604 2.667 0 4.465.606 5.845 3.287 1.395 2.573 3.287 9.02 3.287 11.5 0 4.868-3.58 5.658-7.55 5.658M815.187 1118.27c-13.686 0-18.553 6.943-18.553 13.39 0 6.45 4.867 13.393 18.553 13.393 13.687 0 18.446-6.944 18.446-13.392 0-6.447-4.76-13.39-18.446-13.39m.79 23.606c-2.774 0-4.664-.79-5.95-3.27-1.288-2.48-3.07-8.93-3.178-11.517-.203-2.683.79-4.264 3.176-5.054 1.193-.404 2.775-.605 4.37-.605 2.667 0 4.465.606 5.845 3.287 1.395 2.573 3.287 9.02 3.287 11.5 0 4.868-3.58 5.658-7.55 5.658M712.818 1106.954l-42.656 49.6h9.92l42.656-49.6h-9.92M638.732 1106.954l-42.656 49.6h9.92l42.656-49.6h-9.92M564.646 1106.954l-42.656 49.6h9.92l42.656-49.6h-9.92M2129.42 572.672c-13.685 0-18.552 6.944-18.552 13.392 0 6.448 4.867 13.392 18.553 13.392 13.688 0 18.447-6.944 18.447-13.392 0-6.448-4.76-13.392-18.446-13.392m.792 23.606c-2.775 0-4.665-.79-5.952-3.27s-3.07-8.928-3.178-11.517c-.2-2.68.79-4.26 3.178-5.052 1.193-.402 2.774-.604 4.37-.604 2.667 0 4.465.604 5.844 3.286 1.395 2.573 3.287 9.02 3.287 11.5 0 4.868-3.58 5.658-7.548 5.658M172.352 820.67c-13.686 0-18.553 6.943-18.553 13.39 0 6.45 4.866 13.393 18.552 13.393 13.687 0 18.446-6.944 18.446-13.392 0-6.447-4.76-13.39-18.446-13.39m.79 23.605c-2.774 0-4.664-.79-5.95-3.27-1.288-2.48-3.07-8.928-3.178-11.517-.202-2.68.79-4.262 3.177-5.053 1.194-.402 2.776-.604 4.372-.604 2.666 0 4.464.605 5.844 3.287 1.394 2.573 3.286 9.02 3.286 11.5 0 4.868-3.58 5.658-7.55 5.658"/><path class="Note" d="M137.834 833.07c-13.686 0-18.553 6.943-18.553 13.39 0 6.45 4.868 13.393 18.554 13.393 13.687 0 18.446-6.944 18.446-13.392 0-6.447-4.76-13.39-18.446-13.39m.79 23.605c-2.774 0-4.664-.79-5.95-3.27-1.288-2.48-3.07-8.928-3.178-11.517-.202-2.68.79-4.262 3.177-5.053 1.193-.402 2.775-.604 4.37-.604 2.667 0 4.465.605 5.845 3.287 1.394 2.573 3.286 9.02 3.286 11.5 0 4.868-3.58 5.658-7.55 5.658"/><path class="Note" d="M172.352 845.47c-13.686 0-18.553 6.943-18.553 13.39 0 6.45 4.866 13.393 18.552 13.393 13.687 0 18.446-6.944 18.446-13.392 0-6.447-4.76-13.39-18.446-13.39m.79 23.605c-2.774 0-4.664-.79-5.95-3.27-1.288-2.48-3.07-8.928-3.178-11.517-.202-2.68.79-4.262 3.177-5.053 1.194-.402 2.776-.604 4.372-.604 2.666 0 4.464.605 5.844 3.287 1.394 2.573 3.286 9.02 3.286 11.5 0 4.868-3.58 5.658-7.55 5.658M1424.19 808.27c-13.685 0-18.552 6.943-18.552 13.39 0 6.45 4.867 13.393 18.553 13.393 13.688 0 18.447-6.944 18.447-13.392 0-6.447-4.76-13.39-18.446-13.39m.792 23.605c-2.775 0-4.665-.79-5.952-3.27-1.286-2.48-3.07-8.928-3.178-11.517-.2-2.68.79-4.262 3.178-5.053 1.194-.402 2.775-.604 4.37-.604 2.667 0 4.465.605 5.844 3.287 1.396 2.573 3.287 9.02 3.287 11.5 0 4.868-3.58 5.658-7.548 5.658M2642.164 586.157l-42.656 49.6h9.92l42.656-49.6h-9.92M2569.754 586.157l-42.656 49.6h9.92l42.656-49.6h-9.92M2497.344 586.157l-42.656 49.6h9.92l42.656-49.6h-9.92M2410.058 590.327c0 4.262 3.07 9.02 11.114 9.02 10.307 0 21.126-8.43 21.126-17.158 0-5.86-4.96-9.13-11.114-9.13-9.625 0-21.126 8.137-21.126 17.267M2365.428 577.927c0 4.262 3.07 9.02 11.114 9.02 10.307 0 21.126-8.43 21.126-17.158 0-5.86-4.96-9.13-11.114-9.13-9.625 0-21.126 8.137-21.126 17.267M2320.798 590.327c0 4.262 3.07 9.02 11.114 9.02 10.307 0 21.126-8.43 21.126-17.158 0-5.86-4.96-9.13-11.114-9.13-9.625 0-21.126 8.137-21.126 17.267M2276.168 577.927c0 4.262 3.07 9.02 11.114 9.02 10.307 0 21.126-8.43 21.126-17.158 0-5.86-4.96-9.13-11.114-9.13-9.625 0-21.126 8.137-21.126 17.267M1479.792 585.072c-13.687 0-18.554 6.944-18.554 13.392 0 6.448 4.867 13.392 18.553 13.392 13.688 0 18.447-6.944 18.447-13.392 0-6.448-4.76-13.392-18.446-13.392m.792 23.606c-2.775 0-4.665-.79-5.952-3.27-1.286-2.48-3.07-8.928-3.178-11.517-.2-2.68.79-4.26 3.178-5.052 1.194-.402 2.775-.604 4.37-.604 2.667 0 4.465.604 5.845 3.286 1.395 2.573 3.286 9.02 3.286 11.5 0 4.868-3.58 5.658-7.548 5.658M318.308 825.924c0 4.262 3.07 9.02 11.113 9.02 10.31 0 21.128-8.43 21.128-17.158 0-5.86-4.96-9.13-11.113-9.13-9.626 0-21.127 8.138-21.127 17.268M1479.792 510.672c-13.687 0-18.554 6.944-18.554 13.392 0 6.448 4.867 13.392 18.553 13.392 13.688 0 18.447-6.944 18.447-13.392 0-6.448-4.76-13.392-18.446-13.392m.792 23.606c-2.775 0-4.665-.79-5.952-3.27-1.286-2.48-3.07-8.928-3.178-11.517-.2-2.68.79-4.26 3.178-5.052 1.194-.402 2.775-.604 4.37-.604 2.667 0 4.465.604 5.845 3.286 1.395 2.573 3.286 9.02 3.286 11.5 0 4.868-3.58 5.658-7.548 5.658M2094.9 585.072c-13.685 0-18.552 6.944-18.552 13.392 0 6.448 4.867 13.392 18.553 13.392 13.688 0 18.447-6.944 18.447-13.392 0-6.448-4.76-13.392-18.446-13.392m.792 23.606c-2.775 0-4.665-.79-5.952-3.27-1.286-2.48-3.07-8.928-3.178-11.517-.2-2.68.79-4.26 3.178-5.052 1.194-.402 2.775-.604 4.37-.604 2.667 0 4.465.604 5.844 3.286 1.395 2.573 3.287 9.02 3.287 11.5 0 4.868-3.58 5.658-7.548 5.658M1626.538 590.327c0 4.262 3.07 9.02 11.114 9.02 10.307 0 21.126-8.43 21.126-17.158 0-5.86-4.96-9.13-11.114-9.13-9.625 0-21.126 8.137-21.126 17.267"/><path class="Note" d="M2129.42 597.472c-13.685 0-18.552 6.944-18.552 13.392 0 6.448 4.867 13.392 18.553 13.392 13.688 0 18.447-6.944 18.447-13.392 0-6.448-4.76-13.392-18.446-13.392m.792 23.606c-2.775 0-4.665-.79-5.952-3.27s-3.07-8.928-3.178-11.517c-.2-2.68.79-4.26 3.178-5.052 1.193-.402 2.774-.604 4.37-.604 2.667 0 4.465.604 5.844 3.286 1.395 2.573 3.287 9.02 3.287 11.5 0 4.868-3.58 5.658-7.548 5.658M1992.534 586.157l-42.656 49.6h9.92l42.656-49.6h-9.92M1920.124 586.157l-42.656 49.6h9.92l42.656-49.6h-9.92M1847.724 586.157l-42.656 49.6h9.92l42.656-49.6h-9.92M1760.428 602.727c0 4.262 3.07 9.02 11.114 9.02 10.307 0 21.126-8.43 21.126-17.158 0-5.86-4.96-9.13-11.113-9.13-9.626 0-21.127 8.137-21.127 17.267M1715.798 590.327c0 4.262 3.07 9.02 11.114 9.02 10.307 0 21.126-8.43 21.126-17.158 0-5.86-4.96-9.13-11.114-9.13-9.625 0-21.126 8.137-21.126 17.267M1671.168 602.727c0 4.262 3.07 9.02 11.114 9.02 10.307 0 21.126-8.43 21.126-17.158 0-5.86-4.96-9.13-11.114-9.13-9.625 0-21.126 8.137-21.126 17.267M2243.428 2016.333c0 4.263 3.07 9.02 11.114 9.02 10.307 0 21.126-8.43 21.126-17.157 0-5.86-4.96-9.13-11.114-9.13-9.625 0-21.126 8.138-21.126 17.267M820.492 808.27c-13.686 0-18.553 6.943-18.553 13.39 0 6.45 4.866 13.393 18.552 13.393 13.687 0 18.446-6.944 18.446-13.392 0-6.447-4.76-13.39-18.446-13.39m.79 23.605c-2.774 0-4.664-.79-5.95-3.27-1.288-2.48-3.07-8.928-3.178-11.517-.202-2.68.79-4.262 3.177-5.053 1.194-.402 2.776-.604 4.372-.604 2.666 0 4.464.605 5.844 3.287 1.394 2.573 3.286 9.02 3.286 11.5 0 4.868-3.58 5.658-7.55 5.658M1458.71 820.67c-13.685 0-18.552 6.943-18.552 13.39 0 6.45 4.867 13.393 18.553 13.393 13.688 0 18.447-6.944 18.447-13.392 0-6.447-4.76-13.39-18.446-13.39m.792 23.605c-2.775 0-4.665-.79-5.952-3.27-1.286-2.48-3.07-8.928-3.178-11.517-.2-2.68.79-4.262 3.178-5.053 1.194-.402 2.775-.604 4.37-.604 2.667 0 4.465.605 5.844 3.287 1.396 2.573 3.287 9.02 3.287 11.5 0 4.868-3.58 5.658-7.548 5.658M1321.824 846.554l-42.656 49.6h9.92l42.656-49.6h-9.92M1249.764 846.554l-42.656 49.6h9.92l42.656-49.6h-9.92M1177.714 846.554l-42.656 49.6h9.92l42.656-49.6h-9.92M1198.094 586.157l-42.656 49.6h9.92l42.656-49.6h-9.92M1100.348 825.924c0 4.262 3.07 9.02 11.114 9.02 10.307 0 21.126-8.43 21.126-17.158 0-5.86-4.96-9.13-11.114-9.13-9.625 0-21.126 8.138-21.126 17.268M1055.708 813.524c0 4.262 3.07 9.02 11.114 9.02 10.307 0 21.126-8.43 21.126-17.158 0-5.86-4.96-9.13-11.114-9.13-9.625 0-21.126 8.138-21.126 17.268M1011.078 825.924c0 4.262 3.07 9.02 11.114 9.02 10.307 0 21.126-8.43 21.126-17.158 0-5.86-4.96-9.13-11.114-9.13-9.625 0-21.126 8.138-21.126 17.268M2094.182 1911.87c-13.687 0-18.554 6.943-18.554 13.39 0 6.45 4.867 13.393 18.553 13.393 13.688 0 18.447-6.944 18.447-13.392 0-6.447-4.76-13.39-18.445-13.39m.79 23.606c-2.775 0-4.665-.79-5.952-3.27-1.286-2.48-3.07-8.93-3.178-11.517-.2-2.683.79-4.264 3.178-5.055 1.194-.403 2.775-.604 4.37-.604 2.667 0 4.465.606 5.844 3.287 1.396 2.573 3.287 9.02 3.287 11.5 0 4.868-3.58 5.658-7.548 5.658M1342.904 586.157l-42.656 49.6h9.92l42.656-49.6h-9.92M966.448 813.524c0 4.262 3.07 9.02 11.113 9.02 10.31 0 21.128-8.43 21.128-17.158 0-5.86-4.96-9.13-11.113-9.13-9.626 0-21.127 8.138-21.127 17.268M2094.182 1874.67c-13.687 0-18.554 6.943-18.554 13.39 0 6.45 4.867 13.393 18.553 13.393 13.688 0 18.447-6.944 18.447-13.392 0-6.447-4.76-13.39-18.445-13.39m.79 23.605c-2.775 0-4.665-.79-5.952-3.27-1.286-2.48-3.07-8.928-3.178-11.517-.2-2.68.79-4.262 3.178-5.053 1.194-.403 2.775-.604 4.37-.604 2.667 0 4.465.606 5.844 3.287 1.396 2.573 3.287 9.02 3.287 11.5 0 4.868-3.58 5.658-7.548 5.658"/><path class="Note" d="M785.974 820.67c-13.686 0-18.553 6.943-18.553 13.39 0 6.45 4.868 13.393 18.554 13.393 13.687 0 18.446-6.944 18.446-13.392 0-6.447-4.76-13.39-18.446-13.39m.79 23.605c-2.774 0-4.664-.79-5.95-3.27-1.288-2.48-3.07-8.928-3.178-11.517-.202-2.68.79-4.262 3.177-5.053 1.193-.402 2.775-.604 4.37-.604 2.667 0 4.465.605 5.845 3.287 1.394 2.573 3.286 9.02 3.286 11.5 0 4.868-3.58 5.658-7.55 5.658"/><path class="Note" d="M820.492 833.07c-13.686 0-18.553 6.943-18.553 13.39 0 6.45 4.866 13.393 18.552 13.393 13.687 0 18.446-6.944 18.446-13.392 0-6.447-4.76-13.39-18.446-13.39m.79 23.605c-2.774 0-4.664-.79-5.95-3.27-1.288-2.48-3.07-8.928-3.178-11.517-.202-2.68.79-4.262 3.177-5.053 1.194-.402 2.776-.604 4.372-.604 2.666 0 4.464.605 5.844 3.287 1.394 2.573 3.286 9.02 3.286 11.5 0 4.868-3.58 5.658-7.55 5.658M683.604 846.554l-42.656 49.6h9.92l42.656-49.6h-9.92M611.55 846.554l-42.657 49.6h9.92l42.656-49.6h-9.92M539.493 846.554l-42.656 49.6h9.92l42.656-49.6h-9.92M452.205 838.324c0 4.262 3.07 9.02 11.113 9.02 10.308 0 21.127-8.43 21.127-17.158 0-5.86-4.96-9.13-11.113-9.13-9.626 0-21.127 8.138-21.127 17.268M407.572 825.924c0 4.262 3.07 9.02 11.113 9.02 10.308 0 21.127-8.43 21.127-17.158 0-5.86-4.96-9.13-11.113-9.13-9.627 0-21.128 8.138-21.128 17.268M1445.272 597.472c-13.687 0-18.554 6.944-18.554 13.392 0 6.448 4.867 13.392 18.553 13.392 13.688 0 18.447-6.944 18.447-13.392 0-6.448-4.76-13.392-18.446-13.392m.792 23.606c-2.774 0-4.665-.79-5.952-3.27-1.286-2.48-3.07-8.928-3.177-11.517-.202-2.68.79-4.26 3.177-5.052 1.194-.402 2.775-.604 4.37-.604 2.667 0 4.465.604 5.845 3.286 1.395 2.573 3.286 9.02 3.286 11.5 0 4.868-3.58 5.658-7.548 5.658M2094.182 1837.47c-13.687 0-18.554 6.943-18.554 13.39 0 6.45 4.867 13.393 18.553 13.393 13.688 0 18.447-6.944 18.447-13.392 0-6.447-4.76-13.39-18.445-13.39m.79 23.606c-2.775 0-4.665-.79-5.952-3.27-1.286-2.48-3.07-8.93-3.178-11.517-.2-2.683.79-4.264 3.178-5.054 1.194-.404 2.775-.605 4.37-.605 2.667 0 4.465.606 5.844 3.287 1.396 2.573 3.287 9.02 3.287 11.5 0 4.868-3.58 5.66-7.548 5.66M362.94 838.324c0 4.262 3.07 9.02 11.113 9.02 10.308 0 21.127-8.43 21.127-17.158 0-5.86-4.96-9.13-11.113-9.13-9.626 0-21.127 8.138-21.127 17.268"/><path class="Clef" d="M30.8 947.04c0 6.557 4.96 15.19 18.35 15.19 4.666 0 8.743-1.193 12.308-3.378 5.363-3.767 6.742-10.323 6.742-16.57 0-3.86-.59-8.323-1.58-13.98-.295-1.985-.9-4.96-1.49-8.836 9.72-3.177 16.958-13.3 16.958-23.513 0-14.974-10.617-25.095-25.094-25.095-.992-5.952-1.984-11.81-2.775-17.36 10.415-11.02 17.654-23.42 17.654-39.184 0-9.037-2.775-16.368-4.37-19.948-2.373-5.053-5.256-8.525-7.038-8.525-.698 0-3.767 1.194-7.037 5.054-6.356 7.548-8.14 20.242-8.14 28.566 0 5.363.497 10.23 2.187 21.343-.11.094-5.27 5.348-7.348 7.037-9.037 8.34-21.53 20.43-21.53 40.285 0 18.538 16.167 33.124 34.627 33.124 2.868 0 5.55-.296 7.828-.7 1.89 9.534 3.084 16.478 3.084 21.732 0 10.323-5.364 15.78-15.377 15.78-2.387 0-4.464-.497-4.665-.497-.093-.108-.295-.2-.295-.294 0-.2.202-.31.496-.31 4.665-.79 9.315-4.758 9.315-11.097 0-5.363-4.06-11.02-11.502-11.02-6.944 0-11.314 5.657-11.314 12.198M51.537 814.61c.9-3.968 5.456-14.384 10.617-14.384 1.488 0 3.86 4.76 3.86 11.703 0 10.323-7.626 18.057-14.477 24.8-.59-3.968-1.085-7.828-1.085-11.997 0-3.674.294-7.053 1.085-10.122m8.726 101.975c-1.984.403-3.86.605-5.75.605-14.183 0-26.288-9.92-26.288-24.91 0-12.09 8.525-22.908 17.267-30.457 1.674-1.487 3.27-2.866 4.758-4.354.885 5.347 1.582 10.013 2.28 14.09-9.037 2.68-15.175 12.198-15.175 21.53 0 6.943 5.456 16.46 13.392 16.46.79 0 1.69-.403 1.69-1.287 0-.9-.992-1.395-2.186-2.186-3.874-2.387-6.06-4.96-6.06-9.827 0-6.045 4.573-10.912 10.324-12.292l5.75 32.628m14.09-18.352c0 7.054-2.883 14.292-9.92 17.175-2.077-11.904-4.76-27.683-5.456-32.054 8.928 0 15.376 6.06 15.376 14.88M30.8 1728.24c0 6.557 4.96 15.19 18.35 15.19 4.666 0 8.743-1.193 12.308-3.378 5.363-3.767 6.742-10.323 6.742-16.57 0-3.86-.59-8.323-1.58-13.98-.295-1.985-.9-4.96-1.49-8.836 9.72-3.178 16.958-13.3 16.958-23.514 0-14.973-10.617-25.094-25.094-25.094-.992-5.952-1.984-11.81-2.775-17.36 10.415-11.02 17.654-23.42 17.654-39.184 0-9.037-2.775-16.368-4.37-19.948-2.373-5.053-5.256-8.525-7.038-8.525-.698 0-3.767 1.194-7.037 5.054-6.356 7.548-8.14 20.242-8.14 28.566 0 5.363.497 10.23 2.187 21.343-.11.093-5.27 5.348-7.348 7.038-9.037 8.34-21.53 20.43-21.53 40.285 0 18.538 16.167 33.124 34.627 33.124 2.868 0 5.55-.296 7.828-.7 1.89 9.533 3.084 16.477 3.084 21.732 0 10.323-5.364 15.78-15.377 15.78-2.387 0-4.464-.497-4.665-.497-.093-.108-.295-.202-.295-.294 0-.2.202-.31.496-.31 4.665-.79 9.315-4.758 9.315-11.097 0-5.364-4.06-11.02-11.502-11.02-6.944 0-11.314 5.657-11.314 12.198m20.738-132.432c.9-3.968 5.456-14.384 10.617-14.384 1.488 0 3.86 4.76 3.86 11.703 0 10.323-7.626 18.058-14.477 24.8-.59-3.968-1.085-7.828-1.085-11.997 0-3.674.294-7.053 1.085-10.122m8.726 101.975c-1.984.403-3.86.604-5.75.604-14.183 0-26.288-9.92-26.288-24.908 0-12.09 8.525-22.91 17.267-30.46 1.674-1.487 3.27-2.866 4.758-4.354.885 5.347 1.582 10.013 2.28 14.09-9.037 2.68-15.175 12.198-15.175 21.53 0 6.943 5.456 16.46 13.392 16.46.79 0 1.69-.403 1.69-1.286 0-.9-.992-1.395-2.186-2.186-3.874-2.387-6.06-4.96-6.06-9.827 0-6.045 4.573-10.912 10.324-12.29l5.75 32.626m14.09-18.352c0 7.053-2.883 14.292-9.92 17.175-2.077-11.904-4.76-27.683-5.456-32.054 8.928 0 15.376 6.062 15.376 14.88M30.8 686.644c0 6.556 4.96 15.19 18.35 15.19 4.666 0 8.743-1.194 12.308-3.38 5.363-3.766 6.742-10.322 6.742-16.57 0-3.858-.59-8.322-1.58-13.98-.295-1.984-.9-4.96-1.49-8.835 9.72-3.178 16.958-13.3 16.958-23.514 0-14.974-10.617-25.095-25.094-25.095-.992-5.95-1.984-11.81-2.775-17.36 10.415-11.02 17.654-23.42 17.654-39.183 0-9.037-2.775-16.368-4.37-19.948-2.373-5.054-5.256-8.526-7.038-8.526-.698 0-3.767 1.193-7.037 5.053-6.356 7.548-8.14 20.242-8.14 28.566 0 5.363.497 10.23 2.187 21.343-.11.093-5.27 5.348-7.348 7.037-9.037 8.34-21.53 20.43-21.53 40.285 0 18.538 16.167 33.124 34.627 33.124 2.868 0 5.55-.295 7.828-.698 1.89 9.533 3.084 16.477 3.084 21.73 0 10.324-5.364 15.78-15.377 15.78-2.387 0-4.464-.496-4.665-.496-.093-.108-.295-.2-.295-.294 0-.202.202-.31.496-.31 4.665-.79 9.315-4.76 9.315-11.098 0-5.363-4.06-11.02-11.502-11.02-6.944 0-11.314 5.657-11.314 12.198M51.537 554.21c.9-3.967 5.456-14.383 10.617-14.383 1.488 0 3.86 4.76 3.86 11.703 0 10.323-7.626 18.057-14.477 24.8-.59-3.968-1.085-7.828-1.085-11.997 0-3.674.294-7.053 1.085-10.122m8.726 101.976c-1.984.403-3.86.605-5.75.605-14.183 0-26.288-9.92-26.288-24.908 0-12.09 8.525-22.91 17.267-30.458 1.674-1.488 3.27-2.867 4.758-4.355.885 5.346 1.582 10.012 2.28 14.088-9.037 2.682-15.175 12.2-15.175 21.53 0 6.944 5.456 16.46 13.392 16.46.79 0 1.69-.402 1.69-1.286 0-.898-.992-1.394-2.186-2.185-3.874-2.387-6.06-4.96-6.06-9.827 0-6.045 4.573-10.912 10.324-12.292l5.75 32.628m14.09-18.352c0 7.053-2.883 14.29-9.92 17.174-2.077-11.904-4.76-27.683-5.456-32.054 8.928 0 15.376 6.06 15.376 14.88M30.8 1467.84c0 6.557 4.96 15.19 18.35 15.19 4.666 0 8.743-1.193 12.308-3.378 5.363-3.767 6.742-10.323 6.742-16.57 0-3.86-.59-8.323-1.58-13.98-.295-1.985-.9-4.96-1.49-8.836 9.72-3.178 16.958-13.3 16.958-23.514 0-14.973-10.617-25.094-25.094-25.094-.992-5.952-1.984-11.81-2.775-17.36 10.415-11.02 17.654-23.42 17.654-39.184 0-9.037-2.775-16.368-4.37-19.948-2.373-5.053-5.256-8.525-7.038-8.525-.698 0-3.767 1.194-7.037 5.054-6.356 7.548-8.14 20.242-8.14 28.566 0 5.363.497 10.23 2.187 21.343-.11.093-5.27 5.348-7.348 7.037-9.037 8.34-21.53 20.43-21.53 40.285 0 18.538 16.167 33.124 34.627 33.124 2.868 0 5.55-.296 7.828-.7 1.89 9.533 3.084 16.477 3.084 21.732 0 10.323-5.364 15.78-15.377 15.78-2.387 0-4.464-.497-4.665-.497-.093-.108-.295-.202-.295-.294 0-.2.202-.31.496-.31 4.665-.79 9.315-4.758 9.315-11.097 0-5.364-4.06-11.02-11.502-11.02-6.944 0-11.314 5.656-11.314 12.198m20.738-132.432c.9-3.968 5.456-14.384 10.617-14.384 1.488 0 3.86 4.76 3.86 11.703 0 10.323-7.626 18.057-14.477 24.8-.59-3.968-1.085-7.828-1.085-11.997 0-3.674.294-7.053 1.085-10.122m8.726 101.975c-1.984.403-3.86.604-5.75.604-14.183 0-26.288-9.92-26.288-24.908 0-12.09 8.525-22.91 17.267-30.46 1.674-1.487 3.27-2.866 4.758-4.354.885 5.347 1.582 10.013 2.28 14.09-9.037 2.68-15.175 12.198-15.175 21.53 0 6.943 5.456 16.46 13.392 16.46.79 0 1.69-.403 1.69-1.286 0-.9-.992-1.395-2.186-2.186-3.874-2.387-6.06-4.96-6.06-9.827 0-6.045 4.573-10.912 10.324-12.291l5.75 32.627m14.09-18.352c0 7.053-2.883 14.292-9.92 17.175-2.077-11.904-4.76-27.683-5.456-32.054 8.928 0 15.376 6.06 15.376 14.88M30.8 1207.44c0 6.557 4.96 15.19 18.35 15.19 4.666 0 8.743-1.193 12.308-3.38 5.363-3.765 6.742-10.32 6.742-16.568 0-3.86-.59-8.323-1.58-13.98-.295-1.985-.9-4.96-1.49-8.836 9.72-3.178 16.958-13.3 16.958-23.514 0-14.973-10.617-25.094-25.094-25.094-.992-5.952-1.984-11.81-2.775-17.36 10.415-11.02 17.654-23.42 17.654-39.184 0-9.037-2.775-16.368-4.37-19.948-2.373-5.054-5.256-8.526-7.038-8.526-.698 0-3.767 1.194-7.037 5.054-6.356 7.548-8.14 20.242-8.14 28.566 0 5.363.497 10.23 2.187 21.343-.11.093-5.27 5.348-7.348 7.037-9.037 8.34-21.53 20.43-21.53 40.285 0 18.538 16.167 33.124 34.627 33.124 2.868 0 5.55-.296 7.828-.7 1.89 9.533 3.084 16.477 3.084 21.732 0 10.323-5.364 15.78-15.377 15.78-2.387 0-4.464-.497-4.665-.497-.093-.108-.295-.202-.295-.294 0-.2.202-.31.496-.31 4.665-.79 9.315-4.758 9.315-11.097 0-5.363-4.06-11.02-11.502-11.02-6.944 0-11.314 5.657-11.314 12.198m20.738-132.432c.9-3.968 5.456-14.384 10.617-14.384 1.488 0 3.86 4.76 3.86 11.703 0 10.323-7.626 18.058-14.477 24.8-.59-3.968-1.085-7.828-1.085-11.997 0-3.674.294-7.053 1.085-10.122m8.726 101.975c-1.984.403-3.86.604-5.75.604-14.183 0-26.288-9.92-26.288-24.908 0-12.09 8.525-22.91 17.267-30.46 1.674-1.487 3.27-2.866 4.758-4.354.885 5.347 1.582 10.013 2.28 14.09-9.037 2.68-15.175 12.198-15.175 21.53 0 6.943 5.456 16.46 13.392 16.46.79 0 1.69-.403 1.69-1.286 0-.9-.992-1.395-2.186-2.186-3.874-2.387-6.06-4.96-6.06-9.827 0-6.045 4.573-10.912 10.324-12.29l5.75 32.626m14.09-18.352c0 7.053-2.883 14.292-9.92 17.175-2.077-11.904-4.76-27.683-5.456-32.054 8.928 0 15.376 6.062 15.376 14.88M30.8 426.244c0 6.556 4.96 15.19 18.35 15.19 4.666 0 8.743-1.194 12.308-3.38 5.363-3.766 6.742-10.322 6.742-16.57 0-3.858-.59-8.322-1.58-13.98-.295-1.984-.9-4.96-1.49-8.835 9.72-3.178 16.958-13.3 16.958-23.515 0-14.973-10.617-25.094-25.094-25.094-.992-5.95-1.984-11.81-2.775-17.36 10.415-11.02 17.654-23.42 17.654-39.183 0-9.037-2.775-16.368-4.37-19.948-2.373-5.054-5.256-8.526-7.038-8.526-.698 0-3.767 1.193-7.037 5.053-6.356 7.548-8.14 20.242-8.14 28.566 0 5.363.497 10.23 2.187 21.343-.11.094-5.27 5.348-7.348 7.037-9.037 8.34-21.53 20.43-21.53 40.285 0 18.538 16.167 33.124 34.627 33.124 2.868 0 5.55-.295 7.828-.698 1.89 9.533 3.084 16.477 3.084 21.73 0 10.324-5.364 15.78-15.377 15.78-2.387 0-4.464-.496-4.665-.496-.093-.108-.295-.2-.295-.294 0-.202.202-.31.496-.31 4.665-.79 9.315-4.76 9.315-11.098 0-5.363-4.06-11.02-11.502-11.02-6.944 0-11.314 5.657-11.314 12.198M51.537 293.81c.9-3.967 5.456-14.383 10.617-14.383 1.488 0 3.86 4.76 3.86 11.703 0 10.323-7.626 18.057-14.477 24.8-.59-3.968-1.085-7.828-1.085-11.997 0-3.674.294-7.053 1.085-10.122m8.726 101.976c-1.984.403-3.86.605-5.75.605-14.183 0-26.288-9.92-26.288-24.908 0-12.09 8.525-22.91 17.267-30.458 1.674-1.488 3.27-2.867 4.758-4.355.885 5.346 1.582 10.012 2.28 14.088-9.037 2.682-15.175 12.2-15.175 21.53 0 6.944 5.456 16.46 13.392 16.46.79 0 1.69-.402 1.69-1.286 0-.898-.992-1.394-2.186-2.185-3.874-2.387-6.06-4.96-6.06-9.827 0-6.045 4.573-10.912 10.324-12.292l5.75 32.628m14.09-18.352c0 7.053-2.883 14.29-9.92 17.174-2.077-11.904-4.76-27.683-5.456-32.054 8.928 0 15.376 6.06 15.376 14.88M30.8 1988.64c0 6.557 4.96 15.19 18.35 15.19 4.666 0 8.743-1.193 12.308-3.378 5.363-3.767 6.742-10.323 6.742-16.57 0-3.86-.59-8.323-1.58-13.98-.295-1.985-.9-4.96-1.49-8.836 9.72-3.178 16.958-13.3 16.958-23.514 0-14.973-10.617-25.094-25.094-25.094-.992-5.952-1.984-11.81-2.775-17.36 10.415-11.02 17.654-23.42 17.654-39.184 0-9.037-2.775-16.368-4.37-19.948-2.373-5.053-5.256-8.525-7.038-8.525-.698 0-3.767 1.194-7.037 5.054-6.356 7.548-8.14 20.242-8.14 28.566 0 5.363.497 10.23 2.187 21.343-.11.093-5.27 5.348-7.348 7.037-9.037 8.34-21.53 20.43-21.53 40.285 0 18.538 16.167 33.124 34.627 33.124 2.868 0 5.55-.296 7.828-.7 1.89 9.533 3.084 16.477 3.084 21.732 0 10.323-5.364 15.78-15.377 15.78-2.387 0-4.464-.497-4.665-.497-.093-.108-.295-.202-.295-.294 0-.2.202-.31.496-.31 4.665-.79 9.315-4.758 9.315-11.097 0-5.364-4.06-11.02-11.502-11.02-6.944 0-11.314 5.656-11.314 12.198m20.738-132.432c.9-3.968 5.456-14.384 10.617-14.384 1.488 0 3.86 4.76 3.86 11.703 0 10.323-7.626 18.057-14.477 24.8-.59-3.968-1.085-7.828-1.085-11.997 0-3.674.294-7.053 1.085-10.122m8.726 101.975c-1.984.403-3.86.604-5.75.604-14.183 0-26.288-9.92-26.288-24.908 0-12.09 8.525-22.91 17.267-30.46 1.674-1.487 3.27-2.866 4.758-4.354.885 5.347 1.582 10.013 2.28 14.09-9.037 2.68-15.175 12.198-15.175 21.53 0 6.943 5.456 16.46 13.392 16.46.79 0 1.69-.403 1.69-1.286 0-.9-.992-1.395-2.186-2.186-3.874-2.387-6.06-4.96-6.06-9.827 0-6.045 4.573-10.912 10.324-12.291l5.75 32.627m14.09-18.352c0 7.053-2.883 14.292-9.92 17.175-2.077-11.904-4.76-27.683-5.456-32.054 8.928 0 15.376 6.06 15.376 14.88M30.8 165.844c0 6.556 4.96 15.19 18.35 15.19 4.666 0 8.743-1.194 12.308-3.38 5.363-3.766 6.742-10.322 6.742-16.57 0-3.858-.59-8.322-1.58-13.98-.295-1.984-.9-4.96-1.49-8.835 9.72-3.178 16.958-13.3 16.958-23.514 0-14.974-10.617-25.095-25.094-25.095-.992-5.95-1.984-11.81-2.775-17.36 10.415-11.02 17.654-23.42 17.654-39.183 0-9.037-2.775-16.368-4.37-19.948-2.373-5.054-5.256-8.526-7.038-8.526-.698 0-3.767 1.193-7.037 5.053-6.356 7.548-8.14 20.242-8.14 28.566 0 5.363.497 10.23 2.187 21.343-.11.093-5.27 5.348-7.348 7.037-9.037 8.34-21.53 20.43-21.53 40.285 0 18.538 16.167 33.124 34.627 33.124 2.868 0 5.55-.295 7.828-.698 1.89 9.533 3.084 16.477 3.084 21.73 0 10.324-5.364 15.78-15.377 15.78-2.387 0-4.464-.496-4.665-.496-.093-.108-.295-.2-.295-.294 0-.202.202-.31.496-.31 4.665-.79 9.315-4.76 9.315-11.098 0-5.363-4.06-11.02-11.502-11.02-6.944 0-11.314 5.657-11.314 12.198M51.537 33.41c.9-3.967 5.456-14.383 10.617-14.383 1.488 0 3.86 4.76 3.86 11.703 0 10.323-7.626 18.057-14.477 24.8-.59-3.968-1.085-7.828-1.085-11.997 0-3.674.294-7.053 1.085-10.122m8.726 101.976c-1.984.403-3.86.604-5.75.604-14.183 0-26.288-9.92-26.288-24.908 0-12.09 8.525-22.91 17.267-30.458 1.674-1.488 3.27-2.867 4.758-4.355.885 5.346 1.582 10.012 2.28 14.088-9.037 2.682-15.175 12.2-15.175 21.53 0 6.944 5.456 16.46 13.392 16.46.79 0 1.69-.402 1.69-1.286 0-.898-.992-1.394-2.186-2.185-3.874-2.387-6.06-4.96-6.06-9.827 0-6.045 4.573-10.912 10.324-12.292l5.75 32.628m14.09-18.352c0 7.053-2.883 14.29-9.92 17.174-2.077-11.904-4.76-27.683-5.456-32.054 8.928 0 15.376 6.06 15.376 14.88"/><path class="Beam" fill-rule="evenodd" d="M966.448 889.954h136.38v12.4h-136.38v-12.4M966.448 871.354h136.38v12.4h-136.38v-12.4M972.488 1906.754h166.88v12.4h-166.88v-12.4M972.488 1925.354h166.88v12.4h-166.88v-12.4M318.308 908.554h136.377v12.4H318.308v-12.4M318.308 889.954h136.377v12.4H318.308v-12.4M2276.168 654.357h136.37v12.4h-136.37v-12.4M2276.168 635.757h136.37v12.4h-136.37v-12.4M1626.538 672.957h136.37v12.4h-136.37v-12.4M1626.538 654.357h136.37v12.4h-136.37v-12.4M2273.188 1912.954h166.88v12.4h-166.88v-12.4M2273.188 1931.554h166.88v12.4h-166.88v-12.4M976.908 679.157h136.38v12.4h-136.38v-12.4M976.908 660.557h136.38v12.4h-136.38v-12.4M357.032 530.357H493.41v12.4H357.03v-12.4M357.032 548.957H493.41v12.4H357.03v-12.4M2292.768 276.157h136.38v12.4h-136.38v-12.4M2292.768 294.757h136.38v12.4h-136.38v-12.4M1649.728 294.757h136.37v12.4h-136.37v-12.4M1649.728 313.357h136.37v12.4h-136.37v-12.4M1006.678 300.957h136.38v12.4h-136.38v-12.4M1006.678 319.557h136.38v12.4h-136.38v-12.4M363.637 319.557h136.377v12.4H363.637v-12.4M363.637 338.157h136.377v12.4H363.637v-12.4M2290.298 65.357h149.77v12.4h-149.77v-12.4M2290.298 83.957h149.77v12.4h-149.77v-12.4M1639.948 83.957h166.88v12.4h-166.88v-12.4M1639.948 102.557h166.88v12.4h-166.88v-12.4M989.598 90.157h166.88v12.4h-166.88v-12.4M989.598 108.757h166.88v12.4h-166.88v-12.4M339.252 90.157h166.88v12.4h-166.88v-12.4M339.252 108.757h166.88v12.4h-166.88v-12.4M1632.668 1460.354h136.37v12.4h-136.37v-12.4M1632.668 1441.754h136.37v12.4h-136.37v-12.4M1622.838 1912.954h166.88v12.4h-166.88v-12.4M1622.838 1931.554h166.88v12.4h-166.88v-12.4M339.252 1888.154h149.77v12.4H339.25v-12.4M339.252 1906.754h149.77v12.4H339.25v-12.4M2291.308 1621.554h136.38v12.4h-136.38v-12.4M2291.308 1640.154h136.38v12.4h-136.38v-12.4M1645.238 1602.954h136.38v12.4h-136.38v-12.4M1645.238 1621.554h136.38v12.4h-136.38v-12.4M999.168 1596.754h136.38v12.4h-136.38v-12.4M999.168 1615.354h136.38v12.4h-136.38v-12.4M353.098 1578.154h136.377v12.4H353.098v-12.4M353.098 1596.754h136.377v12.4H353.098v-12.4M2296.828 1311.554h136.38v12.4h-136.38v-12.4M2296.828 1330.154h136.38v12.4h-136.38v-12.4M998.248 1454.154h136.38v12.4h-136.38v-12.4M998.248 1435.554h136.38v12.4h-136.38v-12.4M329.316 1435.554h136.377v12.4H329.316v-12.4M329.316 1416.954h136.377v12.4H329.316v-12.4M2272.798 1168.954h136.38v12.4h-136.38v-12.4M2272.798 1150.354h136.38v12.4h-136.38v-12.4M1625.948 1150.354h136.38v12.4h-136.38v-12.4M1625.948 1131.754h136.38v12.4h-136.38v-12.4M965.708 1144.154h149.77v12.4h-149.77v-12.4M965.708 1125.554h149.77v12.4h-149.77v-12.4M322.876 1125.554h166.88v12.4h-166.88v-12.4M322.876 1106.954h166.88v12.4h-166.88v-12.4M2256.278 865.154h166.88v12.4h-166.88v-12.4M2256.278 846.554h166.88v12.4h-166.88v-12.4M1604.668 883.754h149.77v12.4h-149.77v-12.4M1604.668 865.154h149.77v12.4h-149.77v-12.4"/><path class="Fingering" d="M1461.608 259.215l-13.6 18.922v2.234h11.24v2.08c0 2.046 0 2.124-.24 2.484-.32.437-1.09.562-3.36.562h-.45v1.875h11.69v-1.874h-.16c-2.28 0-3.04-.125-3.36-.562-.25-.36-.25-.407-.25-2.485v-2.08h4.85v-2.233h-4.85v-10.922c0-5 0-5.125.21-8h-1.72m-2.36 18.922h-8.8l8.8-12.125v12.125M175.517 259.215l-13.593 18.922v2.234h11.234v2.08c0 2.046 0 2.124-.234 2.484-.33.437-1.094.562-3.36.562h-.453v1.875h11.69v-1.874h-.158c-2.28 0-3.047-.125-3.36-.562-.25-.36-.25-.407-.25-2.485v-2.08h4.845v-2.233h-4.844v-10.922c0-5 0-5.125.203-8h-1.72m-2.358 18.922h-8.797l8.798-12.125v12.125M175.517 780.015l-13.593 18.92v2.24h11.234v2.08c0 2.04 0 2.12-.234 2.48-.33.44-1.094.56-3.36.56h-.453v1.88h11.69v-1.88h-.158c-2.28 0-3.047-.12-3.36-.56-.25-.36-.25-.41-.25-2.48v-2.08h4.845v-2.24h-4.844v-10.92c0-5 0-5.125.203-8h-1.72m-2.358 18.92h-8.797l8.798-12.123v12.122M2279.878 3.786l-13.59 18.922v2.235h11.23v2.078c0 2.048 0 2.126-.23 2.485-.33.438-1.1.563-3.36.563h-.46v1.875h11.69v-1.875h-.15c-2.29 0-3.05-.125-3.36-.563-.25-.36-.25-.406-.25-2.484v-2.077h4.84v-2.235h-4.84V11.786c0-5 0-5.125.2-8h-1.72m-2.36 18.922h-8.8l8.8-12.125v12.125M379.416 779.713c-5.594 0-9.672 6.078-9.672 14.48 0 8.24 3.953 14.27 9.343 14.27 5.61 0 9.532-5.83 9.532-14.16 0-4.23-.892-7.746-2.564-10.512-1.562-2.515-4.125-4.077-6.64-4.077m-.282 1.72c1.313 0 2.594.874 3.563 2.483 1.078 1.875 1.437 4.158 1.437 9.638 0 5.64-.28 8.28-1.078 10.03-.922 1.97-2.36 3.16-3.875 3.16-1.358 0-2.608-.87-3.56-2.47-1.126-1.89-1.44-4.36-1.44-10.92 0-4.69.282-7 1.08-8.766.92-2 2.36-3.156 3.874-3.156M818.53 0l-13.594 18.922v2.234h11.234v2.08c0 2.045 0 2.124-.234 2.483-.328.436-1.094.56-3.36.56h-.453v1.876h11.688V26.28h-.155c-2.282 0-3.047-.124-3.36-.56-.25-.36-.25-.407-.25-2.485v-2.08h4.844v-2.233h-4.845V8c0-5 0-5.125.203-8h-1.718m-2.36 18.922h-8.797l8.797-12.125v12.125M771.263 785.08l-13.593 18.924v2.23h11.234v2.08c0 2.05 0 2.13-.234 2.48-.328.44-1.094.57-3.36.57h-.453v1.87h11.688v-1.87h-.157c-2.28 0-3.046-.13-3.36-.57-.25-.35-.25-.4-.25-2.48v-2.08h4.845v-2.23h-4.844v-10.92c0-5 0-5.13.202-8.004h-1.72m-2.358 18.924h-8.797l8.797-12.13v12.13M163.416 0l-13.594 18.922v2.234h11.234v2.08c0 2.045 0 2.124-.234 2.483-.328.436-1.094.56-3.36.56h-.453v1.876h11.687V26.28h-.156c-2.28 0-3.046-.124-3.36-.56-.25-.36-.25-.407-.25-2.485v-2.08h4.845v-2.233h-4.844V8c0-5 0-5.125.204-8h-1.718m-2.36 18.922h-8.797l8.796-12.125v12.125"/></svg>