<svg width="2693.738" height="2132.808" viewBox="0 0 2693.7381 2132.8082" version="1.2" xmlns="http://www.w3.org/2000/svg"><desc>Generated by MuseScore 4.0.1</desc><path class="StaffLines" fill="none" stroke="#000" stroke-width="2.73" stroke-linejoin="bevel" d="M0 93h2693.738M0 117.8h2693.738M0 142.6h2693.738M0 167.4h2693.738M0 192.2h2693.738M0 403h2693.738M0 427.8h2693.738M0 452.6h2693.738M0 477.4h2693.738M0 502.2h2693.738M0 713h2693.738M0 737.8h2693.738M0 762.6h2693.738M0 787.4h2693.738M0 812.2h2693.738M0 1022.998h2693.738M0 1047.798h2693.738M0 1072.598h2693.738M0 1097.398h2693.738M0 1122.198h2693.738M0 1332.998h2693.738M0 1357.798h2693.738M0 1382.598h2693.738M0 1407.398h2693.738M0 1432.198h2693.738M0 1642.998h2693.738M0 1667.798h2693.738M0 1692.598h2693.738M0 1717.398h2693.738M0 1742.198h2693.738M0 1952.998h2693.738M0 1977.798h2693.738M0 2002.598h2693.738M0 2027.398h2693.738M0 2052.198h2693.738"/><path class="BarLine" fill="none" stroke="#000" stroke-width="4.46" stroke-linejoin="bevel" d="M1406.058 1641.638v101.93M2691.508 1021.638v101.93M1397.278 1331.638v101.93M760.336 711.637v101.928M780.672 1331.638v101.93M2691.508 91.636v101.93M741.79 1021.638v101.93M1404.328 1951.638v101.93M2036.258 1951.638v101.93M756.385 91.636v101.93M1413.448 711.637v101.928M749.08 1951.638v101.93M2057.868 91.636v101.93M2056.938 711.637v101.928M2691.508 711.637v101.928M2038.398 1021.638v101.93M1419.778 91.636v101.93M756.643 1641.638v101.93M2691.508 401.637v101.928M720.487 401.637v101.928M2691.508 1331.638v101.93M1360.628 401.637v101.928M2044.388 1331.638v101.93M2691.508 1641.638v101.93M2055.478 1641.638v101.93M2026.068 401.637v101.928M1385.288 1021.638v101.93M2691.508 1951.638v101.93"/><path class="Accidental" d="M366.308 1454.022c-4.96 0-7.843 3.07-8.34 3.674l.404-31.853c0-.79-.59-1.38-1.395-1.38H355.8c-.807 0-1.396.59-1.396 1.38l.496 59.63c0 .79.59 1.378 1.395 1.378.186 0 .59-.092.79-.185 8.526-4.278 17.454-12.4 17.454-22.63 0-5.146-2.373-10.013-8.232-10.013M357.675 1482l.294-19.344c.2-.9 1.69-3.767 5.657-3.767 3.58 0 3.874 3.363 3.874 5.455 0 8.82-3.27 12.493-9.825 17.655"/><path class="LedgerLine" fill="none" stroke="#000" stroke-width="3.97" stroke-linejoin="bevel" d="M133.514 1308.198h53.366M2394.438 527h48.6M1756.008 1766.998h48.6M2236.768 1456.998h48.6M407.444 837h48.6M1037.848 1146.998h48.6M1001.838 998.198h48.6M2291.098 2101.808h48.6M133.514 837H221.4M952.748 1146.998h48.6M318.18 861.798h48.6M318.18 837h48.6M1657.818 1766.998h48.6M407.444 861.798h48.6M786.624 861.798h53.367M2052.358 378.2h87.88M1596.238 1146.998h48.6M1411.568 1146.998h53.37M1411.568 1171.798h53.37M380.738 1456.998h48.6M2389.288 2101.808h48.6M1639.738 527h48.6M2070.678 1308.198h53.37M1728.998 527h48.6M299.603 1456.998h48.6M2291.098 1928.198h48.6M133.514 1791.798h53.366M299.603 1481.798h48.6M2305.168 551.8h48.6M2305.168 527h48.6M2236.768 1481.798h48.6M133.514 1766.998h53.366M1086.948 998.198h48.6M2394.438 551.8h48.6M133.514 1171.798h53.366M1624.398 837h48.6M2389.288 1928.198h48.6M133.514 1146.998H221.4M1673.498 688.2h48.6M2249.348 1146.998h48.6M1709.508 837h48.6M2249.348 1171.798h48.6M1758.598 688.2h48.6M2346.368 1481.798h48.6M1057.498 1618.198h48.6M2083.228 861.798h53.37M2083.228 837h87.88M959.298 1766.998h48.6M959.298 1791.798h48.6M959.298 1618.198h48.6M2346.368 1456.998h48.6M2312.528 688.2h48.6M2064.678 1146.998h87.89M2393.168 688.2h48.6M1060.558 837h48.6M768.078 1146.998h87.886M768.078 1171.798h53.367M786.624 837h53.367M2291.568 1456.998h48.6M1685.498 1146.998h48.6M443.45 998.198h48.6M971.288 837h48.6M2338.608 1146.998h48.6M2338.608 1171.798h48.6M309.883 1618.198h48.6M408.076 1618.198h48.6M362.812 998.198h48.6M1439.738 861.798h53.36M2291.098 2077.008h48.6M1439.738 837h87.88M1057.498 1766.998h48.6M2401.168 1456.998h48.6M1057.498 1791.798h48.6M2370.608 68.2h48.6M460.28 241.8h48.6M460.28 217h48.6M954.958 378.2h48.6M781.293 378.2h53.367M782.673 68.2h87.885M490.34 1456.998h48.6M1003.918 2077.008h48.6M1589.658 1308.198h48.6M1687.878 217h48.6M1034.408 217h48.6M398.626 378.2h48.6M1736.978 68.2h48.6M1653.168 68.2h48.6M1754.058 1308.198h48.6M806.96 1456.998h53.368M806.96 1481.798h53.368M806.96 1308.198h53.368M319.28 378.2h48.602M1123.668 217h48.6M145.615 378.2h53.367M1102.108 2077.008h48.6M1480.588 68.2h53.36M1644.458 1308.198h48.6M1699.258 1308.198h48.6M371.015 241.8h48.6M2118.678 68.2h53.37M371.015 217h48.6M435.538 1481.798h48.6M1423.568 1481.798h53.37M1654.698 1928.198h48.6M1743.968 1928.198h48.6M1073.478 527h48.6M1423.568 1456.998h53.37M1038.768 378.2h48.6M435.538 1456.998h48.6M989.668 527h48.6M1771.688 217h48.6M119.28 68.2h87.886M2389.288 2077.008h48.6M2291.258 68.2h48.6M1386.918 378.2h87.88"/><path class="Stem" fill="none" stroke="#000" stroke-width="2.48" stroke-linejoin="bevel" d="M998.478 1787.838v-256.44M1056.858 1403.438v-120.04M1718.928 841.168v70.23M2402.588 679.968v219.03M1092.188 2060.638v-169.64M1101.488 1415.838v-132.44M1635.418 1155.438v-219.24M2357.958 828.768v70.23M1662.588 72.367V291.4M2321.948 679.968v219.03M1047.578 1750.638v-219.24M2277.318 828.768v70.23M1697.298 221.167V291.4M1768.028 692.368v219.03M1746.398 72.367V291.4M2281.178 2060.638v-219.24M1043.098 2085.438v-194.44M1781.108 221.167V291.4M2385.548 1477.838v-194.44M2288.528 1167.838v-219.24M499.456 237.833V18.6M1724.678 1155.438v-219.24M1619.488 1957.168v169.44M962.168 1151.168v70.23M1753.388 1932.368v194.24M319.307 1609.968v194.23M1011.268 1002.368v219.03M1680.048 1006.638v-70.44M1047.268 1151.168v70.23M1599.078 1299.968v132.23M1664.128 1932.368v194.24M1096.368 1002.368v219.03M454.823 89.032V18.6M410.19 237.833V18.6M365.56 89.032V18.6M1708.758 1957.168v169.44M2386.578 1713.438v-120.04M1141.288 2085.438v-194.44M1028.948 76.632V6.2M368.403 1634.768v169.43M1073.578 225.433V6.2M452.875 989.968v219.03M417.5 1609.968v194.23M408.242 1138.768v70.23M1118.218 76.632V6.2M372.236 989.968v219.03M1769.308 1006.638v-70.44M327.603 1138.768v70.23M1162.848 225.433V6.2M466.596 1634.768v169.43M2440.348 1453.038v-169.64M1146.128 1403.438v-120.04M1653.878 1312.368v119.83M1746.088 1750.638v-126.24M2388.978 399.033V328.6M2433.608 547.833V328.6M529.515 1465.438v-126.24M1795.188 1763.038v-138.64M322.393 1957.168v119.84M442.762 518.767V589M2428.468 2097.838v-256.44M408.05 369.967V589M2275.948 1477.838v-194.44M357.356 857.838V638.6M363.418 518.767V589M367.025 1944.768v132.24M401.988 709.033V638.6M1696.988 1763.038v-138.64M446.62 857.838V638.6M328.705 369.967V589M1768.178 535.433V316.2M2431.208 1725.838v-132.44M1634.278 386.633V316.2M2341.948 1725.838v-132.44M474.715 1477.838v-138.64M1678.908 535.433V316.2M419.914 1465.438v-126.24M1723.538 386.633V316.2M1082.908 531.167V601.4M1682.918 692.368v219.03M2297.308 1713.438v-120.04M1048.188 382.367V601.4M999.098 531.167V601.4M2299.718 399.033V328.6M338.78 1477.838v-138.64M2344.348 547.833V328.6M964.388 382.367V601.4M2300.688 59.967V279M1144.368 696.633V626.2M2333.158 1019.038v-70.44M2380.028 59.967V279M1145.768 1750.638v-219.24M1099.728 845.438V626.2M2330.278 2097.838v-256.44M2377.788 1167.838v-219.24M1055.098 696.633V626.2M2335.398 208.767V279M2414.738 208.767V279M1012.228 1415.838v-132.44M1010.468 845.438V626.2M456.29 1944.768v132.24M1708.678 1299.968v132.23M993.998 2060.638v-169.64M491.253 709.033V638.6M2379.368 2060.638v-219.24M2330.748 1453.038v-169.64M1647.898 1750.638v-126.24M1096.668 1787.838v-256.44M2422.418 1019.038v-70.44M1763.478 1312.368v119.83M1633.828 841.168v70.23M411.657 1957.168v119.84"/><path class="Note" d="M1707.438 1361.967c0 4.263 3.07 9.02 11.114 9.02 10.307 0 21.126-8.43 21.126-17.157 0-5.86-4.96-9.13-11.114-9.13-9.625 0-21.126 8.138-21.126 17.267M2097.42 1406.313c-13.685 0-18.552 6.944-18.552 13.392 0 6.448 4.867 13.392 18.553 13.392 13.688 0 18.447-6.944 18.447-13.392 0-6.448-4.76-13.392-18.446-13.392m.792 23.606c-2.775 0-4.665-.79-5.952-3.27s-3.07-8.93-3.178-11.518c-.2-2.68.79-4.262 3.178-5.053 1.193-.404 2.774-.605 4.37-.605 2.667 0 4.465.605 5.844 3.286 1.395 2.574 3.287 9.022 3.287 11.502 0 4.867-3.58 5.657-7.548 5.657M2299.758 1386.767c0 4.263 3.07 9.02 11.114 9.02 10.307 0 21.126-8.43 21.126-17.157 0-5.86-4.96-9.13-11.114-9.13-9.625 0-21.126 8.138-21.126 17.267M1707.518 1957.168c0 4.262 3.07 9.02 11.114 9.02 10.307 0 21.126-8.432 21.126-17.158 0-5.86-4.96-9.13-11.114-9.13-9.625 0-21.126 8.138-21.126 17.267M2097.42 1282.313c-13.685 0-18.552 6.944-18.552 13.392 0 6.448 4.867 13.392 18.553 13.392 13.688 0 18.447-6.944 18.447-13.392 0-6.448-4.76-13.392-18.446-13.392m.792 23.606c-2.775 0-4.665-.79-5.952-3.27s-3.07-8.93-3.178-11.518c-.2-2.68.79-4.262 3.178-5.053 1.193-.404 2.774-.605 4.37-.605 2.667 0 4.465.605 5.844 3.286 1.395 2.574 3.287 9.022 3.287 11.502 0 4.867-3.58 5.657-7.548 5.657M2496.644 1357.798l-42.656 49.6h9.92l42.656-49.6h-9.92M1995.044 1357.798l-42.656 49.6h9.92l42.656-49.6h-9.92M2409.358 1386.767c0 4.263 3.07 9.02 11.114 9.02 10.307 0 21.126-8.43 21.126-17.157 0-5.86-4.96-9.13-11.114-9.13-9.625 0-21.126 8.138-21.126 17.267M1762.238 1312.368c0 4.262 3.07 9.02 11.114 9.02 10.307 0 21.126-8.43 21.126-17.158 0-5.86-4.96-9.13-11.114-9.13-9.625 0-21.126 8.138-21.126 17.268M2244.958 1361.967c0 4.263 3.07 9.02 11.114 9.02 10.307 0 21.126-8.43 21.126-17.157 0-5.86-4.96-9.13-11.114-9.13-9.625 0-21.126 8.138-21.126 17.267M2089.28 2013.913c-13.685 0-18.552 6.944-18.552 13.392 0 6.448 4.867 13.392 18.553 13.392 13.688 0 18.447-6.944 18.447-13.392 0-6.448-4.76-13.392-18.445-13.392m.79 23.607c-2.775 0-4.665-.79-5.952-3.27-1.286-2.48-3.07-8.93-3.178-11.517-.2-2.682.79-4.263 3.178-5.053 1.194-.404 2.775-.605 4.37-.605 2.667 0 4.465.605 5.844 3.286 1.396 2.574 3.287 9.022 3.287 11.502 0 4.867-3.58 5.657-7.548 5.657M2354.558 1485.967c0 4.263 3.07 9.02 11.114 9.02 10.307 0 21.126-8.43 21.126-17.157 0-5.86-4.96-9.13-11.114-9.13-9.625 0-21.126 8.138-21.126 17.267M2244.958 1485.967c0 4.263 3.07 9.02 11.114 9.02 10.307 0 21.126-8.43 21.126-17.157 0-5.86-4.96-9.13-11.114-9.13-9.625 0-21.126 8.138-21.126 17.267M2089.28 1976.713c-13.685 0-18.552 6.944-18.552 13.392 0 6.448 4.867 13.392 18.553 13.392 13.688 0 18.447-6.944 18.447-13.392 0-6.448-4.76-13.392-18.445-13.392m.79 23.607c-2.775 0-4.665-.79-5.952-3.27-1.286-2.48-3.07-8.93-3.178-11.517-.2-2.682.79-4.263 3.178-5.053 1.194-.404 2.775-.605 4.37-.605 2.667 0 4.465.605 5.844 3.286 1.396 2.574 3.287 9.022 3.287 11.502 0 4.867-3.58 5.657-7.548 5.657M1597.838 1299.967c0 4.263 3.07 9.02 11.114 9.02 10.307 0 21.126-8.43 21.126-17.157 0-5.86-4.96-9.13-11.114-9.13-9.625 0-21.126 8.138-21.126 17.267M1762.238 1349.568c0 4.262 3.07 9.02 11.114 9.02 10.307 0 21.126-8.43 21.126-17.158 0-5.86-4.96-9.13-11.114-9.13-9.625 0-21.126 8.138-21.126 17.268M2409.358 1461.168c0 4.262 3.07 9.02 11.114 9.02 10.307 0 21.126-8.432 21.126-17.158 0-5.86-4.96-9.13-11.114-9.13-9.625 0-21.126 8.138-21.126 17.267M1450.302 1406.313c-13.687 0-18.554 6.944-18.554 13.392 0 6.448 4.867 13.392 18.553 13.392 13.688 0 18.447-6.944 18.447-13.392 0-6.448-4.76-13.392-18.446-13.392m.792 23.606c-2.775 0-4.665-.79-5.952-3.27-1.286-2.48-3.07-8.93-3.178-11.518-.2-2.68.79-4.262 3.178-5.053 1.194-.404 2.775-.605 4.37-.605 2.667 0 4.465.605 5.845 3.286 1.395 2.574 3.286 9.022 3.286 11.502 0 4.867-3.58 5.657-7.548 5.657M1597.838 1361.967c0 4.263 3.07 9.02 11.114 9.02 10.307 0 21.126-8.43 21.126-17.157 0-5.86-4.96-9.13-11.114-9.13-9.625 0-21.126 8.138-21.126 17.267M1707.438 1299.967c0 4.263 3.07 9.02 11.114 9.02 10.307 0 21.126-8.43 21.126-17.157 0-5.86-4.96-9.13-11.114-9.13-9.625 0-21.126 8.138-21.126 17.267M1849.534 1357.798l-42.656 49.6h9.92l42.656-49.6h-9.92M1652.638 1349.568c0 4.262 3.07 9.02 11.114 9.02 10.307 0 21.126-8.43 21.126-17.158 0-5.86-4.96-9.13-11.114-9.13-9.625 0-21.126 8.138-21.126 17.268M2354.558 1361.967c0 4.263 3.07 9.02 11.114 9.02 10.307 0 21.126-8.43 21.126-17.157 0-5.86-4.96-9.13-11.114-9.13-9.625 0-21.126 8.138-21.126 17.267M1922.294 1357.798l-42.656 49.6h9.92l42.656-49.6h-9.92M1652.638 1312.368c0 4.262 3.07 9.02 11.114 9.02 10.307 0 21.126-8.43 21.126-17.158 0-5.86-4.96-9.13-11.114-9.13-9.625 0-21.126 8.138-21.126 17.268M2299.758 1461.168c0 4.262 3.07 9.02 11.114 9.02 10.307 0 21.126-8.432 21.126-17.158 0-5.86-4.96-9.13-11.114-9.13-9.625 0-21.126 8.138-21.126 17.267M1752.148 1932.368c0 4.262 3.07 9.02 11.114 9.02 10.307 0 21.126-8.43 21.126-17.158 0-5.86-4.96-9.13-11.114-9.13-9.625 0-21.126 8.138-21.126 17.268M455.05 1944.767c0 4.263 3.068 9.02 11.112 9.02 10.308 0 21.127-8.43 21.127-17.157 0-5.86-4.96-9.13-11.114-9.13-9.626 0-21.127 8.138-21.127 17.267M455.05 2006.767c0 4.263 3.068 9.02 11.112 9.02 10.308 0 21.127-8.43 21.127-17.157 0-5.86-4.96-9.13-11.114-9.13-9.626 0-21.127 8.138-21.127 17.267M410.417 1957.168c0 4.262 3.07 9.02 11.113 9.02 10.308 0 21.127-8.432 21.127-17.158 0-5.86-4.96-9.13-11.113-9.13-9.626 0-21.127 8.138-21.127 17.267M410.417 1994.368c0 4.262 3.07 9.02 11.113 9.02 10.308 0 21.127-8.43 21.127-17.158 0-5.86-4.96-9.13-11.113-9.13-9.626 0-21.127 8.138-21.127 17.268M365.785 1944.767c0 4.263 3.07 9.02 11.113 9.02 10.308 0 21.127-8.43 21.127-17.157 0-5.86-4.96-9.13-11.113-9.13-9.626 0-21.127 8.138-21.127 17.267M365.785 2006.767c0 4.263 3.07 9.02 11.113 9.02 10.308 0 21.127-8.43 21.127-17.157 0-5.86-4.96-9.13-11.113-9.13-9.626 0-21.127 8.138-21.127 17.267M1752.148 2056.367c0 4.263 3.07 9.02 11.114 9.02 10.307 0 21.126-8.43 21.126-17.157 0-5.86-4.96-9.13-11.114-9.13-9.625 0-21.126 8.138-21.126 17.268M321.153 1957.168c0 4.262 3.07 9.02 11.113 9.02 10.308 0 21.127-8.432 21.127-17.158 0-5.86-4.96-9.13-11.113-9.13-9.626 0-21.127 8.138-21.127 17.267M321.153 1994.368c0 4.262 3.07 9.02 11.113 9.02 10.308 0 21.127-8.43 21.127-17.158 0-5.86-4.96-9.13-11.113-9.13-9.626 0-21.127 8.138-21.127 17.268M160.25 2013.913c-13.685 0-18.552 6.944-18.552 13.392 0 6.448 4.867 13.392 18.553 13.392 13.688 0 18.447-6.944 18.447-13.392 0-6.448-4.76-13.392-18.446-13.392m.792 23.607c-2.775 0-4.665-.79-5.952-3.27s-3.07-8.93-3.177-11.517c-.202-2.682.79-4.263 3.177-5.053 1.193-.404 2.775-.605 4.37-.605 2.667 0 4.465.605 5.845 3.286 1.394 2.574 3.286 9.022 3.286 11.502 0 4.867-3.58 5.657-7.548 5.657M160.25 2051.123c-13.685 0-18.552 6.944-18.552 13.392 0 6.448 4.867 13.392 18.553 13.392 13.688 0 18.447-6.944 18.447-13.392 0-6.448-4.76-13.392-18.446-13.392m.792 23.606c-2.775 0-4.665-.79-5.952-3.27s-3.07-8.93-3.177-11.518c-.202-2.68.79-4.262 3.177-5.053 1.193-.404 2.775-.605 4.37-.605 2.667 0 4.465.604 5.845 3.286 1.394 2.574 3.286 9.022 3.286 11.502 0 4.867-3.58 5.657-7.548 5.657M542.338 1977.798l-42.656 49.6h9.92l42.656-49.6h-9.92M2642.164 1667.798l-42.656 49.6h9.92l42.656-49.6h-9.92M2564.834 1667.798l-42.656 49.6h9.92l42.656-49.6h-9.92M2487.504 1667.798l-42.656 49.6h9.92l42.656-49.6h-9.92M2400.218 1671.967c0 4.263 3.07 9.02 11.114 9.02 10.307 0 21.126-8.43 21.126-17.157 0-5.86-4.96-9.13-11.114-9.13-9.625 0-21.126 8.138-21.126 17.267M2400.218 1733.967c0 4.263 3.07 9.02 11.114 9.02 10.307 0 21.126-8.43 21.126-17.157 0-5.86-4.96-9.13-11.114-9.13-9.625 0-21.126 8.138-21.126 17.267M2355.588 1684.368c0 4.262 3.07 9.02 11.114 9.02 10.307 0 21.126-8.43 21.126-17.158 0-5.86-4.96-9.13-11.114-9.13-9.625 0-21.126 8.138-21.126 17.268M2355.588 1721.568c0 4.262 3.07 9.02 11.114 9.02 10.307 0 21.126-8.43 21.126-17.158 0-5.86-4.96-9.13-11.114-9.13-9.625 0-21.126 8.138-21.126 17.268M2310.948 1671.967c0 4.263 3.07 9.02 11.114 9.02 10.307 0 21.126-8.43 21.126-17.157 0-5.86-4.96-9.13-11.114-9.13-9.625 0-21.126 8.138-21.126 17.267M2310.948 1733.967c0 4.263 3.07 9.02 11.114 9.02 10.307 0 21.126-8.43 21.126-17.157 0-5.86-4.96-9.13-11.114-9.13-9.625 0-21.126 8.138-21.126 17.267M1829.514 1977.798l-42.656 49.6h9.92l42.656-49.6h-9.92M1110.298 2093.577c0 4.263 3.07 9.02 11.114 9.02 10.307 0 21.126-8.43 21.126-17.157 0-5.86-4.96-9.13-11.114-9.13-9.625 0-21.126 8.138-21.126 17.268M1707.518 2031.568c0 4.262 3.07 9.02 11.114 9.02 10.307 0 21.126-8.43 21.126-17.158 0-5.86-4.96-9.13-11.114-9.13-9.625 0-21.126 8.138-21.126 17.268M1662.888 1932.368c0 4.262 3.07 9.02 11.114 9.02 10.307 0 21.126-8.43 21.126-17.158 0-5.86-4.96-9.13-11.114-9.13-9.625 0-21.126 8.138-21.126 17.268M1662.888 2056.367c0 4.263 3.07 9.02 11.114 9.02 10.307 0 21.126-8.43 21.126-17.157 0-5.86-4.96-9.13-11.114-9.13-9.625 0-21.126 8.138-21.126 17.268M1618.248 1957.168c0 4.262 3.07 9.02 11.114 9.02 10.307 0 21.126-8.432 21.126-17.158 0-5.86-4.96-9.13-11.114-9.13-9.625 0-21.126 8.138-21.126 17.267M1618.248 2031.568c0 4.262 3.07 9.02 11.114 9.02 10.307 0 21.126-8.43 21.126-17.158 0-5.86-4.96-9.13-11.114-9.13-9.625 0-21.126 8.138-21.126 17.268M1457.351 1976.713c-13.685 0-18.552 6.944-18.552 13.392 0 6.448 4.867 13.392 18.553 13.392 13.688 0 18.447-6.944 18.447-13.392 0-6.448-4.76-13.392-18.446-13.392m.792 23.607c-2.775 0-4.665-.79-5.952-3.27-1.286-2.48-3.07-8.93-3.178-11.517-.2-2.682.79-4.263 3.178-5.053 1.194-.404 2.775-.605 4.37-.605 2.667 0 4.465.605 5.845 3.286 1.395 2.574 3.286 9.022 3.286 11.502 0 4.867-3.58 5.657-7.548 5.657M1457.351 2051.123c-13.685 0-18.552 6.944-18.552 13.392 0 6.448 4.867 13.392 18.553 13.392 13.688 0 18.447-6.944 18.447-13.392 0-6.448-4.76-13.392-18.446-13.392m.792 23.606c-2.775 0-4.665-.79-5.952-3.27-1.286-2.48-3.07-8.93-3.178-11.518-.2-2.68.79-4.262 3.178-5.053 1.194-.404 2.775-.605 4.37-.605 2.667 0 4.465.604 5.845 3.286 1.395 2.574 3.286 9.022 3.286 11.502 0 4.867-3.58 5.657-7.548 5.657M1354.984 1977.798l-42.656 49.6h9.92l42.656-49.6h-9.92M1276.284 1977.798l-42.656 49.6h9.92l42.656-49.6h-9.92M1197.584 1977.798l-42.656 49.6h9.92l42.656-49.6h-9.92M1110.298 1969.568c0 4.262 3.07 9.02 11.114 9.02 10.307 0 21.126-8.43 21.126-17.158 0-5.86-4.96-9.13-11.114-9.13-9.625 0-21.126 8.138-21.126 17.268M2266.318 1684.368c0 4.262 3.07 9.02 11.114 9.02 10.307 0 21.126-8.43 21.126-17.158 0-5.86-4.96-9.13-11.114-9.13-9.625 0-21.126 8.138-21.126 17.268M1061.198 1994.368c0 4.262 3.07 9.02 11.114 9.02 10.307 0 21.126-8.43 21.126-17.158 0-5.86-4.96-9.13-11.114-9.13-9.625 0-21.126 8.138-21.126 17.268M1061.198 2068.778c0 4.262 3.07 9.02 11.114 9.02 10.307 0 21.126-8.43 21.126-17.158 0-5.86-4.96-9.13-11.114-9.13-9.625 0-21.126 8.138-21.126 17.268M1012.098 1969.568c0 4.262 3.07 9.02 11.114 9.02 10.307 0 21.126-8.43 21.126-17.158 0-5.86-4.96-9.13-11.114-9.13-9.625 0-21.126 8.138-21.126 17.268M1012.098 2093.577c0 4.263 3.07 9.02 11.114 9.02 10.307 0 21.126-8.43 21.126-17.157 0-5.86-4.96-9.13-11.114-9.13-9.625 0-21.126 8.138-21.126 17.268M963.008 1994.368c0 4.262 3.07 9.02 11.113 9.02 10.31 0 21.128-8.43 21.128-17.158 0-5.86-4.96-9.13-11.113-9.13-9.626 0-21.127 8.138-21.127 17.268M963.008 2068.778c0 4.262 3.07 9.02 11.113 9.02 10.31 0 21.128-8.43 21.128-17.158 0-5.86-4.96-9.13-11.113-9.13-9.626 0-21.127 8.138-21.127 17.268M802.104 1939.513c-13.686 0-18.553 6.944-18.553 13.392 0 6.448 4.868 13.392 18.554 13.392 13.687 0 18.446-6.944 18.446-13.392 0-6.448-4.76-13.392-18.446-13.392m.79 23.607c-2.774 0-4.664-.79-5.95-3.27-1.288-2.48-3.07-8.93-3.178-11.517-.202-2.682.79-4.263 3.177-5.054 1.193-.404 2.775-.605 4.37-.605 2.667 0 4.465.605 5.845 3.286 1.395 2.574 3.286 9.022 3.286 11.502 0 4.867-3.58 5.657-7.55 5.657M802.104 2013.913c-13.686 0-18.553 6.944-18.553 13.392 0 6.448 4.868 13.392 18.554 13.392 13.687 0 18.446-6.944 18.446-13.392 0-6.448-4.76-13.392-18.446-13.392m.79 23.607c-2.774 0-4.664-.79-5.95-3.27-1.288-2.48-3.07-8.93-3.178-11.517-.202-2.682.79-4.263 3.177-5.053 1.193-.404 2.775-.605 4.37-.605 2.667 0 4.465.605 5.845 3.286 1.395 2.574 3.286 9.022 3.286 11.502 0 4.867-3.58 5.657-7.55 5.657M699.735 1977.798l-42.656 49.6H667l42.655-49.6h-9.92M621.036 1977.798l-42.656 49.6h9.92l42.656-49.6h-9.92M465.356 1634.767c0 4.263 3.07 9.02 11.113 9.02 10.307 0 21.126-8.43 21.126-17.157 0-5.86-4.96-9.13-11.113-9.13-9.626 0-21.127 8.138-21.127 17.267M1065.678 1795.967c0 4.263 3.07 9.02 11.114 9.02 10.307 0 21.126-8.43 21.126-17.157 0-5.86-4.96-9.13-11.113-9.13-9.626 0-21.127 8.138-21.127 17.267M1016.578 1647.168c0 4.262 3.07 9.02 11.114 9.02 10.307 0 21.126-8.432 21.126-17.158 0-5.86-4.96-9.13-11.114-9.13-9.625 0-21.126 8.138-21.126 17.267M1016.578 1758.767c0 4.263 3.07 9.02 11.114 9.02 10.307 0 21.126-8.43 21.126-17.157 0-5.86-4.96-9.13-11.114-9.13-9.625 0-21.126 8.138-21.126 17.267M1986.914 1977.798l-42.656 49.6h9.92l42.656-49.6h-9.92M967.488 1609.967c0 4.263 3.07 9.02 11.113 9.02 10.31 0 21.128-8.43 21.128-17.157 0-5.86-4.96-9.13-11.113-9.13-9.626 0-21.127 8.138-21.127 17.267M967.488 1795.967c0 4.263 3.07 9.02 11.113 9.02 10.31 0 21.128-8.43 21.128-17.157 0-5.86-4.96-9.13-11.113-9.13-9.626 0-21.127 8.138-21.127 17.267M809.668 1654.313c-13.686 0-18.553 6.944-18.553 13.392 0 6.448 4.867 13.392 18.553 13.392 13.687 0 18.446-6.944 18.446-13.392 0-6.448-4.76-13.392-18.446-13.392m.79 23.606c-2.774 0-4.664-.79-5.95-3.27-1.288-2.48-3.07-8.93-3.178-11.518-.202-2.68.79-4.262 3.177-5.053 1.193-.404 2.775-.605 4.37-.605 2.667 0 4.465.605 5.845 3.286 1.394 2.574 3.286 9.022 3.286 11.502 0 4.867-3.58 5.657-7.55 5.657M809.668 1716.313c-13.686 0-18.553 6.944-18.553 13.392 0 6.448 4.867 13.392 18.553 13.392 13.687 0 18.446-6.944 18.446-13.392 0-6.448-4.76-13.392-18.446-13.392m.79 23.606c-2.774 0-4.664-.79-5.95-3.27-1.288-2.48-3.07-8.93-3.178-11.518-.202-2.68.79-4.262 3.177-5.053 1.193-.404 2.775-.605 4.37-.605 2.667 0 4.465.605 5.845 3.286 1.394 2.574 3.286 9.022 3.286 11.502 0 4.867-3.58 5.657-7.55 5.657M707.3 1667.798l-42.657 49.6h9.92l42.656-49.6h-9.92M629.972 1667.798l-42.656 49.6h9.92l42.656-49.6h-9.92M552.644 1667.798l-42.656 49.6h9.92l42.656-49.6h-9.92M1065.678 1609.967c0 4.263 3.07 9.02 11.114 9.02 10.307 0 21.126-8.43 21.126-17.157 0-5.86-4.96-9.13-11.113-9.13-9.626 0-21.127 8.138-21.127 17.267M465.356 1709.168c0 4.262 3.07 9.02 11.113 9.02 10.307 0 21.126-8.432 21.126-17.158 0-5.86-4.96-9.13-11.113-9.13-9.626 0-21.127 8.138-21.127 17.267M416.26 1609.967c0 4.263 3.07 9.02 11.113 9.02 10.308 0 21.127-8.43 21.127-17.157 0-5.86-4.96-9.13-11.113-9.13-9.626 0-21.127 8.138-21.127 17.267M416.26 1733.967c0 4.263 3.07 9.02 11.113 9.02 10.308 0 21.127-8.43 21.127-17.157 0-5.86-4.96-9.13-11.113-9.13-9.626 0-21.127 8.138-21.127 17.267M367.163 1634.767c0 4.263 3.07 9.02 11.113 9.02 10.308 0 21.127-8.43 21.127-17.157 0-5.86-4.96-9.13-11.113-9.13-9.626 0-21.127 8.138-21.127 17.267M367.163 1709.168c0 4.262 3.07 9.02 11.113 9.02 10.308 0 21.127-8.432 21.127-17.158 0-5.86-4.96-9.13-11.113-9.13-9.626 0-21.127 8.138-21.127 17.267M318.067 1609.967c0 4.263 3.07 9.02 11.113 9.02 10.308 0 21.127-8.43 21.127-17.157 0-5.86-4.96-9.13-11.113-9.13-9.626 0-21.127 8.138-21.127 17.267M318.067 1733.967c0 4.263 3.07 9.02 11.113 9.02 10.308 0 21.127-8.43 21.127-17.157 0-5.86-4.96-9.13-11.113-9.13-9.626 0-21.127 8.138-21.127 17.267M160.25 1654.313c-13.685 0-18.552 6.944-18.552 13.392 0 6.448 4.867 13.392 18.553 13.392 13.688 0 18.447-6.944 18.447-13.392 0-6.448-4.76-13.392-18.446-13.392m.792 23.606c-2.775 0-4.665-.79-5.952-3.27s-3.07-8.93-3.177-11.518c-.202-2.68.79-4.262 3.177-5.053 1.193-.404 2.775-.605 4.37-.605 2.667 0 4.465.605 5.845 3.286 1.394 2.574 3.286 9.022 3.286 11.502 0 4.867-3.58 5.657-7.548 5.657M160.25 1778.313c-13.685 0-18.552 6.944-18.552 13.392 0 6.448 4.867 13.392 18.553 13.392 13.688 0 18.447-6.944 18.447-13.392 0-6.448-4.76-13.392-18.446-13.392m.792 23.606c-2.775 0-4.665-.79-5.952-3.27s-3.07-8.93-3.177-11.518c-.202-2.68.79-4.262 3.177-5.053 1.193-.404 2.775-.605 4.37-.605 2.667 0 4.465.605 5.845 3.286 1.394 2.574 3.286 9.022 3.286 11.502 0 4.867-3.58 5.657-7.548 5.657M2642.164 1357.798l-42.656 49.6h9.92l42.656-49.6h-9.92M1665.998 1771.168c0 4.262 3.07 9.02 11.114 9.02 10.307 0 21.126-8.432 21.126-17.158 0-5.86-4.96-9.13-11.114-9.13-9.625 0-21.126 8.138-21.126 17.267M2266.318 1721.568c0 4.262 3.07 9.02 11.114 9.02 10.307 0 21.126-8.43 21.126-17.158 0-5.86-4.96-9.13-11.114-9.13-9.625 0-21.126 8.138-21.126 17.268M2108.5 1629.513c-13.685 0-18.552 6.944-18.552 13.392 0 6.448 4.867 13.392 18.553 13.392 13.688 0 18.447-6.944 18.447-13.392 0-6.448-4.76-13.392-18.446-13.392m.792 23.607c-2.775 0-4.665-.79-5.952-3.27s-3.07-8.93-3.178-11.517c-.2-2.682.79-4.263 3.178-5.054 1.193-.404 2.774-.605 4.37-.605 2.667 0 4.465.605 5.844 3.286 1.395 2.574 3.287 9.022 3.287 11.502 0 4.867-3.58 5.657-7.548 5.657M2108.5 1741.113c-13.685 0-18.552 6.944-18.552 13.392 0 6.448 4.867 13.392 18.553 13.392 13.688 0 18.447-6.944 18.447-13.392 0-6.448-4.76-13.392-18.446-13.392m.792 23.607c-2.775 0-4.665-.79-5.952-3.27s-3.07-8.93-3.178-11.517c-.2-2.682.79-4.263 3.178-5.053 1.193-.404 2.774-.605 4.37-.605 2.667 0 4.465.605 5.844 3.286 1.395 2.574 3.287 9.022 3.287 11.502 0 4.867-3.58 5.658-7.548 5.658M2006.134 1667.798l-42.656 49.6h9.92l42.656-49.6h-9.92M1928.804 1667.798l-42.656 49.6h9.92l42.656-49.6h-9.92M1851.484 1667.798l-42.656 49.6h9.92l42.656-49.6h-9.92M1764.188 1709.168c0 4.262 3.07 9.02 11.114 9.02 10.307 0 21.126-8.432 21.126-17.158 0-5.86-4.96-9.13-11.114-9.13-9.625 0-21.126 8.138-21.126 17.267M1764.188 1771.168c0 4.262 3.07 9.02 11.114 9.02 10.307 0 21.126-8.432 21.126-17.158 0-5.86-4.96-9.13-11.114-9.13-9.625 0-21.126 8.138-21.126 17.267M1715.098 1721.568c0 4.262 3.07 9.02 11.114 9.02 10.307 0 21.126-8.43 21.126-17.158 0-5.86-4.96-9.13-11.114-9.13-9.625 0-21.126 8.138-21.126 17.268M1715.098 1758.767c0 4.263 3.07 9.02 11.114 9.02 10.307 0 21.126-8.43 21.126-17.157 0-5.86-4.96-9.13-11.114-9.13-9.625 0-21.126 8.138-21.126 17.267M1665.998 1709.168c0 4.262 3.07 9.02 11.114 9.02 10.307 0 21.126-8.432 21.126-17.158 0-5.86-4.96-9.13-11.114-9.13-9.625 0-21.126 8.138-21.126 17.267M2569.404 1357.798l-42.656 49.6h9.92l42.656-49.6h-9.92M1908.214 1977.798l-42.656 49.6h9.92l42.656-49.6h-9.92M1616.898 1721.568c0 4.262 3.07 9.02 11.114 9.02 10.307 0 21.126-8.43 21.126-17.158 0-5.86-4.96-9.13-11.114-9.13-9.625 0-21.126 8.138-21.126 17.268M1616.898 1758.767c0 4.263 3.07 9.02 11.114 9.02 10.307 0 21.126-8.43 21.126-17.157 0-5.86-4.96-9.13-11.114-9.13-9.625 0-21.126 8.138-21.126 17.267M1459.091 1629.513c-13.685 0-18.552 6.944-18.552 13.392 0 6.448 4.867 13.392 18.553 13.392 13.688 0 18.447-6.944 18.447-13.392 0-6.448-4.76-13.392-18.446-13.392m.792 23.607c-2.775 0-4.665-.79-5.952-3.27-1.286-2.48-3.07-8.93-3.178-11.517-.2-2.682.79-4.263 3.178-5.054 1.194-.404 2.775-.605 4.37-.605 2.667 0 4.465.605 5.845 3.286 1.395 2.574 3.286 9.022 3.286 11.502 0 4.867-3.58 5.657-7.548 5.657M1459.091 1666.713c-13.685 0-18.552 6.944-18.552 13.392 0 6.448 4.867 13.392 18.553 13.392 13.688 0 18.447-6.944 18.447-13.392 0-6.448-4.76-13.392-18.446-13.392m.792 23.607c-2.775 0-4.665-.79-5.952-3.27-1.286-2.48-3.07-8.93-3.178-11.517-.2-2.682.79-4.263 3.178-5.053 1.194-.404 2.775-.605 4.37-.605 2.667 0 4.465.605 5.845 3.286 1.395 2.574 3.286 9.022 3.286 11.502 0 4.867-3.58 5.657-7.548 5.657M1356.714 1667.798l-42.656 49.6h9.92l42.656-49.6h-9.92M1279.394 1667.798l-42.656 49.6h9.92l42.656-49.6h-9.92M1202.064 1667.798l-42.656 49.6h9.92l42.656-49.6h-9.92M1114.778 1647.168c0 4.262 3.07 9.02 11.114 9.02 10.307 0 21.126-8.432 21.126-17.158 0-5.86-4.96-9.13-11.114-9.13-9.625 0-21.126 8.138-21.126 17.267M1114.778 1758.767c0 4.263 3.07 9.02 11.114 9.02 10.307 0 21.126-8.43 21.126-17.157 0-5.86-4.96-9.13-11.114-9.13-9.625 0-21.126 8.138-21.126 17.267M1046.948 382.37c0 4.263 3.07 9.022 11.114 9.022 10.307 0 21.126-8.432 21.126-17.16 0-5.858-4.96-9.128-11.114-9.128-9.625 0-21.126 8.137-21.126 17.267M1824.474 427.8l-42.656 49.6h9.92l42.656-49.6h-9.92M1737.178 543.57c0 4.263 3.07 9.022 11.114 9.022 10.307 0 21.126-8.432 21.126-17.16 0-5.858-4.96-9.128-11.113-9.128-9.626 0-21.127 8.137-21.127 17.267M1692.548 394.77c0 4.263 3.07 9.022 11.114 9.022 10.307 0 21.126-8.432 21.126-17.16 0-5.858-4.96-9.128-11.114-9.128-9.625 0-21.126 8.137-21.126 17.267M1647.918 543.57c0 4.263 3.07 9.022 11.114 9.022 10.307 0 21.126-8.432 21.126-17.16 0-5.858-4.96-9.128-11.114-9.128-9.625 0-21.126 8.137-21.126 17.267M1603.288 394.77c0 4.263 3.07 9.022 11.114 9.022 10.307 0 21.126-8.432 21.126-17.16 0-5.858-4.96-9.128-11.114-9.128-9.625 0-21.126 8.137-21.126 17.267M1448.17 352.316c-13.685 0-18.552 6.944-18.552 13.392 0 6.448 4.867 13.392 18.553 13.392 13.688 0 18.447-6.944 18.447-13.392 0-6.448-4.76-13.392-18.446-13.392m.792 23.606c-2.775 0-4.665-.79-5.952-3.27-1.286-2.48-3.07-8.928-3.178-11.517-.2-2.68.79-4.262 3.178-5.053 1.194-.402 2.775-.604 4.37-.604 2.667 0 4.465.604 5.844 3.286 1.396 2.573 3.287 9.02 3.287 11.5 0 4.868-3.58 5.658-7.548 5.658"/><path class="Note" d="M1413.65 364.716c-13.685 0-18.552 6.944-18.552 13.392 0 6.448 4.867 13.392 18.553 13.392 13.688 0 18.447-6.944 18.447-13.392 0-6.448-4.76-13.392-18.446-13.392m.792 23.606c-2.775 0-4.665-.79-5.952-3.27-1.286-2.48-3.07-8.928-3.178-11.517-.2-2.68.79-4.262 3.178-5.053 1.194-.402 2.775-.604 4.37-.604 2.667 0 4.465.604 5.845 3.286 1.395 2.573 3.286 9.02 3.286 11.5 0 4.868-3.58 5.658-7.548 5.658M1448.17 389.516c-13.685 0-18.552 6.944-18.552 13.392 0 6.448 4.867 13.392 18.553 13.392 13.688 0 18.447-6.944 18.447-13.392 0-6.448-4.76-13.392-18.446-13.392m.792 23.606c-2.775 0-4.665-.79-5.952-3.27-1.286-2.48-3.07-8.928-3.178-11.517-.2-2.68.79-4.262 3.178-5.053 1.194-.402 2.775-.604 4.37-.604 2.667 0 4.465.604 5.844 3.286 1.396 2.573 3.287 9.02 3.287 11.5 0 4.868-3.58 5.658-7.548 5.658M1311.284 427.8l-42.656 49.6h9.92l42.656-49.6h-9.92M1235.154 427.8l-42.656 49.6h9.92l42.656-49.6h-9.92M1159.034 427.8l-42.656 49.6h9.92l42.656-49.6h-9.92M1081.668 531.17c0 4.263 3.07 9.022 11.114 9.022 10.307 0 21.126-8.432 21.126-17.16 0-5.858-4.96-9.128-11.114-9.128-9.625 0-21.126 8.137-21.126 17.267M1900.594 427.8l-42.656 49.6h9.92l42.656-49.6h-9.92M997.858 531.17c0 4.263 3.07 9.022 11.114 9.022 10.307 0 21.126-8.432 21.126-17.16 0-5.858-4.96-9.128-11.114-9.128-9.625 0-21.126 8.137-21.126 17.267M963.148 382.37c0 4.263 3.07 9.022 11.113 9.022 10.31 0 21.128-8.432 21.128-17.16 0-5.858-4.96-9.128-11.113-9.128-9.626 0-21.127 8.137-21.127 17.267M808.03 352.316c-13.686 0-18.553 6.944-18.553 13.392 0 6.448 4.867 13.392 18.553 13.392 13.687 0 18.446-6.944 18.446-13.392 0-6.448-4.76-13.392-18.446-13.392m.79 23.606c-2.774 0-4.664-.79-5.95-3.27-1.288-2.48-3.07-8.928-3.178-11.517-.202-2.68.79-4.262 3.177-5.053 1.192-.402 2.774-.604 4.37-.604 2.666 0 4.464.604 5.844 3.286 1.395 2.573 3.286 9.02 3.286 11.5 0 4.868-3.58 5.658-7.55 5.658"/><path class="Note" d="M808.03 377.116c-13.686 0-18.553 6.944-18.553 13.392 0 6.448 4.867 13.392 18.553 13.392 13.687 0 18.446-6.944 18.446-13.392 0-6.448-4.76-13.392-18.446-13.392m.79 23.606c-2.774 0-4.664-.79-5.95-3.27-1.288-2.48-3.07-8.928-3.178-11.517-.202-2.68.79-4.262 3.177-5.053 1.192-.402 2.774-.604 4.37-.604 2.666 0 4.464.604 5.844 3.286 1.395 2.573 3.286 9.02 3.286 11.5 0 4.868-3.58 5.658-7.55 5.658"/><path class="Note" d="M773.512 389.516c-13.686 0-18.553 6.944-18.553 13.392 0 6.448 4.866 13.392 18.552 13.392 13.687 0 18.446-6.944 18.446-13.392 0-6.448-4.76-13.392-18.446-13.392m.79 23.606c-2.774 0-4.664-.79-5.95-3.27-1.288-2.48-3.07-8.928-3.178-11.517-.202-2.68.79-4.262 3.177-5.053 1.194-.402 2.776-.604 4.372-.604 2.666 0 4.464.604 5.844 3.286 1.394 2.573 3.286 9.02 3.286 11.5 0 4.868-3.58 5.658-7.55 5.658M671.142 427.8l-42.656 49.6h9.92l42.656-49.6h-9.92M595.016 427.8l-42.656 49.6h9.92l42.656-49.6h-9.92M518.89 427.8l-42.655 49.6h9.92l42.656-49.6h-9.92M441.522 518.77c0 4.263 3.07 9.022 11.113 9.022 10.308 0 21.127-8.432 21.127-17.16 0-5.858-4.96-9.128-11.113-9.128-9.627 0-21.128 8.137-21.128 17.267M406.81 369.97c0 4.263 3.07 9.022 11.113 9.022 10.308 0 21.127-8.432 21.127-17.16 0-5.858-4.96-9.128-11.113-9.128-9.626 0-21.127 8.137-21.127 17.267M362.178 518.77c0 4.263 3.07 9.022 11.113 9.022 10.31 0 21.128-8.432 21.128-17.16 0-5.858-4.96-9.128-11.113-9.128-9.626 0-21.127 8.137-21.127 17.267M160.25 835.913c-13.685 0-18.552 6.944-18.552 13.392 0 6.448 4.867 13.392 18.553 13.392 13.688 0 18.447-6.944 18.447-13.392 0-6.448-4.76-13.392-18.446-13.392m.792 23.606c-2.775 0-4.665-.79-5.952-3.27s-3.07-8.93-3.177-11.518c-.202-2.68.79-4.262 3.177-5.053 1.193-.403 2.775-.605 4.37-.605 2.667 0 4.465.604 5.845 3.286 1.394 2.574 3.286 9.022 3.286 11.502 0 4.867-3.58 5.657-7.548 5.657M813.36 823.516c-13.685 0-18.552 6.944-18.552 13.392 0 6.448 4.867 13.392 18.553 13.392 13.688 0 18.447-6.944 18.447-13.392 0-6.448-4.76-13.392-18.446-13.392m.792 23.606c-2.775 0-4.665-.79-5.952-3.27s-3.07-8.928-3.177-11.517c-.202-2.68.79-4.262 3.177-5.053 1.193-.402 2.775-.604 4.37-.604 2.667 0 4.465.604 5.845 3.286 1.394 2.573 3.286 9.02 3.286 11.5 0 4.868-3.58 5.658-7.548 5.658"/><path class="Note" d="M813.36 848.313c-13.685 0-18.552 6.944-18.552 13.392 0 6.448 4.867 13.392 18.553 13.392 13.688 0 18.447-6.944 18.447-13.392 0-6.448-4.76-13.392-18.446-13.392m.792 23.606c-2.775 0-4.665-.79-5.952-3.27s-3.07-8.93-3.177-11.518c-.202-2.68.79-4.262 3.177-5.053 1.193-.403 2.775-.605 4.37-.605 2.667 0 4.465.604 5.845 3.286 1.394 2.574 3.286 9.022 3.286 11.502 0 4.867-3.58 5.657-7.548 5.657M709.578 737.8l-42.656 49.6h9.92l42.656-49.6h-9.92M628.563 737.8l-42.656 49.6h9.92l42.656-49.6h-9.92M547.55 737.8l-42.657 49.6h9.92l42.656-49.6h-9.92M460.26 717.17c0 4.263 3.07 9.022 11.113 9.022 10.308 0 21.127-8.432 21.127-17.16 0-5.858-4.96-9.128-11.113-9.128-9.626 0-21.127 8.137-21.127 17.267M415.628 865.968c0 4.262 3.07 9.02 11.113 9.02 10.31 0 21.128-8.43 21.128-17.158 0-5.86-4.96-9.13-11.113-9.13-9.626 0-21.127 8.138-21.127 17.268M370.996 717.17c0 4.263 3.07 9.022 11.113 9.022 10.307 0 21.126-8.432 21.126-17.16 0-5.858-4.96-9.128-11.113-9.128-9.626 0-21.127 8.137-21.127 17.267M2348.378 1957.168c0 4.262 3.07 9.02 11.114 9.02 10.307 0 21.126-8.432 21.126-17.158 0-5.86-4.96-9.13-11.114-9.13-9.625 0-21.126 8.138-21.126 17.267M326.363 865.968c0 4.262 3.07 9.02 11.113 9.02 10.308 0 21.127-8.43 21.127-17.158 0-5.86-4.96-9.13-11.113-9.13-9.626 0-21.127 8.138-21.127 17.268M160.25 811.116c-13.685 0-18.552 6.944-18.552 13.392 0 6.448 4.867 13.392 18.553 13.392 13.688 0 18.447-6.944 18.447-13.392 0-6.448-4.76-13.392-18.446-13.392m.792 23.606c-2.775 0-4.665-.79-5.952-3.27s-3.07-8.928-3.177-11.517c-.202-2.68.79-4.262 3.177-5.053 1.193-.402 2.775-.604 4.37-.604 2.667 0 4.465.604 5.845 3.286 1.394 2.573 3.286 9.02 3.286 11.5 0 4.868-3.58 5.658-7.548 5.658"/><path class="Note" d="M194.77 823.516c-13.687 0-18.554 6.944-18.554 13.392 0 6.448 4.867 13.392 18.553 13.392s18.445-6.944 18.445-13.392c0-6.448-4.76-13.392-18.446-13.392m.79 23.606c-2.775 0-4.665-.79-5.952-3.27s-3.07-8.928-3.177-11.517c-.2-2.68.79-4.262 3.178-5.053 1.193-.402 2.775-.604 4.37-.604 2.667 0 4.465.604 5.845 3.286 1.394 2.573 3.286 9.02 3.286 11.5 0 4.868-3.582 5.658-7.55 5.658M2397.478 2105.977c0 4.263 3.07 9.022 11.114 9.022 10.307 0 21.126-8.433 21.126-17.16 0-5.86-4.96-9.13-11.114-9.13-9.625 0-21.126 8.138-21.126 17.268M2642.164 427.8l-42.656 49.6h9.92l42.656-49.6h-9.92M2566.034 427.8l-42.656 49.6h9.92l42.656-49.6h-9.92M2489.904 427.8l-42.656 49.6h9.92l42.656-49.6h-9.92M2402.618 555.97c0 4.263 3.07 9.022 11.114 9.022 10.307 0 21.126-8.432 21.126-17.16 0-5.858-4.96-9.128-11.114-9.128-9.625 0-21.126 8.137-21.126 17.267M2357.988 407.17c0 4.263 3.07 9.022 11.114 9.022 10.307 0 21.126-8.432 21.126-17.16 0-5.858-4.96-9.128-11.114-9.128-9.625 0-21.126 8.137-21.126 17.267M2313.358 555.97c0 4.263 3.07 9.022 11.114 9.022 10.307 0 21.126-8.432 21.126-17.16 0-5.858-4.96-9.128-11.114-9.128-9.625 0-21.126 8.137-21.126 17.267M2268.728 407.17c0 4.263 3.07 9.022 11.114 9.022 10.307 0 21.126-8.432 21.126-17.16 0-5.858-4.96-9.128-11.114-9.128-9.625 0-21.126 8.137-21.126 17.267M2113.61 352.316c-13.685 0-18.552 6.944-18.552 13.392 0 6.448 4.867 13.392 18.553 13.392 13.688 0 18.447-6.944 18.447-13.392 0-6.448-4.76-13.392-18.445-13.392m.79 23.606c-2.775 0-4.665-.79-5.952-3.27-1.286-2.48-3.07-8.928-3.178-11.517-.2-2.68.79-4.262 3.178-5.053 1.194-.402 2.775-.604 4.37-.604 2.667 0 4.465.604 5.844 3.286 1.395 2.573 3.287 9.02 3.287 11.5 0 4.868-3.58 5.658-7.548 5.658"/><path class="Note" d="M2079.09 364.716c-13.685 0-18.552 6.944-18.552 13.392 0 6.448 4.867 13.392 18.553 13.392 13.688 0 18.447-6.944 18.447-13.392 0-6.448-4.76-13.392-18.445-13.392m.79 23.606c-2.775 0-4.665-.79-5.952-3.27-1.286-2.48-3.07-8.928-3.178-11.517-.2-2.68.79-4.262 3.178-5.053 1.194-.402 2.775-.604 4.37-.604 2.667 0 4.465.604 5.844 3.286 1.396 2.573 3.287 9.02 3.287 11.5 0 4.868-3.58 5.658-7.548 5.658"/><path class="Note" d="M2113.61 377.116c-13.685 0-18.552 6.944-18.552 13.392 0 6.448 4.867 13.392 18.553 13.392 13.688 0 18.447-6.944 18.447-13.392 0-6.448-4.76-13.392-18.445-13.392m.79 23.606c-2.775 0-4.665-.79-5.952-3.27-1.286-2.48-3.07-8.928-3.178-11.517-.2-2.68.79-4.262 3.178-5.053 1.194-.402 2.775-.604 4.37-.604 2.667 0 4.465.604 5.844 3.286 1.395 2.573 3.287 9.02 3.287 11.5 0 4.868-3.58 5.658-7.548 5.658M1976.724 427.8l-42.656 49.6h9.92l42.656-49.6h-9.92M809.41 54.715c-13.686 0-18.553 6.944-18.553 13.392 0 6.448 4.867 13.392 18.553 13.392 13.687 0 18.446-6.945 18.446-13.393s-4.76-13.392-18.446-13.392m.79 23.606c-2.774 0-4.664-.79-5.95-3.27-1.288-2.48-3.07-8.927-3.178-11.516-.202-2.68.79-4.262 3.177-5.053 1.192-.4 2.774-.603 4.37-.603 2.666 0 4.464.604 5.844 3.286 1.394 2.573 3.286 9.02 3.286 11.5 0 4.868-3.58 5.658-7.55 5.658M1507.322 42.315c-13.687 0-18.554 6.944-18.554 13.392 0 6.448 4.867 13.392 18.553 13.392 13.688 0 18.447-6.945 18.447-13.393s-4.76-13.392-18.446-13.392m.792 23.606c-2.775 0-4.665-.79-5.952-3.27-1.286-2.48-3.07-8.927-3.178-11.516-.2-2.68.79-4.262 3.178-5.053 1.194-.4 2.775-.603 4.37-.603 2.667 0 4.465.604 5.845 3.286 1.395 2.573 3.286 9.02 3.286 11.5 0 4.868-3.58 5.658-7.548 5.658"/><path class="Note" d="M1507.322 67.115c-13.687 0-18.554 6.944-18.554 13.392 0 6.448 4.867 13.392 18.553 13.392 13.688 0 18.447-6.945 18.447-13.393s-4.76-13.392-18.446-13.392m.792 23.606c-2.775 0-4.665-.79-5.952-3.27-1.286-2.48-3.07-8.927-3.178-11.516-.2-2.68.79-4.262 3.178-5.053 1.194-.4 2.775-.603 4.37-.603 2.667 0 4.465.604 5.845 3.286 1.395 2.573 3.286 9.02 3.286 11.5 0 4.868-3.58 5.658-7.548 5.658"/><path class="Note" d="M1472.802 79.516c-13.687 0-18.554 6.944-18.554 13.392 0 6.448 4.867 13.392 18.553 13.392 13.688 0 18.447-6.944 18.447-13.392 0-6.448-4.76-13.392-18.446-13.392m.792 23.606c-2.775 0-4.665-.79-5.952-3.27-1.286-2.48-3.07-8.928-3.178-11.517-.2-2.68.79-4.262 3.178-5.053 1.194-.402 2.775-.604 4.37-.604 2.667 0 4.465.604 5.845 3.286 1.395 2.573 3.286 9.02 3.286 11.5 0 4.868-3.58 5.658-7.548 5.658M1370.434 117.8l-42.656 49.6h9.92l42.656-49.6h-9.92M1294.784 117.8l-42.656 49.6h9.92l42.656-49.6h-9.92M1219.144 117.8l-42.656 49.6h9.92l42.656-49.6h-9.92M1131.858 233.57c0 4.263 3.07 9.022 11.114 9.022 10.307 0 21.126-8.432 21.126-17.16 0-5.858-4.96-9.128-11.114-9.128-9.625 0-21.126 8.137-21.126 17.267M1087.218 84.77c0 4.262 3.07 9.02 11.114 9.02 10.307 0 21.126-8.43 21.126-17.158 0-5.86-4.96-9.13-11.114-9.13-9.625 0-21.126 8.138-21.126 17.268M1042.588 233.57c0 4.263 3.07 9.022 11.114 9.022 10.307 0 21.126-8.432 21.126-17.16 0-5.858-4.96-9.128-11.114-9.128-9.625 0-21.126 8.137-21.126 17.267M2642.164 1977.798l-42.656 49.6h9.92l42.656-49.6h-9.92M997.958 84.77c0 4.262 3.07 9.02 11.114 9.02 10.307 0 21.126-8.43 21.126-17.158 0-5.86-4.96-9.13-11.114-9.13-9.625 0-21.126 8.138-21.126 17.268M843.928 42.315c-13.686 0-18.553 6.944-18.553 13.392 0 6.448 4.867 13.392 18.553 13.392 13.687 0 18.446-6.945 18.446-13.393s-4.76-13.392-18.446-13.392m.79 23.606c-2.774 0-4.664-.79-5.95-3.27-1.288-2.48-3.07-8.927-3.178-11.516-.202-2.68.79-4.262 3.177-5.053 1.193-.4 2.775-.603 4.37-.603 2.667 0 4.465.604 5.845 3.286 1.394 2.573 3.286 9.02 3.286 11.5 0 4.868-3.58 5.658-7.55 5.658M1661.348 72.37c0 4.262 3.07 9.02 11.114 9.02 10.307 0 21.126-8.43 21.126-17.158 0-5.86-4.96-9.13-11.114-9.13-9.625 0-21.126 8.138-21.126 17.268M843.928 79.516c-13.686 0-18.553 6.944-18.553 13.392 0 6.448 4.867 13.392 18.553 13.392 13.687 0 18.446-6.944 18.446-13.392 0-6.448-4.76-13.392-18.446-13.392m.79 23.606c-2.774 0-4.664-.79-5.95-3.27-1.288-2.48-3.07-8.928-3.178-11.517-.202-2.68.79-4.262 3.177-5.053 1.193-.402 2.775-.604 4.37-.604 2.667 0 4.465.604 5.845 3.286 1.394 2.573 3.286 9.02 3.286 11.5 0 4.868-3.58 5.658-7.55 5.658M707.04 117.8l-42.656 49.6h9.92l42.656-49.6h-9.92M631.396 117.8l-42.656 49.6h9.92l42.656-49.6h-9.92M555.752 117.8l-42.656 49.6h9.92l42.656-49.6h-9.92M468.463 245.97c0 4.263 3.07 9.022 11.113 9.022 10.308 0 21.127-8.432 21.127-17.16 0-5.858-4.96-9.128-11.113-9.128-9.626 0-21.127 8.137-21.127 17.267M423.83 97.17c0 4.263 3.07 9.022 11.114 9.022 10.308 0 21.127-8.432 21.127-17.16 0-5.858-4.96-9.128-11.112-9.128-9.626 0-21.127 8.137-21.127 17.267M379.2 245.97c0 4.263 3.068 9.022 11.112 9.022 10.308 0 21.127-8.432 21.127-17.16 0-5.858-4.96-9.128-11.114-9.128-9.626 0-21.127 8.137-21.127 17.267M334.566 97.17c0 4.263 3.07 9.022 11.113 9.022 10.307 0 21.126-8.432 21.126-17.16 0-5.858-4.96-9.128-11.113-9.128-9.626 0-21.127 8.137-21.127 17.267M180.536 42.315c-13.686 0-18.553 6.944-18.553 13.392 0 6.448 4.867 13.392 18.553 13.392 13.687 0 18.446-6.945 18.446-13.393s-4.76-13.392-18.446-13.392m.79 23.606c-2.774 0-4.664-.79-5.95-3.27-1.288-2.48-3.07-8.927-3.178-11.516-.202-2.68.79-4.262 3.177-5.053 1.193-.4 2.775-.603 4.37-.603 2.667 0 4.465.604 5.845 3.286 1.394 2.573 3.286 9.02 3.286 11.5 0 4.868-3.58 5.658-7.55 5.658M146.018 54.715c-13.686 0-18.553 6.944-18.553 13.392 0 6.448 4.867 13.392 18.553 13.392 13.687 0 18.446-6.945 18.446-13.393s-4.76-13.392-18.446-13.392m.79 23.606c-2.774 0-4.664-.79-5.95-3.27-1.288-2.48-3.07-8.927-3.178-11.516-.202-2.68.79-4.262 3.177-5.053 1.193-.4 2.775-.603 4.37-.603 2.667 0 4.465.604 5.845 3.286 1.395 2.573 3.286 9.02 3.286 11.5 0 4.868-3.58 5.658-7.55 5.658"/><path class="Note" d="M180.536 67.115c-13.686 0-18.553 6.944-18.553 13.392 0 6.448 4.867 13.392 18.553 13.392 13.687 0 18.446-6.945 18.446-13.393s-4.76-13.392-18.446-13.392m.79 23.606c-2.774 0-4.664-.79-5.95-3.27-1.288-2.48-3.07-8.927-3.178-11.516-.202-2.68.79-4.262 3.177-5.053 1.193-.4 2.775-.603 4.37-.603 2.667 0 4.465.604 5.845 3.286 1.394 2.573 3.286 9.02 3.286 11.5 0 4.868-3.58 5.658-7.55 5.658M2484.764 1977.798l-42.656 49.6h9.92l42.656-49.6h-9.92M327.465 369.97c0 4.263 3.07 9.022 11.113 9.022 10.308 0 21.127-8.432 21.127-17.16 0-5.858-4.96-9.128-11.113-9.128-9.626 0-21.127 8.137-21.127 17.267M172.352 364.716c-13.686 0-18.553 6.944-18.553 13.392 0 6.448 4.866 13.392 18.552 13.392 13.687 0 18.446-6.944 18.446-13.392 0-6.448-4.76-13.392-18.446-13.392m.79 23.606c-2.774 0-4.664-.79-5.95-3.27-1.288-2.48-3.07-8.928-3.178-11.517-.202-2.68.79-4.262 3.177-5.053 1.194-.402 2.776-.604 4.372-.604 2.666 0 4.464.604 5.844 3.286 1.394 2.573 3.286 9.02 3.286 11.5 0 4.868-3.58 5.658-7.55 5.658"/><path class="Note" d="M137.834 377.116c-13.686 0-18.553 6.944-18.553 13.392 0 6.448 4.868 13.392 18.554 13.392 13.687 0 18.446-6.944 18.446-13.392 0-6.448-4.76-13.392-18.446-13.392m.79 23.606c-2.774 0-4.664-.79-5.95-3.27-1.288-2.48-3.07-8.928-3.178-11.517-.202-2.68.79-4.262 3.177-5.053 1.193-.402 2.775-.604 4.37-.604 2.667 0 4.465.604 5.845 3.286 1.394 2.573 3.286 9.02 3.286 11.5 0 4.868-3.58 5.658-7.55 5.658"/><path class="Note" d="M172.352 389.516c-13.686 0-18.553 6.944-18.553 13.392 0 6.448 4.866 13.392 18.552 13.392 13.687 0 18.446-6.944 18.446-13.392 0-6.448-4.76-13.392-18.446-13.392m.79 23.606c-2.774 0-4.664-.79-5.95-3.27-1.288-2.48-3.07-8.928-3.178-11.517-.202-2.68.79-4.262 3.177-5.053 1.194-.402 2.776-.604 4.372-.604 2.666 0 4.464.604 5.844 3.286 1.394 2.573 3.286 9.02 3.286 11.5 0 4.868-3.58 5.658-7.55 5.658M2397.478 1919.967c0 4.263 3.07 9.02 11.114 9.02 10.307 0 21.126-8.43 21.126-17.157 0-5.86-4.96-9.13-11.114-9.13-9.625 0-21.126 8.138-21.126 17.267M2642.164 117.8l-42.656 49.6h9.92l42.656-49.6h-9.92M2566.514 117.8l-42.656 49.6h9.92l42.656-49.6h-9.92M2490.874 117.8l-42.656 49.6h9.92l42.656-49.6h-9.92M2413.498 208.77c0 4.263 3.07 9.022 11.114 9.022 10.307 0 21.126-8.432 21.126-17.16 0-5.858-4.96-9.128-11.114-9.128-9.625 0-21.126 8.137-21.126 17.267M2378.788 59.97c0 4.262 3.07 9.02 11.114 9.02 10.307 0 21.126-8.43 21.126-17.158 0-5.86-4.96-9.13-11.114-9.13-9.625 0-21.126 8.138-21.126 17.268M2334.158 208.77c0 4.263 3.07 9.022 11.114 9.022 10.307 0 21.126-8.432 21.126-17.16 0-5.858-4.96-9.128-11.114-9.128-9.625 0-21.126 8.137-21.126 17.267M1347.934 1357.798l-42.656 49.6h9.92l42.656-49.6h-9.92M2299.448 59.97c0 4.262 3.07 9.02 11.114 9.02 10.307 0 21.126-8.43 21.126-17.158 0-5.86-4.96-9.13-11.114-9.13-9.625 0-21.126 8.138-21.126 17.268M2145.42 54.715c-13.685 0-18.552 6.944-18.552 13.392 0 6.448 4.867 13.392 18.553 13.392 13.688 0 18.447-6.945 18.447-13.393s-4.76-13.392-18.446-13.392m.792 23.606c-2.775 0-4.665-.79-5.952-3.27s-3.07-8.927-3.178-11.516c-.2-2.68.79-4.262 3.178-5.053 1.193-.4 2.774-.603 4.37-.603 2.667 0 4.465.604 5.844 3.286 1.395 2.573 3.287 9.02 3.287 11.5 0 4.868-3.58 5.658-7.548 5.658M2110.9 67.115c-13.685 0-18.552 6.944-18.552 13.392 0 6.448 4.867 13.392 18.553 13.392 13.688 0 18.447-6.945 18.447-13.393s-4.76-13.392-18.446-13.392m.792 23.606c-2.775 0-4.665-.79-5.952-3.27-1.286-2.48-3.07-8.927-3.178-11.516-.2-2.68.79-4.262 3.178-5.053 1.194-.4 2.775-.603 4.37-.603 2.667 0 4.465.604 5.844 3.286 1.395 2.573 3.287 9.02 3.287 11.5 0 4.868-3.58 5.658-7.548 5.658"/><path class="Note" d="M2145.42 79.516c-13.685 0-18.552 6.944-18.552 13.392 0 6.448 4.867 13.392 18.553 13.392 13.688 0 18.447-6.944 18.447-13.392 0-6.448-4.76-13.392-18.446-13.392m.792 23.606c-2.775 0-4.665-.79-5.952-3.27s-3.07-8.928-3.178-11.517c-.2-2.68.79-4.262 3.178-5.053 1.193-.402 2.774-.604 4.37-.604 2.667 0 4.465.604 5.844 3.286 1.395 2.573 3.287 9.02 3.287 11.5 0 4.868-3.58 5.658-7.548 5.658M2008.524 117.8l-42.656 49.6h9.92l42.656-49.6h-9.92M1932.884 117.8l-42.656 49.6h9.92l42.656-49.6h-9.92M1857.244 117.8l-42.656 49.6h9.92l42.656-49.6h-9.92M1779.868 221.17c0 4.263 3.07 9.022 11.114 9.022 10.307 0 21.126-8.432 21.126-17.16 0-5.858-4.96-9.128-11.114-9.128-9.625 0-21.126 8.137-21.126 17.267M1745.158 72.37c0 4.262 3.07 9.02 11.114 9.02 10.307 0 21.126-8.43 21.126-17.158 0-5.86-4.96-9.13-11.114-9.13-9.625 0-21.126 8.138-21.126 17.268M1696.058 221.17c0 4.263 3.07 9.022 11.114 9.022 10.307 0 21.126-8.432 21.126-17.16 0-5.858-4.96-9.128-11.114-9.128-9.625 0-21.126 8.137-21.126 17.267M2563.464 1977.798l-42.656 49.6h9.92l42.656-49.6h-9.92M2091.42 1145.913c-13.685 0-18.552 6.944-18.552 13.392 0 6.448 4.867 13.392 18.553 13.392 13.688 0 18.447-6.944 18.447-13.392 0-6.448-4.76-13.392-18.446-13.392m.792 23.607c-2.775 0-4.665-.79-5.952-3.27s-3.07-8.93-3.178-11.517c-.2-2.682.79-4.263 3.178-5.053 1.193-.404 2.774-.605 4.37-.605 2.667 0 4.465.605 5.844 3.286 1.395 2.574 3.287 9.022 3.287 11.502 0 4.867-3.58 5.657-7.548 5.657M160.25 1282.313c-13.685 0-18.552 6.944-18.552 13.392 0 6.448 4.867 13.392 18.553 13.392 13.688 0 18.447-6.944 18.447-13.392 0-6.448-4.76-13.392-18.446-13.392m.792 23.606c-2.775 0-4.665-.79-5.952-3.27s-3.07-8.93-3.177-11.518c-.202-2.68.79-4.262 3.177-5.053 1.193-.404 2.775-.605 4.37-.605 2.667 0 4.465.605 5.845 3.286 1.394 2.574 3.286 9.022 3.286 11.502 0 4.867-3.58 5.657-7.548 5.657M160.25 1344.313c-13.685 0-18.552 6.944-18.552 13.392 0 6.448 4.867 13.392 18.553 13.392 13.688 0 18.447-6.944 18.447-13.392 0-6.448-4.76-13.392-18.446-13.392m.792 23.606c-2.775 0-4.665-.79-5.952-3.27s-3.07-8.93-3.177-11.518c-.202-2.68.79-4.262 3.177-5.053 1.193-.404 2.775-.605 4.37-.605 2.667 0 4.465.605 5.845 3.286 1.394 2.574 3.286 9.022 3.286 11.502 0 4.867-3.58 5.657-7.548 5.657M2250.188 1957.168c0 4.262 3.07 9.02 11.114 9.02 10.307 0 21.126-8.432 21.126-17.158 0-5.86-4.96-9.13-11.114-9.13-9.625 0-21.126 8.138-21.126 17.267M2640.744 1047.798l-42.656 49.6h9.92l42.656-49.6h-9.92M2559.734 1047.798l-42.656 49.6h9.92l42.656-49.6h-9.92M2478.714 1047.798l-42.656 49.6h9.92l42.656-49.6h-9.92M2391.428 1027.168c0 4.262 3.07 9.02 11.114 9.02 10.307 0 21.126-8.432 21.126-17.158 0-5.86-4.96-9.13-11.114-9.13-9.625 0-21.126 8.138-21.126 17.267M2346.798 1175.967c0 4.263 3.07 9.02 11.114 9.02 10.307 0 21.126-8.43 21.126-17.157 0-5.86-4.96-9.13-11.114-9.13-9.625 0-21.126 8.138-21.126 17.267M2302.168 1027.168c0 4.262 3.07 9.02 11.114 9.02 10.307 0 21.126-8.432 21.126-17.158 0-5.86-4.96-9.13-11.114-9.13-9.625 0-21.126 8.138-21.126 17.267M2257.528 1175.967c0 4.263 3.07 9.02 11.114 9.02 10.307 0 21.126-8.43 21.126-17.157 0-5.86-4.96-9.13-11.114-9.13-9.625 0-21.126 8.138-21.126 17.267"/><path class="Note" d="M2091.42 1121.113c-13.685 0-18.552 6.944-18.552 13.392 0 6.448 4.867 13.392 18.553 13.392 13.688 0 18.447-6.944 18.447-13.392 0-6.448-4.76-13.392-18.446-13.392m.792 23.607c-2.775 0-4.665-.79-5.952-3.27s-3.07-8.93-3.178-11.517c-.2-2.682.79-4.263 3.178-5.053 1.193-.404 2.774-.605 4.37-.605 2.667 0 4.465.605 5.844 3.286 1.395 2.574 3.287 9.022 3.287 11.502 0 4.867-3.58 5.658-7.548 5.658"/><path class="Note" d="M2125.94 1133.513c-13.685 0-18.552 6.944-18.552 13.392 0 6.448 4.867 13.392 18.553 13.392 13.688 0 18.447-6.944 18.447-13.392 0-6.448-4.76-13.392-18.446-13.392m.792 23.607c-2.775 0-4.665-.79-5.952-3.27s-3.07-8.93-3.178-11.517c-.2-2.682.79-4.263 3.178-5.054 1.193-.404 2.774-.605 4.37-.605 2.667 0 4.465.605 5.844 3.286 1.395 2.574 3.287 9.022 3.287 11.502 0 4.867-3.58 5.657-7.548 5.657M307.787 1485.967c0 4.263 3.07 9.02 11.113 9.02 10.308 0 21.127-8.43 21.127-17.157 0-5.86-4.96-9.13-11.113-9.13-9.626 0-21.127 8.138-21.127 17.267M1987.634 1047.798l-42.656 49.6h9.92l42.656-49.6h-9.92M1906.624 1047.798l-42.656 49.6h9.92l42.656-49.6h-9.92M1825.604 1047.798l-42.656 49.6h9.92l42.656-49.6h-9.92M1738.318 1014.768c0 4.262 3.07 9.02 11.114 9.02 10.307 0 21.126-8.432 21.126-17.158 0-5.86-4.96-9.13-11.114-9.13-9.625 0-21.126 8.138-21.126 17.267M1693.688 1163.568c0 4.262 3.07 9.02 11.114 9.02 10.307 0 21.126-8.43 21.126-17.158 0-5.86-4.96-9.13-11.114-9.13-9.625 0-21.126 8.138-21.126 17.268M1649.058 1014.768c0 4.262 3.07 9.02 11.114 9.02 10.307 0 21.126-8.432 21.126-17.158 0-5.86-4.96-9.13-11.114-9.13-9.625 0-21.126 8.138-21.126 17.267M1604.418 1163.568c0 4.262 3.07 9.02 11.114 9.02 10.307 0 21.126-8.43 21.126-17.158 0-5.86-4.96-9.13-11.114-9.13-9.625 0-21.126 8.138-21.126 17.268M1472.832 1121.113c-13.687 0-18.554 6.944-18.554 13.392 0 6.448 4.867 13.392 18.553 13.392 13.688 0 18.447-6.944 18.447-13.392 0-6.448-4.76-13.392-18.446-13.392m.792 23.607c-2.775 0-4.665-.79-5.952-3.27-1.286-2.48-3.07-8.93-3.178-11.517-.2-2.682.79-4.263 3.178-5.053 1.194-.404 2.775-.605 4.37-.605 2.667 0 4.465.605 5.845 3.286 1.395 2.574 3.286 9.022 3.286 11.502 0 4.867-3.58 5.658-7.548 5.658"/><path class="Note" d="M1438.312 1133.513c-13.687 0-18.554 6.944-18.554 13.392 0 6.448 4.867 13.392 18.553 13.392 13.688 0 18.447-6.944 18.447-13.392 0-6.448-4.76-13.392-18.446-13.392m.792 23.607c-2.775 0-4.665-.79-5.952-3.27-1.286-2.48-3.07-8.93-3.178-11.517-.2-2.682.79-4.263 3.178-5.054 1.194-.404 2.775-.605 4.37-.605 2.667 0 4.465.605 5.845 3.286 1.395 2.574 3.286 9.022 3.286 11.502 0 4.867-3.58 5.657-7.548 5.657"/><path class="Note" d="M1438.312 1158.313c-13.687 0-18.554 6.944-18.554 13.392 0 6.448 4.867 13.392 18.553 13.392 13.688 0 18.447-6.944 18.447-13.392 0-6.448-4.76-13.392-18.446-13.392m.792 23.606c-2.775 0-4.665-.79-5.952-3.27-1.286-2.48-3.07-8.93-3.178-11.518-.2-2.68.79-4.262 3.178-5.053 1.194-.404 2.775-.605 4.37-.605 2.667 0 4.465.605 5.845 3.286 1.395 2.574 3.286 9.022 3.286 11.502 0 4.867-3.58 5.657-7.548 5.657M1334.524 1047.798l-42.656 49.6h9.92l42.656-49.6h-9.92M833.697 1468.313c-13.686 0-18.553 6.944-18.553 13.392 0 6.448 4.867 13.392 18.553 13.392 13.687 0 18.446-6.944 18.446-13.392 0-6.448-4.76-13.392-18.446-13.392m.79 23.606c-2.774 0-4.664-.79-5.95-3.27-1.288-2.48-3.07-8.93-3.178-11.518-.203-2.68.79-4.262 3.176-5.053 1.193-.404 2.775-.605 4.37-.605 2.667 0 4.465.605 5.845 3.286 1.395 2.574 3.287 9.022 3.287 11.502 0 4.867-3.58 5.657-7.55 5.657M1450.302 1468.313c-13.687 0-18.554 6.944-18.554 13.392 0 6.448 4.867 13.392 18.553 13.392 13.688 0 18.447-6.944 18.447-13.392 0-6.448-4.76-13.392-18.446-13.392m.792 23.606c-2.775 0-4.665-.79-5.952-3.27-1.286-2.48-3.07-8.93-3.178-11.518-.2-2.68.79-4.262 3.178-5.053 1.194-.404 2.775-.605 4.37-.605 2.667 0 4.465.605 5.845 3.286 1.395 2.574 3.286 9.022 3.286 11.502 0 4.867-3.58 5.657-7.548 5.657M1275.174 1357.798l-42.656 49.6h9.92l42.656-49.6h-9.92M1202.424 1357.798l-42.656 49.6h9.92l42.656-49.6h-9.92M1115.128 1374.368c0 4.262 3.07 9.02 11.114 9.02 10.307 0 21.126-8.43 21.126-17.158 0-5.86-4.96-9.13-11.114-9.13-9.625 0-21.126 8.138-21.126 17.268M1115.128 1411.568c0 4.262 3.07 9.02 11.114 9.02 10.307 0 21.126-8.43 21.126-17.158 0-5.86-4.96-9.13-11.114-9.13-9.625 0-21.126 8.138-21.126 17.268M1070.498 1361.967c0 4.263 3.07 9.02 11.114 9.02 10.307 0 21.126-8.43 21.126-17.157 0-5.86-4.96-9.13-11.114-9.13-9.625 0-21.126 8.138-21.126 17.267M1070.498 1423.967c0 4.263 3.07 9.02 11.114 9.02 10.307 0 21.126-8.43 21.126-17.157 0-5.86-4.96-9.13-11.114-9.13-9.625 0-21.126 8.138-21.126 17.267M1025.868 1374.368c0 4.262 3.07 9.02 11.114 9.02 10.307 0 21.126-8.43 21.126-17.158 0-5.86-4.96-9.13-11.114-9.13-9.625 0-21.126 8.138-21.126 17.268M1025.868 1411.568c0 4.262 3.07 9.02 11.114 9.02 10.307 0 21.126-8.43 21.126-17.158 0-5.86-4.96-9.13-11.114-9.13-9.625 0-21.126 8.138-21.126 17.268M981.238 1361.967c0 4.263 3.07 9.02 11.113 9.02 10.31 0 21.128-8.43 21.128-17.157 0-5.86-4.96-9.13-11.113-9.13-9.626 0-21.127 8.138-21.127 17.267M981.238 1423.967c0 4.263 3.07 9.02 11.113 9.02 10.31 0 21.128-8.43 21.128-17.157 0-5.86-4.96-9.13-11.113-9.13-9.626 0-21.127 8.138-21.127 17.267M833.697 1282.313c-13.686 0-18.553 6.944-18.553 13.392 0 6.448 4.867 13.392 18.553 13.392 13.687 0 18.446-6.944 18.446-13.392 0-6.448-4.76-13.392-18.446-13.392m.79 23.606c-2.774 0-4.664-.79-5.95-3.27-1.288-2.48-3.07-8.93-3.178-11.518-.203-2.68.79-4.262 3.176-5.053 1.193-.404 2.775-.605 4.37-.605 2.667 0 4.465.605 5.845 3.286 1.395 2.574 3.287 9.022 3.287 11.502 0 4.867-3.58 5.657-7.55 5.657M979.478 853.568c0 4.262 3.07 9.02 11.113 9.02 10.31 0 21.128-8.43 21.128-17.158 0-5.86-4.96-9.13-11.114-9.13-9.625 0-21.126 8.138-21.126 17.268M731.328 1357.798l-42.656 49.6h9.92l42.656-49.6h-9.92M658.57 1357.798l-42.657 49.6h9.92l42.656-49.6h-9.92M585.81 1357.798l-42.655 49.6h9.92l42.656-49.6h-9.92M498.523 1436.368c0 4.262 3.07 9.02 11.113 9.02 10.308 0 21.127-8.43 21.127-17.158 0-5.86-4.96-9.13-11.113-9.13-9.626 0-21.127 8.138-21.127 17.268M498.523 1473.568c0 4.262 3.07 9.02 11.113 9.02 10.308 0 21.127-8.43 21.127-17.158 0-5.86-4.96-9.13-11.113-9.13-9.626 0-21.127 8.138-21.127 17.268M443.722 1423.967c0 4.263 3.07 9.02 11.113 9.02 10.308 0 21.127-8.43 21.127-17.157 0-5.86-4.96-9.13-11.113-9.13-9.627 0-21.128 8.138-21.128 17.267M443.722 1485.967c0 4.263 3.07 9.02 11.113 9.02 10.308 0 21.127-8.43 21.127-17.157 0-5.86-4.96-9.13-11.113-9.13-9.627 0-21.128 8.138-21.128 17.267M388.922 1436.368c0 4.262 3.07 9.02 11.113 9.02 10.308 0 21.127-8.43 21.127-17.158 0-5.86-4.96-9.13-11.113-9.13-9.627 0-21.128 8.138-21.128 17.268M388.922 1473.568c0 4.262 3.07 9.02 11.113 9.02 10.308 0 21.127-8.43 21.127-17.158 0-5.86-4.96-9.13-11.113-9.13-9.627 0-21.128 8.138-21.128 17.268M2250.188 2068.778c0 4.262 3.07 9.02 11.114 9.02 10.307 0 21.126-8.43 21.126-17.158 0-5.86-4.96-9.13-11.114-9.13-9.625 0-21.126 8.138-21.126 17.268M307.787 1423.967c0 4.263 3.07 9.02 11.113 9.02 10.308 0 21.127-8.43 21.127-17.157 0-5.86-4.96-9.13-11.113-9.13-9.626 0-21.127 8.138-21.127 17.267M1632.588 841.17c0 4.263 3.07 9.022 11.114 9.022 10.307 0 21.126-8.432 21.126-17.16 0-5.858-4.96-9.128-11.114-9.128-9.625 0-21.126 8.137-21.126 17.267M2320.708 679.97c0 4.263 3.07 9.022 11.114 9.022 10.307 0 21.126-8.432 21.126-17.16 0-5.858-4.96-9.128-11.114-9.128-9.625 0-21.126 8.137-21.126 17.267M2299.278 1919.967c0 4.263 3.07 9.02 11.114 9.02 10.307 0 21.126-8.43 21.126-17.157 0-5.86-4.96-9.13-11.114-9.13-9.625 0-21.126 8.138-21.126 17.267M2276.078 828.77c0 4.263 3.07 9.022 11.114 9.022 10.307 0 21.126-8.432 21.126-17.16 0-5.858-4.96-9.128-11.114-9.128-9.625 0-21.126 8.137-21.126 17.267M2109.96 823.516c-13.685 0-18.552 6.944-18.552 13.392 0 6.448 4.867 13.392 18.553 13.392 13.688 0 18.447-6.944 18.447-13.392 0-6.448-4.76-13.392-18.446-13.392m.792 23.606c-2.775 0-4.665-.79-5.952-3.27s-3.07-8.928-3.178-11.517c-.2-2.68.79-4.262 3.178-5.053 1.193-.402 2.774-.604 4.37-.604 2.667 0 4.465.604 5.844 3.286 1.395 2.573 3.287 9.02 3.287 11.5 0 4.868-3.58 5.658-7.548 5.658"/><path class="Note" d="M2144.48 835.913c-13.685 0-18.552 6.944-18.552 13.392 0 6.448 4.867 13.392 18.553 13.392 13.688 0 18.447-6.944 18.447-13.392 0-6.448-4.76-13.392-18.446-13.392m.792 23.606c-2.775 0-4.665-.79-5.952-3.27s-3.07-8.93-3.178-11.518c-.2-2.68.79-4.262 3.178-5.053 1.193-.403 2.774-.605 4.37-.605 2.667 0 4.465.604 5.844 3.286 1.395 2.574 3.287 9.022 3.287 11.502 0 4.867-3.58 5.657-7.548 5.657"/><path class="Note" d="M2109.96 848.313c-13.685 0-18.552 6.944-18.552 13.392 0 6.448 4.867 13.392 18.553 13.392 13.688 0 18.447-6.944 18.447-13.392 0-6.448-4.76-13.392-18.446-13.392m.792 23.606c-2.775 0-4.665-.79-5.952-3.27s-3.07-8.93-3.178-11.518c-.2-2.68.79-4.262 3.178-5.053 1.193-.403 2.774-.605 4.37-.605 2.667 0 4.465.604 5.844 3.286 1.395 2.574 3.287 9.022 3.287 11.502 0 4.867-3.58 5.657-7.548 5.657M2006.184 737.8l-42.656 49.6h9.92l42.656-49.6h-9.92M1925.164 737.8l-42.656 49.6h9.92l42.656-49.6h-9.92M1844.154 737.8l-42.656 49.6h9.92l42.656-49.6h-9.92M1766.788 692.37c0 4.263 3.07 9.022 11.114 9.022 10.307 0 21.126-8.432 21.126-17.16 0-5.858-4.96-9.128-11.114-9.128-9.625 0-21.126 8.137-21.126 17.267M1717.688 841.17c0 4.263 3.07 9.022 11.114 9.022 10.307 0 21.126-8.432 21.126-17.16 0-5.858-4.96-9.128-11.114-9.128-9.625 0-21.126 8.137-21.126 17.267M1681.678 692.37c0 4.263 3.07 9.022 11.114 9.022 10.307 0 21.126-8.432 21.126-17.16 0-5.858-4.96-9.128-11.113-9.128-9.626 0-21.127 8.137-21.127 17.267M1172.494 1047.798l-42.656 49.6h9.92l42.656-49.6h-9.92M1466.472 811.116c-13.687 0-18.554 6.944-18.554 13.392 0 6.448 4.867 13.392 18.554 13.392 13.686 0 18.445-6.944 18.445-13.392 0-6.448-4.76-13.392-18.445-13.392m.79 23.606c-2.774 0-4.665-.79-5.952-3.27-1.286-2.48-3.07-8.928-3.177-11.517-.202-2.68.79-4.262 3.177-5.053 1.194-.402 2.775-.604 4.37-.604 2.667 0 4.465.604 5.845 3.286 1.395 2.573 3.286 9.02 3.286 11.5 0 4.868-3.58 5.658-7.548 5.658M1500.992 835.913c-13.687 0-18.554 6.944-18.554 13.392 0 6.448 4.867 13.392 18.553 13.392 13.688 0 18.447-6.944 18.447-13.392 0-6.448-4.76-13.392-18.445-13.392m.79 23.606c-2.774 0-4.665-.79-5.952-3.27-1.286-2.48-3.07-8.93-3.177-11.518-.202-2.68.79-4.262 3.177-5.053 1.194-.403 2.775-.605 4.37-.605 2.667 0 4.465.604 5.845 3.286 1.395 2.574 3.286 9.022 3.286 11.502 0 4.867-3.58 5.657-7.548 5.657"/><path class="Note" d="M1466.472 848.313c-13.687 0-18.554 6.944-18.554 13.392 0 6.448 4.867 13.392 18.554 13.392 13.686 0 18.445-6.944 18.445-13.392 0-6.448-4.76-13.392-18.445-13.392m.79 23.606c-2.774 0-4.665-.79-5.952-3.27-1.286-2.48-3.07-8.93-3.177-11.518-.202-2.68.79-4.262 3.177-5.053 1.194-.403 2.775-.605 4.37-.605 2.667 0 4.465.604 5.845 3.286 1.395 2.574 3.286 9.022 3.286 11.502 0 4.867-3.58 5.657-7.548 5.657M1362.684 737.8l-42.656 49.6h9.92l42.656-49.6h-9.92M1281.674 737.8l-42.656 49.6h9.92l42.656-49.6h-9.92M1200.664 737.8l-42.656 49.6h9.92l42.656-49.6h-9.92M1113.368 704.77c0 4.263 3.07 9.022 11.114 9.022 10.307 0 21.126-8.432 21.126-17.16 0-5.858-4.96-9.128-11.114-9.128-9.625 0-21.126 8.137-21.126 17.267M1068.738 853.568c0 4.262 3.07 9.02 11.114 9.02 10.307 0 21.126-8.43 21.126-17.158 0-5.86-4.96-9.13-11.114-9.13-9.625 0-21.126 8.138-21.126 17.268M1024.108 704.77c0 4.263 3.07 9.022 11.114 9.022 10.307 0 21.126-8.432 21.126-17.16 0-5.858-4.96-9.128-11.114-9.128-9.625 0-21.126 8.137-21.126 17.267M2348.378 2068.778c0 4.262 3.07 9.02 11.114 9.02 10.307 0 21.126-8.43 21.126-17.158 0-5.86-4.96-9.13-11.114-9.13-9.625 0-21.126 8.138-21.126 17.268M847.88 811.116c-13.686 0-18.553 6.944-18.553 13.392 0 6.448 4.867 13.392 18.553 13.392 13.687 0 18.446-6.944 18.446-13.392 0-6.448-4.76-13.392-18.446-13.392m.79 23.606c-2.774 0-4.664-.79-5.95-3.27-1.288-2.48-3.07-8.928-3.178-11.517-.202-2.68.79-4.262 3.177-5.053 1.192-.402 2.774-.604 4.37-.604 2.666 0 4.464.604 5.844 3.286 1.394 2.573 3.286 9.02 3.286 11.5 0 4.868-3.58 5.658-7.55 5.658M2401.348 679.97c0 4.263 3.07 9.022 11.114 9.022 10.307 0 21.126-8.432 21.126-17.16 0-5.858-4.96-9.128-11.114-9.128-9.625 0-21.126 8.137-21.126 17.267M1253.514 1047.798l-42.656 49.6h9.92l42.656-49.6h-9.92M1095.128 1002.367c0 4.263 3.07 9.02 11.114 9.02 10.307 0 21.126-8.43 21.126-17.157 0-5.86-4.96-9.13-11.114-9.13-9.625 0-21.126 8.138-21.126 17.267M1046.028 1151.168c0 4.262 3.07 9.02 11.114 9.02 10.307 0 21.126-8.432 21.126-17.158 0-5.86-4.96-9.13-11.114-9.13-9.625 0-21.126 8.138-21.126 17.267M1010.028 1002.367c0 4.263 3.07 9.02 11.114 9.02 10.307 0 21.126-8.43 21.126-17.157 0-5.86-4.96-9.13-11.114-9.13-9.625 0-21.126 8.138-21.126 17.267M960.928 1151.168c0 4.262 3.07 9.02 11.113 9.02 10.31 0 21.128-8.432 21.128-17.158 0-5.86-4.96-9.13-11.113-9.13-9.626 0-21.127 8.138-21.127 17.267M794.815 1121.113c-13.686 0-18.553 6.944-18.553 13.392 0 6.448 4.867 13.392 18.553 13.392 13.687 0 18.446-6.944 18.446-13.392 0-6.448-4.758-13.392-18.445-13.392m.79 23.607c-2.774 0-4.664-.79-5.95-3.27-1.288-2.48-3.07-8.93-3.178-11.517-.202-2.682.79-4.263 3.177-5.053 1.193-.404 2.775-.605 4.37-.605 2.667 0 4.465.605 5.845 3.286 1.393 2.574 3.285 9.022 3.285 11.502 0 4.867-3.58 5.658-7.55 5.658M829.334 1145.913c-13.686 0-18.553 6.944-18.553 13.392 0 6.448 4.868 13.392 18.554 13.392 13.687 0 18.446-6.944 18.446-13.392 0-6.448-4.76-13.392-18.446-13.392m.79 23.607c-2.774 0-4.664-.79-5.95-3.27-1.288-2.48-3.07-8.93-3.178-11.517-.202-2.682.79-4.263 3.177-5.053 1.193-.404 2.775-.605 4.37-.605 2.667 0 4.465.605 5.845 3.286 1.394 2.574 3.286 9.022 3.286 11.502 0 4.867-3.58 5.657-7.55 5.657"/><path class="Note" d="M794.815 1158.313c-13.686 0-18.553 6.944-18.553 13.392 0 6.448 4.867 13.392 18.553 13.392 13.687 0 18.446-6.944 18.446-13.392 0-6.448-4.758-13.392-18.445-13.392m.79 23.606c-2.774 0-4.664-.79-5.95-3.27-1.288-2.48-3.07-8.93-3.178-11.518-.202-2.68.79-4.262 3.177-5.053 1.193-.404 2.775-.605 4.37-.605 2.667 0 4.465.605 5.845 3.286 1.393 2.574 3.285 9.022 3.285 11.502 0 4.867-3.58 5.657-7.55 5.657M691.032 1047.798l-42.656 49.6h9.92l42.656-49.6h-9.92M610.017 1047.798l-42.656 49.6h9.92l42.657-49.6h-9.92M529.003 1047.798l-42.656 49.6h9.92l42.656-49.6h-9.92M451.635 989.968c0 4.262 3.07 9.02 11.113 9.02 10.308 0 21.127-8.43 21.127-17.158 0-5.86-4.96-9.13-11.113-9.13-9.626 0-21.127 8.138-21.127 17.268M407.002 1138.767c0 4.263 3.07 9.02 11.113 9.02 10.308 0 21.127-8.43 21.127-17.157 0-5.86-4.96-9.13-11.113-9.13-9.627 0-21.128 8.138-21.128 17.267M370.996 989.968c0 4.262 3.07 9.02 11.113 9.02 10.307 0 21.126-8.43 21.126-17.158 0-5.86-4.96-9.13-11.113-9.13-9.626 0-21.127 8.138-21.127 17.268M326.363 1138.767c0 4.263 3.07 9.02 11.113 9.02 10.308 0 21.127-8.43 21.127-17.157 0-5.86-4.96-9.13-11.113-9.13-9.626 0-21.127 8.138-21.127 17.267M160.25 1133.513c-13.685 0-18.552 6.944-18.552 13.392 0 6.448 4.867 13.392 18.553 13.392 13.688 0 18.447-6.944 18.447-13.392 0-6.448-4.76-13.392-18.446-13.392m.792 23.607c-2.775 0-4.665-.79-5.952-3.27s-3.07-8.93-3.177-11.517c-.202-2.682.79-4.263 3.177-5.054 1.193-.404 2.775-.605 4.37-.605 2.667 0 4.465.605 5.845 3.286 1.394 2.574 3.286 9.022 3.286 11.502 0 4.867-3.58 5.657-7.548 5.657"/><path class="Note" d="M194.77 1145.913c-13.687 0-18.554 6.944-18.554 13.392 0 6.448 4.867 13.392 18.553 13.392s18.445-6.944 18.445-13.392c0-6.448-4.76-13.392-18.446-13.392m.79 23.607c-2.775 0-4.665-.79-5.952-3.27s-3.07-8.93-3.177-11.517c-.2-2.682.79-4.263 3.178-5.053 1.193-.404 2.775-.605 4.37-.605 2.667 0 4.465.605 5.845 3.286 1.394 2.574 3.286 9.022 3.286 11.502 0 4.867-3.582 5.657-7.55 5.657"/><path class="Note" d="M160.25 1158.313c-13.685 0-18.552 6.944-18.552 13.392 0 6.448 4.867 13.392 18.553 13.392 13.688 0 18.447-6.944 18.447-13.392 0-6.448-4.76-13.392-18.446-13.392m.792 23.606c-2.775 0-4.665-.79-5.952-3.27s-3.07-8.93-3.177-11.518c-.202-2.68.79-4.262 3.177-5.053 1.193-.404 2.775-.605 4.37-.605 2.667 0 4.465.605 5.845 3.286 1.394 2.574 3.286 9.022 3.286 11.502 0 4.867-3.58 5.657-7.548 5.657M2299.278 2105.977c0 4.263 3.07 9.022 11.114 9.022 10.307 0 21.126-8.433 21.126-17.16 0-5.86-4.96-9.13-11.114-9.13-9.625 0-21.126 8.138-21.126 17.268M2640.744 737.8l-42.656 49.6h9.92l42.656-49.6h-9.92M2559.734 737.8l-42.656 49.6h9.92l42.656-49.6h-9.92M2478.714 737.8l-42.656 49.6h9.92l42.656-49.6h-9.92M2356.718 828.77c0 4.263 3.07 9.022 11.114 9.022 10.307 0 21.126-8.432 21.126-17.16 0-5.858-4.96-9.128-11.114-9.128-9.625 0-21.126 8.137-21.126 17.267"/><path class="Clef" d="M30.8 218.288c0 6.556 4.96 15.19 18.35 15.19 4.666 0 8.743-1.194 12.308-3.38 5.363-3.766 6.742-10.322 6.742-16.57 0-3.858-.59-8.322-1.58-13.98-.295-1.984-.9-4.96-1.49-8.835 9.72-3.177 16.958-13.3 16.958-23.514 0-14.974-10.617-25.095-25.094-25.095-.992-5.952-1.984-11.81-2.775-17.36 10.415-11.02 17.654-23.42 17.654-39.184 0-9.036-2.775-16.367-4.37-19.947-2.373-5.053-5.256-8.525-7.038-8.525-.698 0-3.767 1.193-7.037 5.053-6.356 7.55-8.14 20.243-8.14 28.567 0 5.363.497 10.23 2.187 21.343-.11.093-5.27 5.348-7.348 7.037-9.037 8.34-21.53 20.43-21.53 40.285 0 18.538 16.167 33.124 34.627 33.124 2.868 0 5.55-.295 7.828-.698 1.89 9.533 3.084 16.477 3.084 21.73 0 10.324-5.364 15.78-15.377 15.78-2.387 0-4.464-.496-4.665-.496-.093-.108-.295-.2-.295-.294 0-.202.202-.31.496-.31 4.665-.79 9.315-4.76 9.315-11.098 0-5.363-4.06-11.02-11.502-11.02-6.944 0-11.314 5.657-11.314 12.198M51.537 85.855c.9-3.968 5.456-14.384 10.617-14.384 1.488 0 3.86 4.76 3.86 11.704 0 10.323-7.626 18.057-14.477 24.8-.59-3.968-1.085-7.828-1.085-11.997 0-3.674.294-7.053 1.085-10.122m8.726 101.975c-1.984.403-3.86.604-5.75.604-14.183 0-26.288-9.92-26.288-24.908 0-12.09 8.525-22.91 17.267-30.458 1.674-1.488 3.27-2.867 4.758-4.355.885 5.347 1.582 10.013 2.28 14.09-9.037 2.68-15.175 12.198-15.175 21.53 0 6.943 5.456 16.46 13.392 16.46.79 0 1.69-.403 1.69-1.287 0-.898-.992-1.394-2.186-2.185-3.874-2.386-6.06-4.96-6.06-9.826 0-6.045 4.573-10.912 10.324-12.292l5.75 32.628m14.09-18.352c0 7.053-2.883 14.29-9.92 17.174-2.077-11.904-4.76-27.683-5.456-32.054 8.928 0 15.376 6.06 15.376 14.88M30.8 1768.285c0 6.556 4.96 15.19 18.35 15.19 4.666 0 8.743-1.194 12.308-3.38 5.363-3.766 6.742-10.322 6.742-16.57 0-3.858-.59-8.322-1.58-13.98-.295-1.984-.9-4.96-1.49-8.835 9.72-3.178 16.958-13.3 16.958-23.514 0-14.973-10.617-25.094-25.094-25.094-.992-5.952-1.984-11.81-2.775-17.36 10.415-11.02 17.654-23.42 17.654-39.184 0-9.037-2.775-16.368-4.37-19.948-2.373-5.053-5.256-8.525-7.038-8.525-.698 0-3.767 1.193-7.037 5.053-6.356 7.548-8.14 20.242-8.14 28.566 0 5.363.497 10.23 2.187 21.343-.11.093-5.27 5.348-7.348 7.037-9.037 8.34-21.53 20.43-21.53 40.285 0 18.537 16.167 33.123 34.627 33.123 2.868 0 5.55-.295 7.828-.698 1.89 9.532 3.084 16.476 3.084 21.73 0 10.324-5.364 15.78-15.377 15.78-2.387 0-4.464-.496-4.665-.496-.093-.11-.295-.203-.295-.295 0-.202.202-.31.496-.31 4.665-.79 9.315-4.76 9.315-11.098 0-5.364-4.06-11.02-11.502-11.02-6.944 0-11.314 5.656-11.314 12.198m20.738-132.433c.9-3.968 5.456-14.384 10.617-14.384 1.488 0 3.86 4.76 3.86 11.703 0 10.324-7.626 18.058-14.477 24.8-.59-3.967-1.085-7.827-1.085-11.996 0-3.674.294-7.053 1.085-10.122m8.726 101.975c-1.984.403-3.86.604-5.75.604-14.183 0-26.288-9.92-26.288-24.907 0-12.09 8.525-22.91 17.267-30.458 1.674-1.488 3.27-2.867 4.758-4.355.885 5.347 1.582 10.013 2.28 14.09-9.037 2.68-15.175 12.198-15.175 21.53 0 6.943 5.456 16.46 13.392 16.46.79 0 1.69-.403 1.69-1.286 0-.9-.992-1.395-2.186-2.186-3.874-2.387-6.06-4.96-6.06-9.827 0-6.044 4.573-10.91 10.324-12.29l5.75 32.627m14.09-18.352c0 7.053-2.883 14.29-9.92 17.174-2.077-11.905-4.76-27.684-5.456-32.055 8.928 0 15.376 6.06 15.376 14.88M30.8 1148.285c0 6.556 4.96 15.19 18.35 15.19 4.666 0 8.743-1.194 12.308-3.38 5.363-3.766 6.742-10.322 6.742-16.57 0-3.858-.59-8.322-1.58-13.98-.295-1.984-.9-4.96-1.49-8.835 9.72-3.178 16.958-13.3 16.958-23.514 0-14.973-10.617-25.094-25.094-25.094-.992-5.952-1.984-11.81-2.775-17.36 10.415-11.02 17.654-23.42 17.654-39.184 0-9.037-2.775-16.368-4.37-19.948-2.373-5.053-5.256-8.525-7.038-8.525-.698 0-3.767 1.193-7.037 5.053-6.356 7.548-8.14 20.242-8.14 28.566 0 5.363.497 10.23 2.187 21.343-.11.093-5.27 5.348-7.348 7.038-9.037 8.338-21.53 20.428-21.53 40.284 0 18.537 16.167 33.123 34.627 33.123 2.868 0 5.55-.295 7.828-.698 1.89 9.532 3.084 16.476 3.084 21.73 0 10.324-5.364 15.78-15.377 15.78-2.387 0-4.464-.496-4.665-.496-.093-.11-.295-.203-.295-.295 0-.202.202-.31.496-.31 4.665-.79 9.315-4.76 9.315-11.098 0-5.364-4.06-11.02-11.502-11.02-6.944 0-11.314 5.656-11.314 12.198m20.738-132.433c.9-3.968 5.456-14.384 10.617-14.384 1.488 0 3.86 4.76 3.86 11.703 0 10.324-7.626 18.058-14.477 24.8-.59-3.967-1.085-7.827-1.085-11.996 0-3.674.294-7.053 1.085-10.122m8.726 101.975c-1.984.403-3.86.604-5.75.604-14.183 0-26.288-9.92-26.288-24.907 0-12.09 8.525-22.91 17.267-30.458 1.674-1.488 3.27-2.867 4.758-4.355.885 5.347 1.582 10.013 2.28 14.09-9.037 2.68-15.175 12.198-15.175 21.53 0 6.943 5.456 16.46 13.392 16.46.79 0 1.69-.403 1.69-1.286 0-.9-.992-1.395-2.186-2.186-3.874-2.387-6.06-4.96-6.06-9.827 0-6.044 4.573-10.91 10.324-12.29l5.75 32.627m14.09-18.352c0 7.053-2.883 14.29-9.92 17.174-2.077-11.905-4.76-27.684-5.456-32.055 8.928 0 15.376 6.06 15.376 14.88M30.8 1458.285c0 6.556 4.96 15.19 18.35 15.19 4.666 0 8.743-1.194 12.308-3.38 5.363-3.766 6.742-10.322 6.742-16.57 0-3.858-.59-8.322-1.58-13.98-.295-1.984-.9-4.96-1.49-8.835 9.72-3.178 16.958-13.3 16.958-23.514 0-14.973-10.617-25.094-25.094-25.094-.992-5.952-1.984-11.81-2.775-17.36 10.415-11.02 17.654-23.42 17.654-39.184 0-9.037-2.775-16.368-4.37-19.948-2.373-5.053-5.256-8.525-7.038-8.525-.698 0-3.767 1.193-7.037 5.053-6.356 7.548-8.14 20.242-8.14 28.566 0 5.363.497 10.23 2.187 21.343-.11.093-5.27 5.348-7.348 7.037-9.037 8.34-21.53 20.43-21.53 40.285 0 18.537 16.167 33.123 34.627 33.123 2.868 0 5.55-.295 7.828-.698 1.89 9.532 3.084 16.476 3.084 21.73 0 10.324-5.364 15.78-15.377 15.78-2.387 0-4.464-.496-4.665-.496-.093-.11-.295-.203-.295-.295 0-.202.202-.31.496-.31 4.665-.79 9.315-4.76 9.315-11.098 0-5.364-4.06-11.02-11.502-11.02-6.944 0-11.314 5.656-11.314 12.198m20.738-132.433c.9-3.968 5.456-14.384 10.617-14.384 1.488 0 3.86 4.76 3.86 11.703 0 10.324-7.626 18.058-14.477 24.8-.59-3.967-1.085-7.827-1.085-11.996 0-3.674.294-7.053 1.085-10.122m8.726 101.975c-1.984.403-3.86.604-5.75.604-14.183 0-26.288-9.92-26.288-24.907 0-12.09 8.525-22.91 17.267-30.458 1.674-1.488 3.27-2.867 4.758-4.355.885 5.347 1.582 10.013 2.28 14.09-9.037 2.68-15.175 12.198-15.175 21.53 0 6.943 5.456 16.46 13.392 16.46.79 0 1.69-.403 1.69-1.286 0-.9-.992-1.395-2.186-2.186-3.874-2.387-6.06-4.96-6.06-9.827 0-6.044 4.573-10.91 10.324-12.29l5.75 32.627m14.09-18.352c0 7.053-2.883 14.29-9.92 17.174-2.077-11.905-4.76-27.684-5.456-32.055 8.928 0 15.376 6.06 15.376 14.88M30.8 838.288c0 6.556 4.96 15.19 18.35 15.19 4.666 0 8.743-1.194 12.308-3.38 5.363-3.766 6.742-10.322 6.742-16.57 0-3.858-.59-8.322-1.58-13.98-.295-1.984-.9-4.96-1.49-8.835 9.72-3.177 16.958-13.3 16.958-23.513 0-14.974-10.617-25.095-25.094-25.095-.992-5.952-1.984-11.81-2.775-17.36 10.415-11.02 17.654-23.42 17.654-39.184 0-9.036-2.775-16.367-4.37-19.947-2.373-5.053-5.256-8.525-7.038-8.525-.698 0-3.767 1.193-7.037 5.053-6.356 7.55-8.14 20.243-8.14 28.567 0 5.363.497 10.23 2.187 21.343-.11.093-5.27 5.348-7.348 7.037-9.037 8.34-21.53 20.43-21.53 40.285 0 18.538 16.167 33.124 34.627 33.124 2.868 0 5.55-.295 7.828-.698 1.89 9.533 3.084 16.477 3.084 21.73 0 10.324-5.364 15.78-15.377 15.78-2.387 0-4.464-.496-4.665-.496-.093-.108-.295-.2-.295-.294 0-.202.202-.31.496-.31 4.665-.79 9.315-4.76 9.315-11.098 0-5.363-4.06-11.02-11.502-11.02-6.944 0-11.314 5.657-11.314 12.198m20.738-132.433c.9-3.968 5.456-14.384 10.617-14.384 1.488 0 3.86 4.76 3.86 11.704 0 10.323-7.626 18.057-14.477 24.8-.59-3.968-1.085-7.828-1.085-11.997 0-3.674.294-7.053 1.085-10.122m8.726 101.975c-1.984.403-3.86.605-5.75.605-14.183 0-26.288-9.92-26.288-24.91 0-12.09 8.525-22.908 17.267-30.457 1.674-1.488 3.27-2.867 4.758-4.355.885 5.347 1.582 10.013 2.28 14.09-9.037 2.68-15.175 12.198-15.175 21.53 0 6.943 5.456 16.46 13.392 16.46.79 0 1.69-.403 1.69-1.287 0-.898-.992-1.394-2.186-2.185-3.874-2.386-6.06-4.96-6.06-9.826 0-6.045 4.573-10.912 10.324-12.292l5.75 32.628m14.09-18.352c0 7.053-2.883 14.29-9.92 17.174-2.077-11.904-4.76-27.683-5.456-32.054 8.928 0 15.376 6.06 15.376 14.88M30.8 528.288c0 6.556 4.96 15.19 18.35 15.19 4.666 0 8.743-1.194 12.308-3.38 5.363-3.766 6.742-10.322 6.742-16.57 0-3.858-.59-8.322-1.58-13.98-.295-1.984-.9-4.96-1.49-8.835 9.72-3.177 16.958-13.3 16.958-23.513 0-14.974-10.617-25.095-25.094-25.095-.992-5.952-1.984-11.81-2.775-17.36 10.415-11.02 17.654-23.42 17.654-39.184 0-9.036-2.775-16.367-4.37-19.947-2.373-5.053-5.256-8.525-7.038-8.525-.698 0-3.767 1.193-7.037 5.053-6.356 7.55-8.14 20.243-8.14 28.567 0 5.363.497 10.23 2.187 21.343-.11.094-5.27 5.348-7.348 7.037-9.037 8.34-21.53 20.43-21.53 40.285 0 18.538 16.167 33.124 34.627 33.124 2.868 0 5.55-.295 7.828-.698 1.89 9.533 3.084 16.477 3.084 21.73 0 10.324-5.364 15.78-15.377 15.78-2.387 0-4.464-.496-4.665-.496-.093-.108-.295-.2-.295-.294 0-.202.202-.31.496-.31 4.665-.79 9.315-4.76 9.315-11.098 0-5.363-4.06-11.02-11.502-11.02-6.944 0-11.314 5.657-11.314 12.198m20.738-132.433c.9-3.968 5.456-14.384 10.617-14.384 1.488 0 3.86 4.76 3.86 11.704 0 10.323-7.626 18.057-14.477 24.8-.59-3.968-1.085-7.828-1.085-11.997 0-3.674.294-7.053 1.085-10.122m8.726 101.975c-1.984.403-3.86.605-5.75.605-14.183 0-26.288-9.92-26.288-24.91 0-12.09 8.525-22.908 17.267-30.457 1.674-1.488 3.27-2.867 4.758-4.355.885 5.347 1.582 10.013 2.28 14.09-9.037 2.68-15.175 12.198-15.175 21.53 0 6.943 5.456 16.46 13.392 16.46.79 0 1.69-.403 1.69-1.287 0-.898-.992-1.394-2.186-2.185-3.874-2.386-6.06-4.96-6.06-9.826 0-6.045 4.573-10.912 10.324-12.292l5.75 32.628m14.09-18.352c0 7.053-2.883 14.29-9.92 17.174-2.077-11.904-4.76-27.683-5.456-32.054 8.928 0 15.376 6.06 15.376 14.88M30.8 2078.285c0 6.556 4.96 15.19 18.35 15.19 4.666 0 8.743-1.194 12.308-3.38 5.363-3.766 6.742-10.322 6.742-16.57 0-3.858-.59-8.322-1.58-13.98-.295-1.984-.9-4.96-1.49-8.835 9.72-3.178 16.958-13.3 16.958-23.514 0-14.972-10.617-25.094-25.094-25.094-.992-5.952-1.984-11.81-2.775-17.36 10.415-11.02 17.654-23.42 17.654-39.184 0-9.037-2.775-16.368-4.37-19.948-2.373-5.053-5.256-8.525-7.038-8.525-.698 0-3.767 1.193-7.037 5.053-6.356 7.548-8.14 20.242-8.14 28.566 0 5.363.497 10.23 2.187 21.343-.11.093-5.27 5.348-7.348 7.038-9.037 8.338-21.53 20.428-21.53 40.284 0 18.537 16.167 33.123 34.627 33.123 2.868 0 5.55-.295 7.828-.698 1.89 9.532 3.084 16.476 3.084 21.73 0 10.324-5.364 15.78-15.377 15.78-2.387 0-4.464-.496-4.665-.496-.093-.11-.295-.203-.295-.295 0-.202.202-.31.496-.31 4.665-.79 9.315-4.76 9.315-11.098 0-5.363-4.06-11.02-11.502-11.02-6.944 0-11.314 5.657-11.314 12.198m20.738-132.433c.9-3.968 5.456-14.384 10.617-14.384 1.488 0 3.86 4.76 3.86 11.703 0 10.324-7.626 18.06-14.477 24.8-.59-3.967-1.085-7.827-1.085-11.996 0-3.674.294-7.053 1.085-10.122m8.726 101.975c-1.984.403-3.86.605-5.75.605-14.183 0-26.288-9.92-26.288-24.91 0-12.09 8.525-22.908 17.267-30.457 1.674-1.488 3.27-2.867 4.758-4.355.885 5.347 1.582 10.013 2.28 14.09-9.037 2.68-15.175 12.198-15.175 21.53 0 6.943 5.456 16.46 13.392 16.46.79 0 1.69-.403 1.69-1.286 0-.9-.992-1.395-2.186-2.186-3.874-2.387-6.06-4.96-6.06-9.827 0-6.044 4.573-10.91 10.324-12.29l5.75 32.627m14.09-18.352c0 7.053-2.883 14.29-9.92 17.174-2.077-11.905-4.76-27.684-5.456-32.055 8.928 0 15.376 6.06 15.376 14.88"/><path class="Beam" fill-rule="evenodd" d="M2299.448 272.8h116.53v12.4h-116.53v-12.4M2299.448 254.2h116.53v12.4h-116.53v-12.4M1661.348 285.2h121v12.4h-121v-12.4M1661.348 266.6h121V279h-121v-12.4M327.465 582.8h116.537v12.4H327.465v-12.4M327.465 564.2h116.537v12.4H327.465v-12.4M963.148 595.2h121v12.4h-121v-12.4M963.148 576.6h121V589h-121v-12.4M992.758 1884.798h149.77v12.4h-149.77v-12.4M992.758 1903.398h149.77v12.4h-149.77v-12.4M1633.038 310h136.38v12.4h-136.38V310M1633.038 328.6h136.38V341h-136.38v-12.4M2298.478 322.4h136.37v12.4h-136.37v-12.4M2298.478 341h136.37v12.4h-136.37V341M356.116 632.4h136.377v12.4H356.116v-12.4M356.116 651h136.377v12.4H356.116V651M1027.708 0h136.38v12.4h-136.38V0M1027.708 18.6h136.38V31h-136.38V18.6M1009.228 620h136.38v12.4h-136.38V620M1009.228 638.6h136.38V651h-136.38v-12.4M1632.588 905.198h136.68v12.4h-136.68v-12.4M1632.588 886.598h136.68v12.4h-136.68v-12.4M2276.078 892.798h127.75v12.4h-127.75v-12.4M2276.078 874.198h127.75v12.4h-127.75v-12.4M364.32 12.4h136.376v12.4H364.32V12.4M364.32 31h136.376v12.4H364.32V31M960.928 1215.198h136.68v12.4h-136.68v-12.4M960.928 1196.598h136.68v12.4h-136.68v-12.4M1618.248 2120.408h136.38v12.4h-136.38v-12.4M1618.248 2101.808h136.38v12.4h-136.38v-12.4M321.153 2070.808H457.53v12.4H321.152v-12.4M321.153 2052.198H457.53v12.41H321.152v-12.41M2296.068 1587.198h136.38v12.4h-136.38v-12.4M2296.068 1605.798h136.38v12.4h-136.38v-12.4M1646.658 1618.198h149.77v12.4h-149.77v-12.4M1646.658 1636.798h149.77v12.4h-149.77v-12.4M997.238 1525.198h149.77v12.4h-149.77v-12.4M997.238 1543.798h149.77v12.4h-149.77v-12.4M318.067 1797.998h149.77v12.4h-149.77v-12.4M318.067 1779.398h149.77v12.4h-149.77v-12.4M2274.708 1277.198h166.88v12.4h-166.88v-12.4M2274.708 1295.798h166.88v12.4h-166.88v-12.4M1597.838 1425.998h166.88v12.4h-166.88v-12.4M1597.838 1407.398h166.88v12.4h-166.88v-12.4M1010.988 1277.198h136.38v12.4h-136.38v-12.4M1010.988 1295.798h136.38v12.4h-136.38v-12.4M337.54 1332.998h193.215v12.4H337.54v-12.4M337.54 1351.598h193.215v12.4H337.54v-12.4M2279.938 1835.198h149.77v12.4h-149.77v-12.4M2279.938 1853.798h149.77v12.4h-149.77v-12.4M2287.288 942.398h136.37v12.4h-136.37v-12.4M2287.288 960.998h136.37v12.4h-136.37v-12.4M1634.178 929.998h136.37v12.4h-136.37v-12.4M1634.178 948.598h136.37v12.4h-136.37v-12.4M326.363 1202.798h127.752v12.4H326.363v-12.4M326.363 1184.198h127.752v12.4H326.363v-12.4"/></svg>