<?xml version="1.0" encoding="UTF-8" standalone="no"?>
<svg
   width="576.16394"
   height="372.38864"
   viewBox="0 0 576.16395 372.38865"
   version="1.2"
   id="svg84"
   xmlns="http://www.w3.org/2000/svg"
   xmlns:svg="http://www.w3.org/2000/svg">
  <defs
     id="defs88" />
  <title
     id="title2">Urstudien - Left Hand (4)</title>
  <desc
     id="desc4">Generated by MuseScore 4.0.1</desc>
  <path
     class=""
     fill="#ffffff"
     fill-rule="evenodd"
     d="M -491.68897,-141.63143 H 2485.511 V 4066.7686 H -491.68897 V -141.63143"
     id="path6" />
  <polyline
     class="StaffLines"
     fill="none"
     stroke="#000000"
     stroke-width="2.73"
     stroke-linejoin="bevel"
     points="141.732,347.766 2835.47,347.766"
     id="polyline8"
     transform="matrix(0.21389011,0,0,1,-30.315073,-141.63143)" />
  <polyline
     class="StaffLines"
     fill="none"
     stroke="#000000"
     stroke-width="2.73"
     stroke-linejoin="bevel"
     points="141.732,372.566 2835.47,372.566"
     id="polyline10"
     transform="matrix(0.21389011,0,0,1,-30.315073,-141.63143)" />
  <polyline
     class="StaffLines"
     fill="none"
     stroke="#000000"
     stroke-width="2.73"
     stroke-linejoin="bevel"
     points="141.732,397.366 2835.47,397.366"
     id="polyline12"
     transform="matrix(0.21389011,0,0,1,-30.315073,-141.63143)" />
  <polyline
     class="StaffLines"
     fill="none"
     stroke="#000000"
     stroke-width="2.73"
     stroke-linejoin="bevel"
     points="141.732,422.166 2835.47,422.166"
     id="polyline14"
     transform="matrix(0.21389011,0,0,1,-30.315073,-141.63143)" />
  <polyline
     class="StaffLines"
     fill="none"
     stroke="#000000"
     stroke-width="2.73"
     stroke-linejoin="bevel"
     points="141.732,446.966 2835.47,446.966"
     id="polyline16"
     transform="matrix(0.21389011,0,0,1,-30.315073,-141.63143)" />
  <path
     class="Accidental"
     d="m 80.386039,339.55955 c -4.960005,0 -7.843008,3.06896 -8.339008,3.67348 l 0.403,-31.85255 c 0,-0.79043 -0.589001,-1.37948 -1.395001,-1.37948 h -1.178002 c -0.806,0 -1.395001,0.58905 -1.395001,1.37948 l 0.496,59.62858 c 0,0.79053 0.589001,1.37958 1.395002,1.37958 0.186,0 0.589,-0.0931 0.790506,-0.186 8.525028,-4.27801 17.453037,-12.40006 17.453037,-22.63008 0,-5.14605 -2.371478,-10.01301 -8.230533,-10.01301 m -8.633504,27.97751 0.294496,-19.344 c 0.201505,-0.899 1.689506,-3.76655 5.65751,-3.76655 3.580548,0 3.874974,3.36355 3.874974,5.45606 0,8.81951 -3.270478,12.49301 -9.82698,17.65449"
     id="path28"
     style="stroke-width:0.992001" />
  <path
     class="Accidental"
     d="m 398.78358,108.91856 c 0.60452,-0.0931 1.10052,-0.79053 1.10052,-1.39505 v -5.84348 c 0,-0.992 -0.69757,-1.39495 -1.59653,-1.39495 l -3.27052,0.69747 V 86.195487 h -2.77453 V 101.5715 l -8.83498,1.798 V 89.373065 h -2.77451 v 14.585485 l -3.875,0.79053 c -0.589,0.10843 -1.085,0.79043 -1.085,1.39495 v 5.75053 c 0,1.085 0.7905,1.395 1.6895,1.395 l 3.2705,-0.6975 v 16.36802 l -3.875,0.7905 c -0.589,0.093 -1.085,0.79053 -1.085,1.39505 v 5.75043 c 0,1.08505 0.7905,1.37958 1.6895,1.37958 l 3.2705,-0.682 v 14.77149 h 2.77451 v -15.37602 l 8.83498,-1.78252 v 13.99654 h 2.77453 v -14.58549 l 3.76653,-0.69758 c 0.60452,-0.10843 1.10052,-0.79043 1.10052,-1.39495 v -5.84353 c 0,-0.992 -0.69757,-1.395 -1.59653,-1.395 l -3.27052,0.6975 v -16.36802 l 3.76653,-0.6975 m -15.37604,3.069 8.83498,-1.7825 v 16.36802 l -8.83498,1.891 v -16.47652"
     id="path30"
     style="stroke-width:0.992001" />
  <path
     class="Accidental"
     d="m 391.64604,29.558555 c -4.96001,0 -7.84301,3.068953 -8.33901,3.673478 l 0.403,-31.8525564 C 383.71003,0.58905019 383.12103,0 382.31503,0 h -1.178 c -0.806,0 -1.395,0.58905019 -1.395,1.3794766 l 0.496,59.6285844 c 0,0.790526 0.589,1.379576 1.395,1.379576 0.186,0 0.589,-0.09305 0.7905,-0.186 8.52503,-4.278004 17.45304,-12.400062 17.45304,-22.630072 0,-5.146055 -2.37148,-10.01301 -8.23053,-10.01301 m -8.6335,27.977503 0.29449,-19.344 c 0.20151,-0.899001 1.68951,-3.766548 5.65751,-3.766548 3.58055,0 3.87498,3.363548 3.87498,5.456055 0,8.819514 -3.27048,12.493013 -9.82698,17.654493"
     id="path32"
     style="stroke-width:0.992001" />
  <polyline
     class="LedgerLine"
     fill="none"
     stroke="#000000"
     stroke-width="3.97"
     stroke-linejoin="bevel"
     points="586.505,322.966 639.872,322.966"
     id="polyline34"
     transform="translate(-491.68897,-141.63143)" />
  <polyline
     class="LedgerLine"
     fill="none"
     stroke="#000000"
     stroke-width="3.97"
     stroke-linejoin="bevel"
     points="586.505,496.567 639.872,496.567"
     id="polyline36"
     transform="translate(-491.68897,-141.63143)" />
  <polyline
     class="LedgerLine"
     fill="none"
     stroke="#000000"
     stroke-width="3.97"
     stroke-linejoin="bevel"
     points="897.765,322.966 951.132,322.966"
     id="polyline38"
     transform="translate(-491.68897,-141.63143)" />
  <polyline
     class="LedgerLine"
     fill="none"
     stroke="#000000"
     stroke-width="3.97"
     stroke-linejoin="bevel"
     points="897.765,298.166 951.132,298.166"
     id="polyline40"
     transform="translate(-491.68897,-141.63143)" />
  <polyline
     class="LedgerLine"
     fill="none"
     stroke="#000000"
     stroke-width="3.97"
     stroke-linejoin="bevel"
     points="897.765,273.366 951.132,273.366"
     id="polyline42"
     transform="translate(-491.68897,-141.63143)" />
  <polyline
     class="LedgerLine"
     fill="none"
     stroke="#000000"
     stroke-width="3.97"
     stroke-linejoin="bevel"
     points="897.765,248.566 951.132,248.566"
     id="polyline44"
     transform="translate(-491.68897,-141.63143)" />
  <polyline
     class="LedgerLine"
     fill="none"
     stroke="#000000"
     stroke-width="3.97"
     stroke-linejoin="bevel"
     points="897.765,223.766 951.132,223.766"
     id="polyline46"
     transform="translate(-491.68897,-141.63143)" />
  <polyline
     class="LedgerLine"
     fill="none"
     stroke="#000000"
     stroke-width="3.97"
     stroke-linejoin="bevel"
     points="897.765,198.966 951.132,198.966"
     id="polyline48"
     transform="translate(-491.68897,-141.63143)" />
  <polyline
     class="LedgerLine"
     fill="none"
     stroke="#000000"
     stroke-width="3.97"
     stroke-linejoin="bevel"
     points="586.505,471.767 639.872,471.767"
     id="polyline50"
     transform="translate(-491.68897,-141.63143)" />
  <path
     class="Note"
     d="m 121.55352,217.44951 c -13.68649,0 -18.55349,6.94405 -18.55349,13.39206 0,6.44801 4.867,13.39206 18.55349,13.39206 13.68654,0 18.44507,-6.94405 18.44507,-13.39206 0,-6.44801 -4.75853,-13.39206 -18.44507,-13.39206 m 0.79053,23.60655 c -2.77453,0 -4.66548,-0.79048 -5.95201,-3.27048 -1.28653,-2.48001 -3.06895,-8.92801 -3.17748,-11.51652 -0.20147,-2.6815 0.79053,-4.2625 3.17748,-5.053 1.19348,-0.40298 2.77453,-0.60455 4.37105,-0.60455 2.66601,0 4.46401,0.60455 5.84349,3.28605 1.39495,2.57301 3.286,9.02101 3.286,11.50101 0,4.86701 -3.58053,5.65749 -7.54853,5.65749"
     id="path52"
     style="stroke-width:0.992001" />
  <path
     class="Note"
     d="m 121.55352,341.45051 c -13.68649,0 -18.55349,6.94405 -18.55349,13.39206 0,6.44801 4.867,13.39206 18.55349,13.39206 13.68654,0 18.44507,-6.94405 18.44507,-13.39206 0,-6.44801 -4.75853,-13.39206 -18.44507,-13.39206 m 0.79053,23.60655 c -2.77453,0 -4.66548,-0.79048 -5.95201,-3.27048 -1.28653,-2.48001 -3.06895,-8.92801 -3.17748,-11.51652 -0.20147,-2.6815 0.79053,-4.2625 3.17748,-5.053 1.19348,-0.40298 2.77453,-0.60455 4.37105,-0.60455 2.66601,0 4.46401,0.60455 5.84349,3.28605 1.39495,2.57301 3.286,9.02101 3.286,11.50101 0,4.86701 -3.58053,5.65749 -7.54853,5.65749"
     id="path54"
     style="stroke-width:0.992001" />
  <path
     class="Note"
     d="m 432.81352,31.449507 c -13.68649,0 -18.55349,6.944057 -18.55349,13.392063 0,6.448007 4.867,13.392063 18.55349,13.392063 13.68654,0 18.44507,-6.944056 18.44507,-13.392063 0,-6.448006 -4.75853,-13.392063 -18.44507,-13.392063 m 0.79053,23.606548 c -2.77453,0 -4.66548,-0.790475 -5.95201,-3.270478 -1.28653,-2.480002 -3.06895,-8.928009 -3.17748,-11.516517 -0.20147,-2.681497 0.79053,-4.262499 3.17748,-5.053005 1.19348,-0.40297 2.77453,-0.604545 4.37105,-0.604545 2.66601,0 4.46401,0.604545 5.84349,3.286053 1.39495,2.573003 3.286,9.021009 3.286,11.501012 0,4.867005 -3.58053,5.65748 -7.54853,5.65748"
     id="path56"
     style="stroke-width:0.992001" />
  <path
     class="Note"
     d="m 432.81352,105.84951 c -13.68649,0 -18.55349,6.94405 -18.55349,13.39206 0,6.44801 4.867,13.39206 18.55349,13.39206 13.68654,0 18.44507,-6.94405 18.44507,-13.39206 0,-6.44801 -4.75853,-13.39206 -18.44507,-13.39206 m 0.79053,23.60655 c -2.77453,0 -4.66548,-0.79048 -5.95201,-3.27048 -1.28653,-2.48001 -3.06895,-8.92801 -3.17748,-11.51652 -0.20147,-2.6815 0.79053,-4.2625 3.17748,-5.053 1.19348,-0.40298 2.77453,-0.60455 4.37105,-0.60455 2.66601,0 4.46401,0.60455 5.84349,3.28605 1.39495,2.57301 3.286,9.02101 3.286,11.50101 0,4.86701 -3.58053,5.65749 -7.54853,5.65749"
     id="path58"
     style="stroke-width:0.992001" />
  <path
     class="Note"
     d="m 432.81352,167.84951 c -13.68649,0 -18.55349,6.94405 -18.55349,13.39206 0,6.44801 4.867,13.39206 18.55349,13.39206 13.68654,0 18.44507,-6.94405 18.44507,-13.39206 0,-6.44801 -4.75853,-13.39206 -18.44507,-13.39206 m 0.79053,23.60655 c -2.77453,0 -4.66548,-0.79048 -5.95201,-3.27048 -1.28653,-2.48001 -3.06895,-8.92801 -3.17748,-11.51652 -0.20147,-2.6815 0.79053,-4.2625 3.17748,-5.053 1.19348,-0.40298 2.77453,-0.60455 4.37105,-0.60455 2.66601,0 4.46401,0.60455 5.84349,3.28605 1.39495,2.57301 3.286,9.02101 3.286,11.50101 0,4.86701 -3.58053,5.65749 -7.54853,5.65749"
     id="path60"
     style="stroke-width:0.992001" />
  <path
     class="Note"
     d="m 432.81352,229.84951 c -13.68649,0 -18.55349,6.94405 -18.55349,13.39206 0,6.44801 4.867,13.39206 18.55349,13.39206 13.68654,0 18.44507,-6.94405 18.44507,-13.39206 0,-6.44801 -4.75853,-13.39206 -18.44507,-13.39206 m 0.79053,23.60655 c -2.77453,0 -4.66548,-0.79048 -5.95201,-3.27048 -1.28653,-2.48001 -3.06895,-8.92801 -3.17748,-11.51652 -0.20147,-2.6815 0.79053,-4.2625 3.17748,-5.053 1.19348,-0.40298 2.77453,-0.60455 4.37105,-0.60455 2.66601,0 4.46401,0.60455 5.84349,3.28605 1.39495,2.57301 3.286,9.02101 3.286,11.50101 0,4.86701 -3.58053,5.65749 -7.54853,5.65749"
     id="path62"
     style="stroke-width:0.992001" />
  <path
     class="Note"
     d="m 121.55352,155.44951 c -13.68649,0 -18.55349,6.94405 -18.55349,13.39206 0,6.44801 4.867,13.39206 18.55349,13.39206 13.68654,0 18.44507,-6.94405 18.44507,-13.39206 0,-6.44801 -4.75853,-13.39206 -18.44507,-13.39206 m 0.79053,23.60655 c -2.77453,0 -4.66548,-0.79048 -5.95201,-3.27048 -1.28653,-2.48001 -3.06895,-8.92801 -3.17748,-11.51652 -0.20147,-2.6815 0.79053,-4.2625 3.17748,-5.053 1.19348,-0.40298 2.77453,-0.60455 4.37105,-0.60455 2.66601,0 4.46401,0.60455 5.84349,3.28605 1.39495,2.57301 3.286,9.02101 3.286,11.50101 0,4.86701 -3.58053,5.65749 -7.54853,5.65749"
     id="path64"
     style="stroke-width:0.992001" />
  <path
     class="Note"
     d="m 121.55352,279.44951 c -13.68649,0 -18.55349,6.94405 -18.55349,13.39206 0,6.44801 4.867,13.39206 18.55349,13.39206 13.68654,0 18.44507,-6.94405 18.44507,-13.39206 0,-6.44801 -4.75853,-13.39206 -18.44507,-13.39206 m 0.79053,23.60655 c -2.77453,0 -4.66548,-0.79048 -5.95201,-3.27048 -1.28653,-2.48001 -3.06895,-8.92801 -3.17748,-11.51652 -0.20147,-2.6815 0.79053,-4.2625 3.17748,-5.053 1.19348,-0.40298 2.77453,-0.60455 4.37105,-0.60455 2.66601,0 4.46401,0.60455 5.84349,3.28605 1.39495,2.57301 3.286,9.02101 3.286,11.50101 0,4.86701 -3.58053,5.65749 -7.54853,5.65749"
     id="path66"
     style="stroke-width:0.992001" />
  <polyline
     class="GlissandoSegment"
     fill="none"
     stroke="#000000"
     stroke-width="3.72"
     stroke-linecap="round"
     stroke-linejoin="bevel"
     transform="rotate(-21.721421,483.3111,-324.41757)"
     points="0,0 231.53,0"
     id="polyline80" />
  <path
     class="GlissandoSegment"
     d="m 221.52748,95.9734 c 0.38693,-0.759642 0.65142,-1.06684 1.08684,-1.240303 0.37745,-0.15037 0.75165,-0.09761 1.20968,0.207755 0.91895,0.575788 1.19452,0.634146 1.78963,0.397064 0.85644,-0.34119 1.21755,-1.292375 0.84746,-2.221369 -0.43372,-1.088689 -1.81999,-1.52868 -3.12643,-1.008216 -1.29186,0.514652 -2.09682,1.407133 -3.42018,3.700333 -1.36942,-0.05994 -2.30103,0.09257 -3.49135,0.566771 -4.12238,1.642282 -6.43798,5.962315 -5.07326,9.387985 0.71125,1.78534 1.89376,2.72712 3.83165,2.94744 -1.61158,0.89431 -2.29133,1.46786 -2.85283,2.54933 -0.5032,0.89006 -0.58321,2.08246 -0.22468,2.98242 0.5031,1.26285 1.4105,1.8096 3.12511,1.93386 -1.99523,1.36672 -4.17987,3.31347 -3.10429,6.01336 1.48038,3.71598 6.5659,2.2114 9.28031,1.13003 3.67242,-1.46302 5.61247,-2.75731 6.95271,-4.67041 1.18609,-1.66668 1.47898,-3.63348 0.77927,-5.38987 -1.49194,-3.745 -5.64842,-2.61054 -8.58317,-1.66004 -3.36442,1.13849 -3.64305,1.19903 -4.21187,1.29108 -1.01573,0.15237 -1.64499,-0.11835 -1.89364,-0.74251 -0.35853,-0.89997 0.28983,-1.84786 1.63977,-2.38565 0.47902,-0.19083 1.04796,-0.36702 1.5704,-0.49106 1.61087,-0.38945 1.84595,-0.43265 2.77494,-0.80274 2.07572,-0.82693 3.50778,-2.00293 4.38337,-3.56273 1.0382,-1.74232 1.22701,-3.9704 0.54463,-5.683281 -0.69393,-1.741865 -1.96616,-2.782403 -3.83407,-3.249249 m -4.28211,1.705911 c 1.94504,-0.774866 3.62696,-0.09937 4.34983,1.71514 1.06402,2.670859 1.19208,6.538699 -1.97228,7.799329 -2.00315,0.79801 -3.7691,0.0382 -4.59605,-2.03751 -1.33,-3.33853 -0.45238,-6.412931 2.2185,-7.476959 m 1.82058,17.742319 c 1.66928,-0.66501 4.50503,-1.35742 5.47989,-1.35894 1.09091,0.0363 1.79536,0.49576 2.16545,1.42475 0.87319,2.19184 -0.98961,4.31312 -5.25719,6.01325 -3.61438,1.4399 -5.64219,1.20495 -6.42864,-0.76916 -0.79802,-2.00315 0.65837,-3.96252 4.04049,-5.3099 m 13.22135,-36.85377 -7.18321,3.500843 0.3869,1.393238 1.14666,-0.456807 c 1.5242,-0.607214 2.25233,-0.510415 2.57616,0.302454 0.15033,0.377358 0.22503,0.902609 0.31956,1.773245 l 1.6319,17.817437 c 0.32895,3.40099 0.40365,3.92626 0.87783,5.11654 0.6361,1.59671 1.9641,2.22819 3.44464,1.63837 2.35157,-0.93682 3.93686,-3.83898 4.66301,-8.51808 l -1.40119,-0.18184 c -0.76243,3.70123 -1.74915,5.9108 -2.77977,6.32138 -0.40644,0.16192 -0.78911,-0.0389 -0.97994,-0.51785 -0.17926,-0.44999 -0.19083,-0.47902 -0.33637,-2.23752 L 232.2873,78.56786 m 9.68342,-2.882124 c -1.11777,0.445297 -1.64468,1.69795 -1.19938,2.815716 0.4279,1.074103 1.68342,1.650361 2.77211,1.216648 1.14675,-0.456844 1.67366,-1.709498 1.23418,-2.812679 -0.4453,-1.117765 -1.68924,-1.664945 -2.80691,-1.219685 m 4.28186,8.8062 -6.90739,3.390961 0.39268,1.407731 0.88542,-0.352737 c 1.52411,-0.607177 2.25233,-0.510415 2.57616,0.302455 0.14456,0.362865 0.2396,0.812734 0.31956,1.773244 l 0.72278,8.104863 c 0.24584,2.643607 0.33789,3.212427 0.67907,4.068837 0.52045,1.30641 2.03713,1.86272 3.44511,1.3018 3.19342,-1.27219 4.06683,-5.454937 4.67458,-8.489049 l -1.41569,-0.176066 c -0.76243,3.70123 -1.69108,5.887665 -2.69263,6.286665 -0.37745,0.15037 -0.77169,-0.0794 -0.95095,-0.5294 -0.14457,-0.36289 -0.27125,-1.10292 -0.37702,-2.25496 l -1.35168,-14.834344 m 12.86081,-5.123509 c -3.90475,1.555579 -5.78684,5.06373 -4.50306,8.286225 0.64185,1.611155 2.10288,2.576537 4.08429,2.77951 0.71077,0.05323 1.58409,0.09216 3.4062,0.106313 2.44013,0.0034 3.17087,0.317797 3.69131,1.624195 0.79802,2.003144 -0.36819,3.931017 -2.93742,4.95455 -1.88697,0.751735 -3.43058,0.761181 -3.7255,0.02089 -0.0752,-0.188707 -0.0604,-0.446887 0.0415,-0.655661 0.40183,-1.017868 0.39921,-1.235469 0.1332,-1.903184 -0.41635,-1.045119 -1.55306,-1.534156 -2.62716,-1.106253 -1.2338,0.491522 -1.75222,1.892214 -1.17395,3.343768 1.03511,2.598285 3.97911,3.27557 7.73866,1.777835 4.26761,-1.700138 6.26868,-5.205235 4.92131,-8.58735 -0.58984,-1.480585 -1.7606,-2.477454 -3.27476,-2.816123 -1.03839,-0.242268 -1.47359,-0.237138 -3.80066,-0.16778 -2.76531,0.109284 -3.62658,-0.237164 -4.20485,-1.688717 -0.68238,-1.71288 0.44025,-3.623419 2.60304,-4.485035 1.45156,-0.578272 2.57155,-0.553515 2.80866,0.04169 0.0636,0.159601 0.0604,0.362692 0.0195,0.597726 -0.22766,0.9484 -0.22511,1.166113 3.9e-4,1.732149 0.39903,1.001642 1.46049,1.386102 2.60724,0.929258 1.26278,-0.503069 1.74913,-1.773253 1.21712,-3.108682 -0.90211,-2.264424 -3.80265,-2.959075 -7.02505,-1.675329 m 15.96709,-6.360993 c -3.90475,1.55558 -5.78684,5.06373 -4.50306,8.286226 0.64185,1.611155 2.10288,2.576536 4.08429,2.77951 0.71077,0.05323 1.58409,0.09216 3.4062,0.106312 2.44013,0.0034 3.17087,0.317797 3.69131,1.624196 0.79802,2.003143 -0.3682,3.931017 -2.93742,4.954549 -1.88697,0.751735 -3.43058,0.761182 -3.7255,0.02089 -0.0752,-0.188706 -0.0604,-0.446886 0.0415,-0.655661 0.40182,-1.017867 0.39921,-1.235469 0.1332,-1.903183 -0.41636,-1.045119 -1.55306,-1.534157 -2.62716,-1.106254 -1.2338,0.491522 -1.75222,1.892215 -1.17395,3.343768 1.03511,2.598286 3.97911,3.27557 7.73866,1.777836 4.26761,-1.700138 6.26868,-5.205235 4.92131,-8.58735 -0.58984,-1.480585 -1.7606,-2.477455 -3.27476,-2.816123 -1.03839,-0.242269 -1.47359,-0.237138 -3.80066,-0.16778 -2.76531,0.109283 -3.62658,-0.237164 -4.20485,-1.688718 -0.68238,-1.712879 0.44025,-3.623419 2.60304,-4.485035 1.45156,-0.578272 2.57154,-0.553515 2.80866,0.04169 0.0636,0.159601 0.0604,0.362692 0.0195,0.597725 -0.22767,0.948401 -0.22511,1.166114 3.9e-4,1.73215 0.39903,1.001642 1.46049,1.386102 2.60724,0.929258 1.26278,-0.503069 1.74913,-1.773253 1.21712,-3.108683 -0.90211,-2.264423 -3.80265,-2.959074 -7.02505,-1.675329 m 15.50412,9.364469 c -1.26288,0.503106 -1.87715,1.958807 -1.37405,3.221664 0.5031,1.262851 1.94429,1.882872 3.17809,1.39135 1.33543,-0.53201 1.93797,-1.932581 1.42331,-3.224463 -0.5031,-1.262857 -1.96457,-1.891619 -3.22735,-1.388551"
     id="path82" />
</svg>
