<svg width="718.772" height="372.389" viewBox="0 0 718.77198 372.38865" version="1.2" xmlns="http://www.w3.org/2000/svg"><desc>Generated by MuseScore 4.0.1</desc><path class="StaffLines" fill="none" stroke="#000" stroke-width="2.73" stroke-linejoin="bevel" d="M0 206.135h718.772M0 230.935h718.772M0 255.735h718.772M0 280.535h718.772M0 305.335h718.772"/><path class="Accidental" d="M434.24 29.56c-4.96 0-7.844 3.068-8.34 3.672l.403-31.853c0-.79-.59-1.38-1.395-1.38h-1.178c-.806 0-1.395.59-1.395 1.38l.496 59.628c0 .79.59 1.38 1.396 1.38.186 0 .59-.093.79-.186 8.526-4.278 17.454-12.4 17.454-22.63 0-5.146-2.372-10.013-8.23-10.013m-8.634 27.976l.294-19.344c.202-.9 1.69-3.766 5.658-3.766 3.58 0 3.874 3.363 3.874 5.456 0 8.82-3.27 12.493-9.826 17.654M441.378 108.92c.604-.095 1.1-.792 1.1-1.396v-5.844c0-.992-.698-1.395-1.596-1.395l-3.27.698V86.195h-2.776v15.377l-8.834 1.798V89.373h-2.775v14.586l-3.875.79c-.59.108-1.085.79-1.085 1.394v5.75c0 1.086.79 1.396 1.69 1.396l3.27-.698v16.368l-3.875.79c-.59.094-1.085.79-1.085 1.396v5.75c0 1.085.79 1.38 1.69 1.38l3.27-.682v14.77h2.775V136.99l8.834-1.783v13.996h2.775v-14.585l3.768-.698c.604-.108 1.1-.79 1.1-1.395v-5.843c0-.992-.697-1.395-1.596-1.395l-3.27.697v-16.368l3.766-.697m-15.376 3.068l8.834-1.783v16.368l-8.834 1.89V111.99M209.985 339.56c-4.96 0-7.843 3.07-8.34 3.673l.404-31.853c0-.79-.59-1.38-1.396-1.38h-1.178c-.806 0-1.395.59-1.395 1.38l.497 59.63c0 .79.59 1.38 1.395 1.38.186 0 .59-.094.79-.187 8.526-4.278 17.454-12.4 17.454-22.63 0-5.146-2.372-10.013-8.23-10.013m-8.634 27.977l.294-19.344c.202-.9 1.69-3.766 5.658-3.766 3.58 0 3.874 3.363 3.874 5.456 0 8.82-3.27 12.493-9.826 17.654"/><path class="LedgerLine" fill="none" stroke="#000" stroke-width="3.97" stroke-linejoin="bevel" d="M224.415 354.936h53.367M448.67 57.335h53.367M448.67 82.135h53.367M448.67 106.935h53.367M448.67 131.735h53.367M448.67 156.535h53.367M448.67 181.335h53.367M224.415 330.136h53.367M224.415 181.335h53.367"/><path class="Note" d="M251.152 155.45c-13.686 0-18.553 6.944-18.553 13.392 0 6.448 4.866 13.392 18.552 13.392 13.687 0 18.446-6.944 18.446-13.392 0-6.448-4.76-13.392-18.446-13.392m.79 23.606c-2.774 0-4.664-.79-5.95-3.27-1.288-2.48-3.07-8.928-3.178-11.517-.202-2.682.79-4.263 3.177-5.054 1.194-.403 2.776-.604 4.372-.604 2.666 0 4.464.604 5.844 3.286 1.394 2.573 3.286 9.02 3.286 11.5 0 4.868-3.58 5.658-7.55 5.658M251.152 217.45c-13.686 0-18.553 6.944-18.553 13.392 0 6.448 4.866 13.392 18.552 13.392 13.687 0 18.446-6.944 18.446-13.392 0-6.448-4.76-13.392-18.446-13.392m.79 23.606c-2.774 0-4.664-.79-5.95-3.27-1.288-2.48-3.07-8.928-3.178-11.517-.202-2.682.79-4.263 3.177-5.054 1.194-.403 2.776-.604 4.372-.604 2.666 0 4.464.604 5.844 3.286 1.394 2.573 3.286 9.02 3.286 11.5 0 4.868-3.58 5.658-7.55 5.658M251.152 279.45c-13.686 0-18.553 6.944-18.553 13.392 0 6.448 4.866 13.392 18.552 13.392 13.687 0 18.446-6.944 18.446-13.392 0-6.448-4.76-13.392-18.446-13.392m.79 23.606c-2.774 0-4.664-.79-5.95-3.27-1.288-2.48-3.07-8.928-3.178-11.517-.202-2.682.79-4.263 3.177-5.054 1.194-.403 2.776-.604 4.372-.604 2.666 0 4.464.604 5.844 3.286 1.394 2.573 3.286 9.02 3.286 11.5 0 4.868-3.58 5.658-7.55 5.658M251.152 341.45c-13.686 0-18.553 6.945-18.553 13.393s4.866 13.392 18.552 13.392c13.687 0 18.446-6.944 18.446-13.392 0-6.448-4.76-13.392-18.446-13.392m.79 23.607c-2.774 0-4.664-.79-5.95-3.27-1.288-2.48-3.07-8.928-3.178-11.517-.202-2.68.79-4.262 3.177-5.053 1.194-.403 2.776-.604 4.372-.604 2.666 0 4.464.604 5.844 3.286 1.394 2.572 3.286 9.02 3.286 11.5 0 4.867-3.58 5.657-7.55 5.657M475.407 229.85c-13.686 0-18.553 6.944-18.553 13.392 0 6.448 4.867 13.392 18.553 13.392 13.687 0 18.446-6.944 18.446-13.392 0-6.448-4.76-13.392-18.446-13.392m.79 23.606c-2.774 0-4.664-.79-5.95-3.27-1.288-2.48-3.07-8.928-3.178-11.517-.203-2.682.79-4.263 3.176-5.054 1.193-.403 2.775-.604 4.37-.604 2.667 0 4.465.604 5.845 3.286 1.396 2.573 3.287 9.02 3.287 11.5 0 4.868-3.58 5.658-7.55 5.658M475.407 167.85c-13.686 0-18.553 6.944-18.553 13.392 0 6.448 4.867 13.392 18.553 13.392 13.687 0 18.446-6.944 18.446-13.392 0-6.448-4.76-13.392-18.446-13.392m.79 23.606c-2.774 0-4.664-.79-5.95-3.27-1.288-2.48-3.07-8.928-3.178-11.517-.203-2.682.79-4.263 3.176-5.054 1.193-.403 2.775-.604 4.37-.604 2.667 0 4.465.604 5.845 3.286 1.396 2.573 3.287 9.02 3.287 11.5 0 4.868-3.58 5.658-7.55 5.658M475.407 105.85c-13.686 0-18.553 6.944-18.553 13.392 0 6.448 4.867 13.392 18.553 13.392 13.687 0 18.446-6.944 18.446-13.392 0-6.448-4.76-13.392-18.446-13.392m.79 23.606c-2.774 0-4.664-.79-5.95-3.27-1.288-2.48-3.07-8.928-3.178-11.517-.203-2.682.79-4.263 3.176-5.054 1.193-.403 2.775-.604 4.37-.604 2.667 0 4.465.604 5.845 3.286 1.396 2.573 3.287 9.02 3.287 11.5 0 4.868-3.58 5.658-7.55 5.658M475.407 31.45c-13.686 0-18.553 6.944-18.553 13.392 0 6.448 4.867 13.392 18.553 13.392 13.687 0 18.446-6.944 18.446-13.392 0-6.448-4.76-13.392-18.446-13.392m.79 23.606c-2.774 0-4.664-.79-5.95-3.27-1.288-2.48-3.07-8.928-3.178-11.517-.203-2.682.79-4.263 3.176-5.054 1.193-.403 2.775-.604 4.37-.604 2.667 0 4.465.604 5.845 3.286 1.396 2.573 3.287 9.02 3.287 11.5 0 4.868-3.58 5.658-7.55 5.658"/><path class="GlissandoSegment" fill="none" stroke="#000" stroke-width="3.72" stroke-linecap="round" stroke-linejoin="bevel" d="M283.982 150.753L412.066 79.93"/><path class="GlissandoSegment" d="M305.81 103.532c.29-.803.513-1.14.923-1.367.356-.197.734-.192 1.226.054.983.455 1.264.478 1.825.168.806-.446 1.045-1.435.56-2.31-.566-1.026-1.996-1.288-3.227-.608-1.217.673-1.903 1.66-2.928 4.1-1.366.114-2.27.382-3.393 1.002-3.883 2.147-5.637 6.724-3.853 9.95.93 1.683 2.22 2.47 4.172 2.444-1.487 1.09-2.09 1.744-2.51 2.887-.388.946-.317 2.14.152 2.987.657 1.19 1.626 1.618 3.343 1.526-1.807 1.607-3.73 3.813-2.323 6.356 1.935 3.5 6.792 1.37 9.35-.045 3.458-1.913 5.22-3.44 6.31-5.507.967-1.803 1.01-3.79.095-5.445-1.95-3.528-5.932-1.88-8.724-.57-3.194 1.554-3.463 1.65-4.016 1.81-.988.28-1.647.09-1.972-.497-.47-.848.056-1.87 1.327-2.573.45-.25.994-.496 1.496-.685 1.55-.588 1.777-.66 2.653-1.145 1.955-1.08 3.228-2.427 3.9-4.085.812-1.86.72-4.093-.173-5.707-.908-1.64-2.3-2.513-4.212-2.74m-4.033 2.23c1.832-1.014 3.586-.555 4.53 1.154 1.392 2.516 2.005 6.337-.976 7.985-1.886 1.044-3.733.512-4.814-1.443-1.74-3.146-1.255-6.307 1.26-7.698m4.036 17.373c1.573-.87 4.3-1.913 5.266-2.037 1.087-.1 1.844.267 2.327 1.142 1.142 2.064-.44 4.403-4.46 6.626-3.404 1.883-5.445 1.904-6.474.045-1.042-1.886.156-4.013 3.342-5.775m8.486-38.223l-6.686 4.376.56 1.333 1.08-.596c1.435-.794 2.17-.79 2.593-.024.196.356.336.868.54 1.72l3.857 17.47c.754 3.333.894 3.845 1.514 4.966.832 1.504 2.23 1.964 3.623 1.193 2.214-1.226 3.423-4.304 3.555-9.038l-1.413-.004c-.29 3.768-.993 6.084-1.963 6.62-.384.213-.79.06-1.04-.39-.233-.424-.248-.45-.613-2.177l-5.61-25.448m9.246-4.076c-1.053.582-1.42 1.89-.836 2.944.56 1.012 1.877 1.426 2.903.86 1.08-.598 1.445-1.907.87-2.946-.582-1.053-1.885-1.44-2.937-.858m5.354 8.2l-6.426 4.23.567 1.348.834-.46c1.437-.795 2.17-.79 2.595-.025.19.34.34.775.54 1.718l1.735 7.95c.576 2.592.74 3.144 1.185 3.95.68 1.232 2.255 1.593 3.582.86 3.008-1.664 3.35-5.923 3.57-9.01l-1.426.003c-.29 3.77-.937 6.055-1.88 6.577-.356.196-.776.018-1.01-.406-.19-.34-.408-1.06-.658-2.19l-3.205-14.546m12.115-6.7c-3.678 2.035-5.105 5.752-3.426 8.788.84 1.517 2.41 2.292 4.4 2.244.713-.036 1.584-.108 3.394-.323 2.42-.303 3.185-.083 3.866 1.148 1.043 1.888.13 3.947-2.292 5.285-1.777.983-3.307 1.187-3.693.49-.097-.18-.115-.437-.04-.656.27-1.062.24-1.277-.107-1.906-.545-.985-1.734-1.327-2.746-.768-1.162.643-1.5 2.098-.744 3.465 1.353 2.45 4.36 2.75 7.9.792 4.02-2.222 5.566-5.95 3.804-9.137-.77-1.395-2.058-2.237-3.603-2.383-1.06-.11-1.49-.05-3.79.312-2.73.455-3.63.22-4.385-1.147-.893-1.614-.02-3.65 2.018-4.777 1.367-.756 2.48-.872 2.79-.312.084.15.107.353.096.59-.107.97-.077 1.186.218 1.72.522.943 1.623 1.19 2.703.594 1.19-.658 1.513-1.98.817-3.237-1.18-2.133-4.144-2.458-7.18-.78m15.04-8.317c-3.677 2.034-5.103 5.75-3.425 8.787.84 1.518 2.41 2.292 4.4 2.244.713-.037 1.585-.11 3.394-.323 2.422-.304 3.187-.084 3.867 1.147 1.044 1.887.13 3.946-2.29 5.284-1.78.983-3.31 1.187-3.695.49-.098-.178-.116-.436-.04-.656.27-1.06.24-1.276-.108-1.905-.544-.985-1.734-1.327-2.745-.768-1.164.642-1.502 2.097-.746 3.464 1.354 2.448 4.36 2.75 7.9.79 4.02-2.22 5.566-5.95 3.804-9.136-.77-1.395-2.058-2.237-3.603-2.382-1.06-.11-1.49-.05-3.79.31-2.73.457-3.63.22-4.385-1.146-.892-1.614-.018-3.65 2.02-4.777 1.366-.756 2.48-.872 2.79-.31.084.15.106.35.095.59-.107.97-.077 1.184.218 1.717.522.944 1.623 1.192 2.703.595 1.19-.658 1.513-1.98.817-3.237-1.18-2.133-4.144-2.458-7.18-.78m16.558 7.342c-1.188.658-1.615 2.18-.957 3.37s2.165 1.623 3.328.98c1.26-.695 1.68-2.16 1.008-3.378-.658-1.19-2.187-1.63-3.377-.972"/></svg>